<?xml version="1.0" encoding="utf-8"?>
<svg version="1.1" xmlns="http://www.w3.org/2000/svg" xmlns:xlink="http://www.w3.org/1999/xlink" x="0px" y="0px"
	 viewBox="0 100 600 310" style="enable-background:new 0 0 500 500;" xml:space="preserve">
<g id="BACKGROUND">
	<rect style="fill:#FFFFFF;" width="500" height="500"/>
</g>
<g id="OBJECTS">
	<g>
		
			<line style="fill:none;stroke:#EEEEFF;stroke-linecap:round;stroke-linejoin:round;stroke-miterlimit:10;" x1="70.744" y1="378.772" x2="428.863" y2="378.772"/>
		<g>
			<g>
				
					<rect x="218.523" y="128.52" style="fill:none;stroke:#D7D7FF;stroke-width:0.75;stroke-linecap:round;stroke-linejoin:round;stroke-miterlimit:10;" width="85.12" height="199.48"/>
				<rect x="218.524" y="102.496" style="fill:#D7D7FF;" width="85.118" height="16.396"/>
				<polygon style="fill:#EEEEFF;" points="303.643,201.7 303.643,328 218.523,328 218.523,234.51 223.373,234.51 223.373,260.13 
					240.713,260.13 240.713,244.88 245.203,244.88 245.203,229.51 249.543,225.17 249.543,210.02 254.493,210.02 254.493,278.38 
					271.513,278.38 271.513,240.4 277.543,234.37 277.543,217.86 291.733,217.86 291.733,233.61 297.233,233.61 297.233,201.7 				
					"/>
			</g>
			<g>
				
					<rect x="321.371" y="128.52" style="fill:none;stroke:#D7D7FF;stroke-width:0.75;stroke-linecap:round;stroke-linejoin:round;stroke-miterlimit:10;" width="85.12" height="199.48"/>
				
					<rect x="321.373" y="102.496" transform="matrix(-1 -1.224647e-16 1.224647e-16 -1 727.8633 221.3891)" style="fill:#D7D7FF;" width="85.118" height="16.396"/>
				<polygon style="fill:#EEEEFF;" points="321.371,201.7 321.371,328 406.491,328 406.491,234.51 401.641,234.51 401.641,260.13 
					384.301,260.13 384.301,244.88 379.811,244.88 379.811,229.51 375.471,225.17 375.471,210.02 370.521,210.02 370.521,278.38 
					353.501,278.38 353.501,240.4 347.471,234.37 347.471,217.86 333.281,217.86 333.281,233.61 327.781,233.61 327.781,201.7 				
					"/>
			</g>
			<g>
				
					<rect x="115.459" y="128.52" style="fill:none;stroke:#D7D7FF;stroke-width:0.75;stroke-linecap:round;stroke-linejoin:round;stroke-miterlimit:10;" width="85.12" height="199.48"/>
				
					<rect x="115.461" y="102.496" transform="matrix(-1 -1.224647e-16 1.224647e-16 -1 316.0393 221.3891)" style="fill:#D7D7FF;" width="85.118" height="16.396"/>
				<polygon style="fill:#EEEEFF;" points="115.459,201.7 115.459,328 200.579,328 200.579,234.51 195.729,234.51 195.729,260.13 
					178.389,260.13 178.389,244.88 173.899,244.88 173.899,229.51 169.559,225.17 169.559,210.02 164.609,210.02 164.609,278.38 
					147.589,278.38 147.589,240.4 141.559,234.37 141.559,217.86 127.369,217.86 127.369,233.61 121.869,233.61 121.869,201.7 				
					"/>
			</g>
		</g>
		
			<line style="fill:none;stroke:#D7D7FF;stroke-width:2.0845;stroke-linecap:round;stroke-linejoin:round;stroke-miterlimit:10;" x1="70.744" y1="397.504" x2="428.863" y2="397.504"/>
		<g>
			<path style="fill:#BDBDFF;" d="M195.186,387.349h-36.221c-1.795,0-3.251,1.455-3.251,3.251l0,0h42.722l0,0
				C198.436,388.805,196.981,387.349,195.186,387.349z"/>
			<path style="fill:#D7D7FF;" d="M198.653,390.6h-43.155c-1.906,0-3.452,1.545-3.452,3.452l0,0c0,1.906,1.545,3.452,3.452,3.452
				h43.155c1.906,0,3.452-1.545,3.452-3.452l0,0C202.105,392.145,200.559,390.6,198.653,390.6z"/>
			<rect x="172.712" y="329.082" style="fill:#BDBDFF;" width="8.728" height="58.267"/>
			<polyline style="fill:#BDBDFF;" points="237.292,258.386 202.105,258.386 179.83,305.771 186.154,322.833 205.195,329.082 
				214.742,323.824 			"/>
			<path style="fill:#D7D7FF;" d="M205.195,323.824l26.075-62.839c0.975-2.351,3.642-3.502,6.022-2.6l0,0
				c2.503,0.949,3.713,3.79,2.664,6.252l-28.774,67.545L205.195,323.824z"/>
			<rect x="154.293" y="323.824" style="fill:#D7D7FF;" width="56.889" height="8.359"/>
		</g>
		<g>
			<g>
				<path style="fill:#FF607C;" d="M168.818,384.873l-4.174,7.67c-0.268,0.492-0.408,1.044-0.408,1.604l0,0
					c0,1.854,1.503,3.356,3.356,3.356h15.206c1.854,0,3.356-1.503,3.356-3.356v-0.419c0-0.686-0.21-1.356-0.603-1.919l-6.827-9.796"
					/>
				<path style="fill:#FF607C;" d="M106.16,380.251L80.885,393.27c-1.091,0.562-1.527,1.897-0.978,2.995l0,0
					c0.38,0.759,1.156,1.239,2.005,1.239h37.374v-14.86"/>
				<path style="fill:#503766;" d="M191.112,302.776l-1.313,0.802l-23.951,14.675l-30.34,10.151l-0.188,0.678l-15.415,56.656
					l-17.708-3.721l7.431-67.808c0.677-6.17,4.961-11.34,10.902-13.153l34.196-10.422l1.626,0.052l25.087,0.823l2.554,0.208
					l3.46,0.281L191.112,302.776z"/>
				
					<path style="fill:none;stroke:#3B1957;stroke-width:0.5211;stroke-linecap:round;stroke-linejoin:round;stroke-miterlimit:10;" d="
					M115.437,378.772l10.771-56.644c0.39-2.052,1.852-3.736,3.829-4.412l19.092-6.523"/>
				<path style="fill:#3B1957;" d="M189.799,303.578l-23.951,14.675l-30.34,10.151l-0.188,0.678
					c-0.552-4.054-1.053-12.33,2.251-19.928c3.221-7.421,13.132-14.748,18.781-18.469l25.087,0.823l2.554,0.208L189.799,303.578z"/>
				<path style="fill:#503766;" d="M208.257,303.891l-0.375,5.18c-0.104,1.511-0.406,2.96-0.865,4.336
					c-2.397,7.108-9.213,12.1-17.062,11.861l-15.561-0.448l7.421,56.959l-17.947,3.96l-25.035-61.909
					c-0.844-2.095-1.261-4.305-1.261-6.514c0-2.699,0.615-5.378,1.855-7.838c2.449-4.846,7.014-8.275,12.35-9.276l18.531-3.46
					l14.112-2.637L208.257,303.891z"/>
				<path style="fill:#3B1957;" d="M208.257,303.891l-0.375,5.18c-0.104,1.511-0.406,2.96-0.865,4.336
					c-6.222-4.701-21.752-15.3-36.708-16.666l14.112-2.637L208.257,303.891z"/>
				
					<path style="fill:none;stroke:#3B1957;stroke-width:0.5211;stroke-linecap:round;stroke-linejoin:round;stroke-miterlimit:10;" d="
					M202.105,302.352c-2.824,8.284-38.735,10.141-38.735,10.141l13.498,64.658"/>
				<path style="fill:#3B1957;" d="M182.88,383.311l-18.542,4.615c-1.035,0.258-2.083-0.373-2.34-1.408l-0.862-3.462
					c-0.258-1.035,0.373-2.083,1.408-2.34l18.542-4.615c1.035-0.258,2.083,0.373,2.34,1.408l0.862,3.462
					C184.545,382.006,183.915,383.054,182.88,383.311z"/>
				<path style="fill:#3B1957;" d="M120.557,385.704l-18.763-3.612c-1.047-0.202-1.733-1.214-1.531-2.261l0.674-3.503
					c0.202-1.047,1.214-1.733,2.261-1.531l18.763,3.611c1.047,0.202,1.733,1.214,1.531,2.261l-0.674,3.503
					C122.617,385.22,121.604,385.906,120.557,385.704z"/>
			</g>
			<g>
				<path style="fill:#A17FFF;" d="M198.847,213.615c-16.655,1.486-30.896-1.238-42.412,24.642
					c-11.516,25.881,9.333,18.509,9.333,18.509s-2.279,14.677-5.373,19.754c-3.093,5.077-5.669,14.117-5.669,14.117
					s10.253,0.372,24.37,4.21c14.117,3.839,29.224,10.278,29.162,9.04c-0.062-1.238,5.139-27.159,9.225-37.665
					c4.086-10.506,4.469-29.328,4.464-30.442c-0.006-1.115-5.578-12.878-6.197-13.498c-0.619-0.619-3.867-5.944-3.867-5.944
					L198.847,213.615z"/>
				
					<line style="fill:none;stroke:#503766;stroke-width:0.5211;stroke-linecap:round;stroke-linejoin:round;stroke-miterlimit:10;" x1="169.869" y1="249.84" x2="176.867" y2="230.951"/>
				<path style="fill:#A17FFF;" d="M210.89,214.977c7.337,5.944,21.206,13.621,22.073,25.014
					c0.867,11.393-8.297,38.388-8.297,38.388l-16.408-10.402c0,0,9.223-23.776,8.296-32.568
					C215.626,226.617,210.89,214.977,210.89,214.977z"/>
				<g>
					<defs>
						<path id="SVGID_1_" d="M232.962,239.991c-0.867-11.392-14.736-19.07-22.073-25.014c0,0,0.187,0.46,0.491,1.257l-12.533-2.619
							c-16.655,1.486-30.896-1.238-42.412,24.642c-11.516,25.881,9.333,18.509,9.333,18.509s-2.279,14.677-5.373,19.754
							c-3.093,5.077-5.669,14.117-5.669,14.117s10.253,0.372,24.37,4.21c14.117,3.839,29.224,10.278,29.162,9.04
							c-0.052-1.034,3.567-19.275,7.141-31.384l9.266,5.875C224.666,278.378,233.829,251.383,232.962,239.991z"/>
					</defs>
					<clipPath id="SVGID_00000078731960860028797490000014996320579214604217_">
						<use xlink:href="#SVGID_1_"  style="overflow:visible;"/>
					</clipPath>
					<g style="clip-path:url(#SVGID_00000078731960860028797490000014996320579214604217_);">
						<g>
							<path style="fill:#B9A6FF;" d="M154.75,219.177L154.75,219.177c-1.071,1.855,0.268,4.175,2.41,4.175l0,0
								c2.143,0,3.482-2.319,2.41-4.175l0,0C158.5,217.321,155.821,217.321,154.75,219.177z"/>
							<path style="fill:#B9A6FF;" d="M168.885,219.177L168.885,219.177c1.071-1.856-0.268-4.175-2.41-4.175l0,0
								c-2.143,0-3.482,2.319-2.41,4.175l0,0C165.136,221.032,167.814,221.032,168.885,219.177z"/>
							<path style="fill:#B9A6FF;" d="M173.706,219.177L173.706,219.177c-1.071,1.855,0.268,4.175,2.41,4.175l0,0
								c2.143,0,3.482-2.319,2.41-4.175l0,0C177.455,217.321,174.777,217.321,173.706,219.177z"/>
							<path style="fill:#B9A6FF;" d="M187.841,219.177L187.841,219.177c1.071-1.856-0.268-4.175-2.41-4.175l0,0
								c-2.143,0-3.482,2.319-2.41,4.175l0,0C184.092,221.032,186.77,221.032,187.841,219.177z"/>
							<path style="fill:#B9A6FF;" d="M192.662,219.177L192.662,219.177c-1.071,1.855,0.268,4.175,2.41,4.175l0,0
								c2.143,0,3.482-2.319,2.41-4.175l0,0C196.411,217.321,193.733,217.321,192.662,219.177z"/>
							<path style="fill:#B9A6FF;" d="M206.797,219.177L206.797,219.177c1.071-1.856-0.268-4.175-2.41-4.175l0,0
								c-2.142,0-3.482,2.319-2.41,4.175l0,0C203.047,221.032,205.726,221.032,206.797,219.177z"/>
							<path style="fill:#B9A6FF;" d="M211.618,219.177L211.618,219.177c-1.071,1.855,0.268,4.175,2.41,4.175h0
								c2.143,0,3.482-2.319,2.41-4.175l0,0C215.367,217.321,212.689,217.321,211.618,219.177z"/>
							<path style="fill:#B9A6FF;" d="M225.753,219.177L225.753,219.177c1.071-1.856-0.268-4.175-2.41-4.175l0,0
								c-2.143,0-3.482,2.319-2.41,4.175l0,0C222.003,221.032,224.681,221.032,225.753,219.177z"/>
							<path style="fill:#B9A6FF;" d="M230.573,219.177L230.573,219.177c-1.071,1.855,0.268,4.175,2.41,4.175l0,0
								c2.143,0,3.482-2.319,2.41-4.175l0,0C234.323,217.321,231.645,217.321,230.573,219.177z"/>
							<path style="fill:#B9A6FF;" d="M244.709,219.177L244.709,219.177c1.071-1.856-0.268-4.175-2.41-4.175l0,0
								c-2.143,0-3.482,2.319-2.41,4.175l0,0C240.959,221.032,243.637,221.032,244.709,219.177z"/>
						</g>
						<g>
							<polygon style="fill:#B9A6FF;" points="157.16,226.776 152.34,235.126 161.981,235.126 							"/>
							<polygon style="fill:#B9A6FF;" points="166.475,235.126 171.296,226.776 161.654,226.776 							"/>
							<polygon style="fill:#B9A6FF;" points="176.116,226.776 171.296,235.126 180.937,235.126 							"/>
							<polygon style="fill:#B9A6FF;" points="185.431,235.126 190.251,226.776 180.61,226.776 							"/>
							<polygon style="fill:#B9A6FF;" points="195.072,226.776 190.251,235.126 199.893,235.126 							"/>
							<polygon style="fill:#B9A6FF;" points="204.386,235.126 209.207,226.776 199.566,226.776 							"/>
							<polygon style="fill:#B9A6FF;" points="214.028,226.776 209.207,235.126 218.849,235.126 							"/>
							<polygon style="fill:#B9A6FF;" points="223.342,235.126 228.163,226.776 218.522,226.776 							"/>
							<polygon style="fill:#B9A6FF;" points="232.984,226.776 228.163,235.126 237.805,235.126 							"/>
							<polygon style="fill:#B9A6FF;" points="242.298,235.126 247.119,226.776 237.477,226.776 							"/>
						</g>
						<g>
							<path style="fill:#B9A6FF;" d="M154.75,242.725L154.75,242.725c-1.071,1.855,0.268,4.175,2.41,4.175l0,0
								c2.143,0,3.482-2.319,2.41-4.175l0,0C158.5,240.87,155.821,240.87,154.75,242.725z"/>
							<path style="fill:#B9A6FF;" d="M168.885,242.725L168.885,242.725c1.071-1.855-0.268-4.175-2.41-4.175l0,0
								c-2.143,0-3.482,2.319-2.41,4.175l0,0C165.136,244.581,167.814,244.581,168.885,242.725z"/>
							<path style="fill:#B9A6FF;" d="M173.706,242.725L173.706,242.725c-1.071,1.855,0.268,4.175,2.41,4.175l0,0
								c2.143,0,3.482-2.319,2.41-4.175l0,0C177.455,240.87,174.777,240.87,173.706,242.725z"/>
							<path style="fill:#B9A6FF;" d="M187.841,242.725L187.841,242.725c1.071-1.855-0.268-4.175-2.41-4.175l0,0
								c-2.143,0-3.482,2.319-2.41,4.175l0,0C184.092,244.581,186.77,244.581,187.841,242.725z"/>
							<path style="fill:#B9A6FF;" d="M192.662,242.725L192.662,242.725c-1.071,1.855,0.268,4.175,2.41,4.175l0,0
								c2.143,0,3.482-2.319,2.41-4.175l0,0C196.411,240.87,193.733,240.87,192.662,242.725z"/>
							<path style="fill:#B9A6FF;" d="M206.797,242.725L206.797,242.725c1.071-1.855-0.268-4.175-2.41-4.175l0,0
								c-2.142,0-3.482,2.319-2.41,4.175l0,0C203.047,244.581,205.726,244.581,206.797,242.725z"/>
							<path style="fill:#B9A6FF;" d="M211.618,242.725L211.618,242.725c-1.071,1.855,0.268,4.175,2.41,4.175h0
								c2.143,0,3.482-2.319,2.41-4.175l0,0C215.367,240.87,212.689,240.87,211.618,242.725z"/>
							<path style="fill:#B9A6FF;" d="M225.753,242.725L225.753,242.725c1.071-1.855-0.268-4.175-2.41-4.175l0,0
								c-2.143,0-3.482,2.319-2.41,4.175l0,0C222.003,244.581,224.681,244.581,225.753,242.725z"/>
							<path style="fill:#B9A6FF;" d="M230.573,242.725L230.573,242.725c-1.071,1.855,0.268,4.175,2.41,4.175l0,0
								c2.143,0,3.482-2.319,2.41-4.175l0,0C234.323,240.87,231.645,240.87,230.573,242.725z"/>
							<path style="fill:#B9A6FF;" d="M244.709,242.725L244.709,242.725c1.071-1.855-0.268-4.175-2.41-4.175l0,0
								c-2.143,0-3.482,2.319-2.41,4.175l0,0C240.959,244.581,243.637,244.581,244.709,242.725z"/>
						</g>
						<g>
							<polygon style="fill:#B9A6FF;" points="157.16,250.324 152.34,258.674 161.981,258.674 							"/>
							<polygon style="fill:#B9A6FF;" points="166.475,258.674 171.296,250.324 161.654,250.324 							"/>
							<polygon style="fill:#B9A6FF;" points="176.116,250.324 171.296,258.674 180.937,258.674 							"/>
							<polygon style="fill:#B9A6FF;" points="185.431,258.674 190.251,250.324 180.61,250.324 							"/>
							<polygon style="fill:#B9A6FF;" points="195.072,250.324 190.251,258.674 199.893,258.674 							"/>
							<polygon style="fill:#B9A6FF;" points="204.386,258.674 209.207,250.324 199.566,250.324 							"/>
							<polygon style="fill:#B9A6FF;" points="214.028,250.324 209.207,258.674 218.849,258.674 							"/>
							<polygon style="fill:#B9A6FF;" points="223.342,258.674 228.163,250.324 218.522,250.324 							"/>
							<polygon style="fill:#B9A6FF;" points="232.984,250.324 228.163,258.674 237.805,258.674 							"/>
							<polygon style="fill:#B9A6FF;" points="242.298,258.674 247.119,250.324 237.477,250.324 							"/>
						</g>
						<g>
							<path style="fill:#B9A6FF;" d="M154.75,266.273L154.75,266.273c-1.071,1.856,0.268,4.175,2.41,4.175l0,0
								c2.143,0,3.482-2.319,2.41-4.175l0,0C158.5,264.418,155.821,264.418,154.75,266.273z"/>
							<path style="fill:#B9A6FF;" d="M168.885,266.273L168.885,266.273c1.071-1.855-0.268-4.175-2.41-4.175l0,0
								c-2.143,0-3.482,2.319-2.41,4.175l0,0C165.136,268.129,167.814,268.129,168.885,266.273z"/>
							<path style="fill:#B9A6FF;" d="M173.706,266.273L173.706,266.273c-1.071,1.856,0.268,4.175,2.41,4.175l0,0
								c2.143,0,3.482-2.319,2.41-4.175l0,0C177.455,264.418,174.777,264.418,173.706,266.273z"/>
							<path style="fill:#B9A6FF;" d="M187.841,266.273L187.841,266.273c1.071-1.855-0.268-4.175-2.41-4.175l0,0
								c-2.143,0-3.482,2.319-2.41,4.175l0,0C184.092,268.129,186.77,268.129,187.841,266.273z"/>
							<path style="fill:#B9A6FF;" d="M192.662,266.273L192.662,266.273c-1.071,1.856,0.268,4.175,2.41,4.175l0,0
								c2.143,0,3.482-2.319,2.41-4.175l0,0C196.411,264.418,193.733,264.418,192.662,266.273z"/>
							<path style="fill:#B9A6FF;" d="M206.797,266.273L206.797,266.273c1.071-1.855-0.268-4.175-2.41-4.175l0,0
								c-2.142,0-3.482,2.319-2.41,4.175l0,0C203.047,268.129,205.726,268.129,206.797,266.273z"/>
							<path style="fill:#B9A6FF;" d="M211.618,266.273L211.618,266.273c-1.071,1.856,0.268,4.175,2.41,4.175h0
								c2.143,0,3.482-2.319,2.41-4.175l0,0C215.367,264.418,212.689,264.418,211.618,266.273z"/>
							<path style="fill:#B9A6FF;" d="M225.753,266.273L225.753,266.273c1.071-1.855-0.268-4.175-2.41-4.175l0,0
								c-2.143,0-3.482,2.319-2.41,4.175l0,0C222.003,268.129,224.681,268.129,225.753,266.273z"/>
							<path style="fill:#B9A6FF;" d="M230.573,266.273L230.573,266.273c-1.071,1.856,0.268,4.175,2.41,4.175l0,0
								c2.143,0,3.482-2.319,2.41-4.175l0,0C234.323,264.418,231.645,264.418,230.573,266.273z"/>
							<path style="fill:#B9A6FF;" d="M244.709,266.273L244.709,266.273c1.071-1.855-0.268-4.175-2.41-4.175l0,0
								c-2.143,0-3.482,2.319-2.41,4.175l0,0C240.959,268.129,243.637,268.129,244.709,266.273z"/>
						</g>
						<g>
							<polygon style="fill:#B9A6FF;" points="157.16,273.873 152.34,282.222 161.981,282.222 							"/>
							<polygon style="fill:#B9A6FF;" points="166.475,282.222 171.296,273.873 161.654,273.873 							"/>
							<polygon style="fill:#B9A6FF;" points="176.116,273.873 171.296,282.222 180.937,282.222 							"/>
							<polygon style="fill:#B9A6FF;" points="185.431,282.222 190.251,273.873 180.61,273.873 							"/>
							<polygon style="fill:#B9A6FF;" points="195.072,273.873 190.251,282.222 199.893,282.222 							"/>
							<polygon style="fill:#B9A6FF;" points="204.386,282.222 209.207,273.873 199.566,273.873 							"/>
							<polygon style="fill:#B9A6FF;" points="214.028,273.873 209.207,282.222 218.849,282.222 							"/>
							<polygon style="fill:#B9A6FF;" points="223.342,282.222 228.163,273.873 218.522,273.873 							"/>
							<polygon style="fill:#B9A6FF;" points="232.984,273.873 228.163,282.222 237.805,282.222 							"/>
							<polygon style="fill:#B9A6FF;" points="242.298,282.222 247.119,273.873 237.477,273.873 							"/>
						</g>
						<g>
							<path style="fill:#B9A6FF;" d="M154.75,289.822L154.75,289.822c-1.071,1.855,0.268,4.175,2.41,4.175l0,0
								c2.143,0,3.482-2.319,2.41-4.175l0,0C158.5,287.966,155.821,287.966,154.75,289.822z"/>
							<path style="fill:#B9A6FF;" d="M168.885,289.822L168.885,289.822c1.071-1.855-0.268-4.175-2.41-4.175l0,0
								c-2.143,0-3.482,2.319-2.41,4.175l0,0C165.136,291.677,167.814,291.677,168.885,289.822z"/>
							<path style="fill:#B9A6FF;" d="M173.706,289.822L173.706,289.822c-1.071,1.855,0.268,4.175,2.41,4.175l0,0
								c2.143,0,3.482-2.319,2.41-4.175l0,0C177.455,287.966,174.777,287.966,173.706,289.822z"/>
							<path style="fill:#B9A6FF;" d="M187.841,289.822L187.841,289.822c1.071-1.855-0.268-4.175-2.41-4.175l0,0
								c-2.143,0-3.482,2.319-2.41,4.175l0,0C184.092,291.677,186.77,291.677,187.841,289.822z"/>
							<path style="fill:#B9A6FF;" d="M192.662,289.822L192.662,289.822c-1.071,1.855,0.268,4.175,2.41,4.175l0,0
								c2.143,0,3.482-2.319,2.41-4.175l0,0C196.411,287.966,193.733,287.966,192.662,289.822z"/>
							<path style="fill:#B9A6FF;" d="M206.797,289.822L206.797,289.822c1.071-1.855-0.268-4.175-2.41-4.175l0,0
								c-2.142,0-3.482,2.319-2.41,4.175l0,0C203.047,291.677,205.726,291.677,206.797,289.822z"/>
							<path style="fill:#B9A6FF;" d="M211.618,289.822L211.618,289.822c-1.071,1.855,0.268,4.175,2.41,4.175h0
								c2.143,0,3.482-2.319,2.41-4.175l0,0C215.367,287.966,212.689,287.966,211.618,289.822z"/>
							<path style="fill:#B9A6FF;" d="M225.753,289.822L225.753,289.822c1.071-1.855-0.268-4.175-2.41-4.175l0,0
								c-2.143,0-3.482,2.319-2.41,4.175l0,0C222.003,291.677,224.681,291.677,225.753,289.822z"/>
							<path style="fill:#B9A6FF;" d="M230.573,289.822L230.573,289.822c-1.071,1.855,0.268,4.175,2.41,4.175l0,0
								c2.143,0,3.482-2.319,2.41-4.175l0,0C234.323,287.966,231.645,287.966,230.573,289.822z"/>
							<path style="fill:#B9A6FF;" d="M244.709,289.822L244.709,289.822c1.071-1.855-0.268-4.175-2.41-4.175l0,0
								c-2.143,0-3.482,2.319-2.41,4.175l0,0C240.959,291.677,243.637,291.677,244.709,289.822z"/>
						</g>
						<g>
							<polygon style="fill:#B9A6FF;" points="157.16,297.421 152.34,305.771 161.981,305.771 							"/>
							<polygon style="fill:#B9A6FF;" points="166.475,305.771 171.296,297.421 161.654,297.421 							"/>
							<polygon style="fill:#B9A6FF;" points="176.116,297.421 171.296,305.771 180.937,305.771 							"/>
							<polygon style="fill:#B9A6FF;" points="185.431,305.771 190.251,297.421 180.61,297.421 							"/>
							<polygon style="fill:#B9A6FF;" points="195.072,297.421 190.251,305.771 199.893,305.771 							"/>
							<polygon style="fill:#B9A6FF;" points="204.386,305.771 209.207,297.421 199.566,297.421 							"/>
							<polygon style="fill:#B9A6FF;" points="214.028,297.421 209.207,305.771 218.849,305.771 							"/>
							<polygon style="fill:#B9A6FF;" points="223.342,305.771 228.163,297.421 218.522,297.421 							"/>
							<polygon style="fill:#B9A6FF;" points="232.984,297.421 228.163,305.771 237.805,305.771 							"/>
							<polygon style="fill:#B9A6FF;" points="242.298,305.771 247.119,297.421 237.477,297.421 							"/>
						</g>
					</g>
				</g>
				
					<line style="fill:none;stroke:#503766;stroke-width:0.5211;stroke-linecap:round;stroke-linejoin:round;stroke-miterlimit:10;" x1="209.227" y1="268.591" x2="216.554" y2="238.345"/>
				
					<path style="fill:none;stroke:#FFFFFF;stroke-width:0.5211;stroke-linecap:round;stroke-linejoin:round;stroke-miterlimit:10;" d="
					M193.595,213.986c0,0-3.261,5.541,6.134,9.163c9.396,3.622,15.773-1.764,16.531-4.132"/>
			</g>
			<g>
				<path style="fill:#22225E;" d="M179.811,272.063h-18.36c-1.06,0-2.061-0.859-2.237-1.919l-5.873-35.539
					c-0.175-1.06,0.542-1.919,1.602-1.919h18.36c1.06,0,2.061,0.859,2.236,1.919l5.873,35.539
					C181.588,271.203,180.871,272.063,179.811,272.063z"/>
				<path style="fill:#5037A7;" d="M178.201,272.063h-18.36c-1.06,0-2.061-0.859-2.237-1.919l-5.873-35.539
					c-0.175-1.06,0.542-1.919,1.602-1.919h18.36c1.06,0,2.061,0.859,2.236,1.919l5.873,35.539
					C179.979,271.203,179.261,272.063,178.201,272.063z"/>
				<path style="fill:#FF9797;" d="M168.569,262.222c-1.084,1.011-2.689,1.428-4.377,1.47c-2.752,0.083-5.743-0.823-7.202-1.782
					c-1.24,1.24-2.345,18.573-14.55,11.517c-6.556-5.826-0.25-13.132,3.221-15.665c3.471-2.543,4.711-5.013,5.263-8.234
					c0.563-3.221,1.73-7.619,3.346-6.941c1.605,0.688,1.48,6.139,1.48,6.139s2.408,0.604,5.024,1.115
					c2.209,0.417,4.565,0.771,5.743,0.625C169.069,250.143,171.414,259.554,168.569,262.222z"/>
				<path style="fill:#503766;" d="M168.569,262.222c-1.084,1.011-2.689,1.428-4.377,1.47c-2.491-2.355-1.876-5.93-1.876-5.93
					c-3.346-2.355-1.303-5.878-1.303-5.878s-0.386-0.657-0.24-2.043c2.209,0.417,4.565,0.771,5.743,0.625
					C169.069,250.143,171.414,259.554,168.569,262.222z"/>
				<path style="fill:#FF9797;" d="M224.662,278.377c0,0-0.334,1.459-1.459,3.2c-1.855,2.887-5.878,6.566-14.143,5.722
					c-13.247-1.365-22.783-23.284-27.484-23.284c-4.711,0-12.82-0.677-15.425-2.418c-2.595-1.73-1.855-3.835-1.855-3.835
					s-2.043-1.428-2.241-3.471c-0.198-2.043,1.313-1.918,1.313-1.918s-1.918-1.98-1.115-2.97c0.802-0.99,3.96,1.48,7.306,1.918
					c3.346,0.438,9.099-0.188,9.099-0.188s-0.802-1.355-1.417-3.096c-0.625-1.73-0.74-2.533,0.615-2.97
					c1.365-0.438,1.74,2.543,5.263,4.461c3.533,1.918,3.408,5.076,4.836,6.681c1.417,1.615,20.303,11.767,20.303,11.767l0.969,0.615
					L224.662,278.377z"/>
				
					<path style="fill:none;stroke:#503766;stroke-width:0.5211;stroke-linecap:round;stroke-linejoin:round;stroke-miterlimit:10;" d="
					M163.369,252.374c4.644,2.167,9.473,3.901,13.498,2.724"/>
				
					<path style="fill:none;stroke:#503766;stroke-width:0.5211;stroke-linecap:round;stroke-linejoin:round;stroke-miterlimit:10;" d="
					M164.298,257.76c5.913,3.189,12.569,2.229,12.569,2.229"/>
				<path style="fill:#503766;" d="M224.662,278.377c0,0-0.334,1.459-1.459,3.2c-3.439-3.356-8.817-8.505-13.977-12.986
					L224.662,278.377z"/>
				<path style="fill:#22225E;" d="M172.366,241.631h-4.644c-0.487,0-0.958-0.395-1.051-0.882l-0.887-4.644
					c-0.093-0.487,0.227-0.882,0.714-0.882h4.644c0.487,0,0.958,0.395,1.051,0.882l0.887,4.644
					C173.172,241.236,172.853,241.631,172.366,241.631z"/>
			</g>
			<g>
				<path style="fill:#503766;" d="M198.63,184.979c-6.965-0.279-9.473-7.709-7.616-9.38c1.857-1.672,3.901,0,3.901,0
					s-4.214-6.037-0.389-9.659c3.825-3.622,5.59,2.879,16.456,4.272c10.866,1.393,18.002,4.055,14.202,11.454
					c7.252,0.619,7.624,6.686,1.958,13.683c-5.665,6.997-12.012,14.427-16.408,8.715"/>
				<path style="fill:#FF9797;" d="M216.554,201.699c-3.554,7.056-3.523,16.895-3.523,16.895s-4.367,4.367-11.246,2.043
					c-6.868-2.314-5.295-5.847-5.295-5.847s0.438-1.344,0.928-3.075c0.657-2.283,1.417-5.243,1.397-6.587l8.057-1.563h0.031
					L216.554,201.699z"/>
				<path style="fill:#503766;" d="M211.228,206.869c-3.908,5.201-10.839,5.138-13.81,4.846c0.657-2.283,1.417-5.243,1.397-6.587
					l8.057-1.563h0.031C210.696,203.575,213.114,204.367,211.228,206.869z"/>
				<path style="fill:#FF9797;" d="M197.856,181.666c-1.796,3.096-0.867,3.963-2.291,7.739c-1.424,3.777-5.387,14.984,4.706,18.699
					s17.027-4.644,18.822-8.978c0,0,2.167,1.857,4.644,0.062c2.477-1.796,1.486-5.263-0.805-5.758
					c-2.291-0.495-3.529,2.353-3.715,2.477c-0.186,0.124,1.61-8.73,1.61-8.73s-2.443-3.158-11.437-3.158
					C200.395,184.019,197.856,181.666,197.856,181.666"/>
				
					<path style="fill:none;stroke:#503766;stroke-width:0.5211;stroke-linecap:round;stroke-linejoin:round;stroke-miterlimit:10;" d="
					M222.917,195.349c-2.74,0.232-2.127,1.959-0.896,2.725"/>
				<circle style="fill:#503766;" cx="198.847" cy="191.79" r="0.882"/>
				<circle style="fill:#503766;" cx="209.852" cy="193.554" r="0.882"/>
				
					<path style="fill:none;stroke:#503766;stroke-width:0.5211;stroke-linecap:round;stroke-linejoin:round;stroke-miterlimit:10;" d="
					M204.296,191.573l-2.568,3.951c-0.257,0.395-0.177,0.92,0.186,1.22l1.268,1.051"/>
				
					<path style="fill:none;stroke:#503766;stroke-width:0.5211;stroke-linecap:round;stroke-linejoin:round;stroke-miterlimit:10;" d="
					M208.258,190.335c0,0,2.972-1.176,5.263,1.238"/>
				
					<path style="fill:none;stroke:#503766;stroke-width:0.5211;stroke-linecap:round;stroke-linejoin:round;stroke-miterlimit:10;" d="
					M196.804,188.539c0,0,2.056-1.796,4.774,0.619"/>
				
					<path style="fill:none;stroke:#503766;stroke-width:0.5211;stroke-linecap:round;stroke-linejoin:round;stroke-miterlimit:10;" d="
					M202.937,202.346c0,0,1.266,1.579,4.517,0"/>
			</g>
		</g>
		<g>
			<g>
				<path style="fill:#9999F2;" d="M391.478,303.756H288.864c-0.977,0-1.768-0.792-1.768-1.768v-1.485
					c0-0.977,0.792-1.768,1.768-1.768h102.614c0.977,0,1.768,0.792,1.768,1.768v1.485
					C393.246,302.964,392.454,303.756,391.478,303.756z"/>
				<path style="fill:#BDBDFF;" d="M350.567,303.756H247.953c-0.977,0-1.768-0.792-1.768-1.768v-1.485
					c0-0.977,0.792-1.768,1.768-1.768h102.614c0.977,0,1.768,0.792,1.768,1.768v1.485
					C352.335,302.964,351.544,303.756,350.567,303.756z"/>
				<path style="fill:#BDBDFF;" d="M394.858,300.049H285.484c-0.726,0-1.314-0.588-1.314-1.314l0,0c0-0.726,0.588-1.314,1.314-1.314
					h109.373c0.726,0,1.314,0.588,1.314,1.314l0,0C396.171,299.46,395.583,300.049,394.858,300.049z"/>
				<path style="fill:#D7D7FF;" d="M351.021,300.049H241.648c-0.726,0-1.314-0.588-1.314-1.314l0,0c0-0.726,0.588-1.314,1.314-1.314
					h109.373c0.726,0,1.314,0.588,1.314,1.314l0,0C352.335,299.46,351.747,300.049,351.021,300.049z"/>
			</g>
			<g>
				<g>
					<polygon style="fill:#D7D7FF;" points="360.812,397.504 357.84,397.504 339.056,303.756 342.028,303.756 					"/>
					<path style="fill:#BDBDFF;" d="M345.335,306.488h-9.462c-0.754,0-1.366-0.612-1.366-1.366l0,0c0-0.754,0.612-1.366,1.366-1.366
						h9.462c0.754,0,1.366,0.612,1.366,1.366l0,0C346.701,305.876,346.089,306.488,345.335,306.488z"/>
				</g>
				<g>
					<polygon style="fill:#D7D7FF;" points="239.22,397.504 242.192,397.504 260.975,303.756 258.003,303.756 					"/>
					<path style="fill:#BDBDFF;" d="M254.696,306.488h9.462c0.754,0,1.366-0.612,1.366-1.366l0,0c0-0.754-0.612-1.366-1.366-1.366
						h-9.462c-0.754,0-1.366,0.612-1.366,1.366l0,0C253.33,305.876,253.942,306.488,254.696,306.488z"/>
				</g>
			</g>
			<g>
				<g>
					<polygon style="fill:#9999F2;" points="399.852,397.504 396.881,397.504 378.097,303.756 381.069,303.756 					"/>
					<path style="fill:#9999F2;" d="M384.376,306.488h-9.461c-0.754,0-1.366-0.612-1.366-1.366l0,0c0-0.754,0.612-1.366,1.366-1.366
						h9.461c0.755,0,1.366,0.612,1.366,1.366l0,0C385.742,305.876,385.13,306.488,384.376,306.488z"/>
				</g>
				<g>
					<polygon style="fill:#9999F2;" points="278.26,397.504 281.232,397.504 300.016,303.756 297.044,303.756 					"/>
					<path style="fill:#9999F2;" d="M293.737,306.488h9.462c0.754,0,1.366-0.612,1.366-1.366l0,0c0-0.754-0.612-1.366-1.366-1.366
						h-9.462c-0.754,0-1.366,0.612-1.366,1.366l0,0C292.371,305.876,292.983,306.488,293.737,306.488z"/>
				</g>
			</g>
		</g>
		<g>
			<path style="fill:#3B1957;" d="M354.932,297.419h-37.021l13.577-2.931l-3.301-12.39l20.595-1.053l1.146-0.063
				C352.483,284.318,354.932,297.419,354.932,297.419z"/>
			<path style="fill:#503766;" d="M338.684,297.419l12.726-2.762c0,0-0.657-4.826-4.044-11.277l1.417-2.335l1.146-0.063
				c2.554,3.335,5.003,16.436,5.003,16.436H338.684z"/>
			<g>
				<path style="fill:#FF607C;" d="M387.021,236.139l-6.422,45.348c-0.246,1.74-1.853,3.148-3.593,3.148h-80.982
					c-1.741,0-2.948-1.407-2.702-3.148l6.422-45.348c0.246-1.741,1.853-3.148,3.593-3.148h80.982
					C386.059,232.992,387.267,234.399,387.021,236.139z"/>
				<path style="fill:#503766;" d="M381.555,274.733l-0.956,6.754c-0.246,1.74-1.853,3.148-3.593,3.148h-80.982
					c-1.741,0-2.948-1.407-2.702-3.148l0.957-6.754H381.555z"/>
			</g>
			<g>
				<path style="fill:#FFFFFF;" d="M347.554,256.766c-0.586,4.899-5.033,8.871-9.932,8.871c-4.899,0-8.396-3.972-7.809-8.871
					c0.586-4.899,5.033-8.871,9.932-8.871S348.141,251.867,347.554,256.766z"/>
				<g>
					<path style="fill:#FF607C;" d="M339.337,258.677l-0.189,1.576h-1.626l0.189-1.576H339.337z M340.2,251.148l-0.946,6.341h-1.201
						l0.572-6.341H340.2z"/>
				</g>
			</g>
			<g>
				<polygon style="fill:#FFFFFF;" points="371.478,268.843 348.445,268.843 350.468,257.489 373.5,257.489 				"/>
				<polygon style="fill:#503766;" points="373.148,259.465 350.116,259.465 350.468,257.489 373.5,257.489 				"/>
				<path style="fill:#FFFFFF;" d="M372.285,258.477c-0.019,0.106-0.12,0.191-0.225,0.191c-0.106,0-0.176-0.086-0.157-0.191
					c0.019-0.106,0.12-0.191,0.225-0.191C372.233,258.285,372.304,258.371,372.285,258.477z"/>
				<path style="fill:#FFFFFF;" d="M371.165,258.477c-0.019,0.106-0.12,0.191-0.225,0.191c-0.106,0-0.176-0.086-0.157-0.191
					c0.019-0.106,0.12-0.191,0.226-0.191C371.113,258.285,371.184,258.371,371.165,258.477z"/>
				<path style="fill:#FFFFFF;" d="M370.045,258.477c-0.019,0.106-0.12,0.191-0.225,0.191c-0.106,0-0.176-0.086-0.157-0.191
					c0.019-0.106,0.12-0.191,0.225-0.191C369.993,258.285,370.064,258.371,370.045,258.477z"/>
			</g>
			<g>
				<path style="fill:#FFB666;" d="M329.373,228.047l-3.326,16.478c-0.185,0.917-0.687,1.751-1.359,2.397
					c-0.294,0.271-0.614,0.511-0.954,0.698c-0.649,0.375-1.371,0.594-2.111,0.594h-33.248c-0.74,0-1.373-0.219-1.871-0.594
					c-0.264-0.188-0.487-0.427-0.672-0.698c-0.422-0.646-0.587-1.48-0.402-2.397l3.326-16.478c0.194-0.959,0.747-1.845,1.495-2.501
					c0.305-0.271,0.655-0.511,1.014-0.688c0.605-0.313,1.256-0.49,1.923-0.49h33.248c0.667,0,1.246,0.177,1.725,0.49
					c0.287,0.177,0.541,0.417,0.737,0.688C329.38,226.202,329.566,227.088,329.373,228.047z"/>
				<g>
					<g>
						<path style="fill:#FF7766;" d="M328.898,225.546l-18.14,9.526l-1.106,0.573l-2.076,1.094
							c-0.092,0.042-0.181,0.073-0.275,0.073c-0.094,0-0.181-0.031-0.256-0.073l-1.636-1.084l-0.862-0.584l-14.294-9.526
							c0.305-0.271,0.655-0.511,1.014-0.688l14.561,9.703c0.037,0.021,0.064,0.042,0.091,0.063l1.609,1.063l2.028-1.063
							c0.035-0.021,0.081-0.042,0.117-0.063l18.489-9.703C328.449,225.035,328.703,225.275,328.898,225.546z"/>
					</g>
					<g>
						<path style="fill:#FF7766;" d="M305.732,235.447l-0.324,0.208l-18.903,11.965c-0.264-0.188-0.487-0.427-0.672-0.698
							l18.714-11.85l0.741-0.469c0.18-0.115,0.39-0.125,0.54-0.042c0.037,0.021,0.064,0.042,0.091,0.063
							c0.035,0.031,0.05,0.063,0.075,0.094C306.114,234.947,305.995,235.28,305.732,235.447z"/>
					</g>
					<g>
						<path style="fill:#FF7766;" d="M324.688,246.922c-0.294,0.271-0.614,0.511-0.954,0.698l-14.081-11.975l-0.231-0.198
							c-0.196-0.167-0.18-0.5,0.033-0.729c0.037-0.031,0.065-0.063,0.102-0.094c0.035-0.021,0.081-0.042,0.117-0.063
							c0.184-0.083,0.4-0.073,0.534,0.042l0.552,0.469L324.688,246.922z"/>
					</g>
				</g>
			</g>
			<g>
				<path style="fill:#FF607C;" d="M296.51,225.972c-0.414,3.456-3.551,6.258-7.007,6.258c-3.456,0-5.923-2.802-5.509-6.258
					c0.414-3.456,3.551-6.258,7.008-6.258C294.457,219.713,296.924,222.515,296.51,225.972z"/>
				<g>
					<path style="fill:#FFFFFF;" d="M290.713,227.32l-0.133,1.112h-1.147l0.133-1.112H290.713z M291.322,222.008l-0.668,4.474
						h-0.847l0.403-4.474H291.322z"/>
				</g>
			</g>
			<g>
				<g>
					
						<ellipse transform="matrix(0.7313 -0.682 0.682 0.7313 -55.6868 266.9616)" style="fill:#68CCC4;" cx="310.986" cy="204.159" rx="15.004" ry="13.05"/>
					<path style="fill:#FFFFFF;" d="M318.45,197.543l0.5,0.982c0.113,0.221,0.119,0.484,0.026,0.743
						c-0.394,1.035-1.749,3.882-5.802,7.437c-4.047,3.551-7.027,4.509-8.097,4.758c-0.267,0.057-0.524,0.014-0.725-0.129
						l-0.899-0.632c-0.449-0.321-0.444-1.006,0.019-1.438l1.911-1.811c0.415-0.398,1.031-0.417,1.362-0.043l0.514,0.575
						c0.24,0.268,0.65,0.355,1.023,0.187c1.738-0.776,3.91-2.607,3.91-2.607s2.104-1.922,3.107-3.551
						c0.217-0.35,0.189-0.771-0.04-1.049l-0.492-0.594c-0.32-0.383-0.215-0.997,0.232-1.356l2.037-1.653
						C317.525,196.959,318.203,197.045,318.45,197.543z"/>
				</g>
				<g>
					<path style="fill:#FF607C;" d="M330.64,206.484c-0.414,3.456-3.551,6.258-7.007,6.258c-3.456,0-5.923-2.802-5.509-6.258
						c0.414-3.456,3.551-6.258,7.007-6.258C328.587,200.226,331.054,203.028,330.64,206.484z"/>
					<g>
						<path style="fill:#FFFFFF;" d="M324.843,207.832l-0.133,1.112h-1.148l0.133-1.112H324.843z M325.452,202.52l-0.668,4.474
							h-0.847l0.403-4.474H325.452z"/>
					</g>
				</g>
			</g>
			<g>
				<path style="fill:#3B1957;" d="M368.825,185.722c-1.6,9.695,2.735,18.437,2.735,18.437s-9.752,4.878-24.797,0
					c-15.045-4.878,12.399-17.23,12.399-17.23"/>
				<polygon style="fill:#503766;" points="369.586,181.073 368.825,185.722 365.177,207.828 337.224,207.828 340.872,185.722 
					341.633,181.073 				"/>
				<polygon style="fill:#FF607C;" points="369.586,181.073 368.825,185.722 340.872,185.722 341.633,181.073 				"/>
				
					<text transform="matrix(0.9819 0 -0.1895 0.9819 345.2731 199.9356)" style="fill:#FFFFFF; font-family:'Poppins-Medium'; font-size:12.7378px;">20</text>
			</g>
			<g>
				<path style="fill:#3B1957;" d="M407.922,212.066l-3.63,22.181c-0.096,0.589-0.652,1.067-1.242,1.067h-32.593
					c-0.283,0-0.573,0.112-0.806,0.313l-3.229,2.775c-0.782,0.672-1.854,0.196-1.698-0.755l4.187-25.581
					c0.096-0.589,0.652-1.067,1.242-1.067h36.877C407.618,210.999,408.018,211.477,407.922,212.066z"/>
				<g>
					<g>
						<path style="fill:#FFFFFF;" d="M381.595,224.5l-0.198,1.112h-1.148l0.198-1.112H381.595z M382.514,219.188l-0.929,4.474
							h-0.847l0.665-4.474H382.514z"/>
					</g>
					<g>
						<path style="fill:#FFFFFF;" d="M387.699,224.5l-0.198,1.112h-1.148l0.198-1.112H387.699z M388.619,219.188l-0.929,4.474
							h-0.847l0.665-4.474H388.619z"/>
					</g>
					<g>
						<path style="fill:#FFFFFF;" d="M393.804,224.5l-0.198,1.112h-1.147l0.198-1.112H393.804z M394.724,219.188l-0.929,4.474
							h-0.847l0.665-4.474H394.724z"/>
					</g>
				</g>
			</g>
			<g>
				<g>
					<path style="fill:#68CCC4;" d="M267.011,282.131c-1.981-12.858,2.848-23.135-8.173-29.203
						c-11.021-6.068-8.916-8.049-8.916-8.049s-3.839,6.143,1.362,13.164c5.201,7.021,13.105,6.773,13.735,9.373
						c0.629,2.6-0.733,14.618,0.444,17.773"/>
					<path style="fill:#68CCC4;" d="M265.463,272.313c1.981-12.857-2.848-23.135,8.173-29.203c11.021-6.068,8.916-8.049,8.916-8.049
						s3.839,6.143-1.362,13.164c-5.201,7.02-13.105,6.773-13.735,9.373c-0.63,2.6-0.134,20.784-1.311,23.939"/>
				</g>
				<polygon style="fill:#503766;" points="275.357,297.419 257.117,297.419 253.606,278.378 278.868,278.378 				"/>
			</g>
		</g>
		<g>
			<g>
				<path style="fill:#D7D7FF;" d="M416.814,366.826c-1.458-9.463,2.096-17.027-6.015-21.493c-8.111-4.466-6.562-5.924-6.562-5.924
					s-2.825,4.521,1.003,9.688c3.828,5.167,9.646,4.985,10.109,6.899c0.463,1.914-0.539,10.759,0.327,13.081"/>
				<path style="fill:#D7D7FF;" d="M415.675,359.6c1.458-9.463-2.096-17.028,6.015-21.493c8.111-4.466,6.562-5.924,6.562-5.924
					s2.825,4.522-1.002,9.688c-3.828,5.167-9.645,4.985-10.109,6.899c-0.463,1.914-0.099,15.297-0.965,17.619"/>
			</g>
			<polygon style="fill:#D7D7FF;" points="426.724,365.19 404.625,365.19 407.663,397.504 423.686,397.504 			"/>
		</g>
	</g>
</g>
</svg>
