<?xml version="1.0" encoding="utf-8"?>
<!-- Generator: Adobe Illustrator 27.5.0, SVG Export Plug-In . SVG Version: 6.00 Build 0)  -->
<svg version="1.1" id="Слой_1" xmlns="http://www.w3.org/2000/svg" xmlns:xlink="http://www.w3.org/1999/xlink" x="0px" y="0px"
	 viewBox="0 380 2000 1250" style="enable-background:new 0 0 2000 2000;" xml:space="preserve">
<rect style="fill:#FFFFFF;" width="2000" height="2000"/>
<path style="fill:#D7E9F4;" d="M112.619,1611.791c0,0,166.888-704.047,353.545-763.282
	c186.657-59.234,235.188,66.814,323.808,58.696c88.619-8.118,385.989-256.503,492.215-355.055
	c180.91-167.839,688.598-265.183,582.697-10.051c-88.657,213.588-404.323,551.51-358.049,644.255
	c9,18.039,201.282-105.134,253.167-89.066c232.616,72.033-78.301,515.189-78.301,515.189L112.619,1611.791z"/>
<path style="fill:#FFFFFF;" d="M1917.017,630.397h-177.867v-64.061h46.867c0.828,0,1.5-0.671,1.5-1.5c0-0.829-0.672-1.5-1.5-1.5
	h-108.867v-60.321h163.867c0.828,0,1.5-0.671,1.5-1.5c0-0.829-0.672-1.5-1.5-1.5H1526.99c-0.828,0-1.5,0.671-1.5,1.5
	c0,0.829,0.672,1.5,1.5,1.5h33.489v60.321h-88.489c-0.828,0-1.5,0.671-1.5,1.5c0,0.829,0.672,1.5,1.5,1.5h158.159v64.061h-27.159
	c-0.828,0-1.5,0.671-1.5,1.5c0,0.829,0.672,1.5,1.5,1.5h314.026c0.828,0,1.5-0.671,1.5-1.5
	C1918.517,631.068,1917.845,630.397,1917.017,630.397z M1563.479,563.336v-60.321h110.67v60.321H1563.479z M1736.149,630.397h-103
	v-64.061h103V630.397z"/>
<path style="fill:#FFFFFF;" d="M436.504,1404.314h-88.49v-60.322h33.49c0.829,0,1.5-0.672,1.5-1.5s-0.671-1.5-1.5-1.5H174.983
	c-0.829,0-1.5,0.672-1.5,1.5s0.671,1.5,1.5,1.5h56.361v60.322H122.478c-0.829,0-1.5,0.672-1.5,1.5s0.671,1.5,1.5,1.5h46.866v64.061
	h-49.361c-0.829,0-1.5,0.672-1.5,1.5s0.671,1.5,1.5,1.5h185.521c0.829,0,1.5-0.672,1.5-1.5s-0.671-1.5-1.5-1.5h-27.16v-64.061
	h158.16c0.829,0,1.5-0.672,1.5-1.5S437.333,1404.314,436.504,1404.314z M275.344,1471.375h-103v-64.061h103V1471.375z
	 M234.344,1404.314v-60.322h110.67v60.322H234.344z"/>
<g>
	<polygon style="fill:#FFFFFF;" points="1144.663,1542.293 1144.606,1573.703 1101.089,1573.703 1097.46,1543.901 	"/>
	<path style="fill:#0E2549;" d="M1146.23,1575.33h-46.582l-4.018-32.994l50.662-1.727L1146.23,1575.33z M1102.529,1572.076h40.453
		l0.051-28.102l-43.744,1.492L1102.529,1572.076z"/>
	<path style="fill:#A1C5E2;" d="M1146.994,1571.806c0,0,62.894,19.963,65.063,36.413h-112.775v-36.413H1146.994z"/>
	<polygon style="fill:#FFFFFF;" points="969.244,1542.978 968.056,1574.754 924.539,1574.754 922.477,1542.293 	"/>
	<path style="fill:#0E2549;" d="M969.623,1576.381h-46.61l-2.271-35.741l50.189,0.736L969.623,1576.381z M926.065,1573.127h40.424
		l1.067-28.548l-43.345-0.635L926.065,1573.127z"/>
	<path style="fill:#A1C5E2;" d="M970.444,1572.855c0,0,62.893,19.964,65.062,36.414H922.731v-36.414H970.444z"/>
	<polygon style="fill:#0E2549;" points="1039.61,1603.019 1039.61,1612.478 919.788,1612.478 919.788,1601.663 	"/>
	<polygon style="fill:#0E2549;" points="1095.758,1601.345 1095.758,1611.428 1215.58,1611.428 1215.58,1600.613 	"/>
	<polygon style="fill:#0E2549;" points="983.676,1548.757 914.415,1548.757 908.51,993.618 1108.155,1028.095 1155.669,1548.757 
		1088.998,1548.757 1019.201,1202.831 1027.189,1126.979 	"/>
	<path style="fill:#A1C5E2;" d="M936.575,1538.172c-0.013,0-0.025-0.001-0.037-0.001c-0.898-0.02-1.61-0.764-1.59-1.662
		l10.227-459.778c0.02-0.897,0.791-1.602,1.662-1.59c0.898,0.02,1.61,0.764,1.59,1.662L938.2,1536.581
		C938.18,1537.467,937.456,1538.172,936.575,1538.172z"/>
	<path style="fill:#A1C5E2;" d="M1104.697,1536.263l-71.007-403.538c-0.085-0.484-0.38-0.876-0.771-1.11l3.863-22.798l0.023-0.135
		v-45.499c0-0.898-0.729-1.627-1.627-1.627s-1.627,0.729-1.627,1.627v45.226l-15.954,94.151c-0.15,0.886,0.446,1.725,1.332,1.875
		c0.092,0.016,0.184,0.023,0.273,0.023c0.779,0,1.467-0.562,1.602-1.355l10.776-63.596l69.913,397.32
		c0.139,0.789,0.825,1.345,1.6,1.345c0.094,0,0.188-0.008,0.284-0.025C1104.263,1537.991,1104.854,1537.147,1104.697,1536.263z"/>
	<path style="fill:#FFFFFF;" d="M1057.855,1063.183c0,0-0.666,45.959-8.666,47.459h-76.5c-2.5-2.411-6.5-16.139,17.5-16.639
		c24-0.5,31.139,0,31.139,0l-1.139-30.82H1057.855z"/>
	<path style="fill:#0E2549;" d="M1049.319,1112.036h-77.193l-0.405-0.391c-1.722-1.661-3.257-6.131-1.662-10.204
		c1.515-3.87,6.233-8.544,20.101-8.832c18.063-0.376,26.55-0.19,29.719-0.071l-1.136-30.75h40.527l-0.021,1.415
		c-0.16,11.049-1.341,47.222-9.804,48.809L1049.319,1112.036z M973.341,1109.247h75.694c4.103-1.133,6.987-23.68,7.402-44.67
		h-34.802l1.143,30.924l-1.547-0.107c-0.072-0.004-7.408-0.488-31.013,0.003c-12.331,0.257-16.357,3.982-17.563,7.062
		C971.568,1105.235,972.551,1108.076,973.341,1109.247z"/>
	<path style="fill:#FFFFFF;" d="M1150.581,695.519c0,0-18.466,49.743-15.887,56.477c2.579,6.733,3.005,32.722,3.005,32.722
		l-50.113,96.339l-82.206-30.648l17.555-87.837c0,0,46.879-21.108,50.919-26.933c5.592-8.06,18.3-55.695,18.3-55.695
		L1150.581,695.519z"/>
	<path style="fill:#0E2549;" d="M1088.324,882.979l-84.714-31.584l17.968-89.903l0.724-0.326
		c18.686-8.414,47.499-22.391,50.285-26.406c5.375-7.748,17.95-54.74,18.077-55.213c0.219-0.823,1.067-1.314,1.887-1.092
		c0.822,0.22,1.312,1.064,1.092,1.887c-0.521,1.956-12.843,47.99-18.522,56.176c-4.004,5.771-43.489,23.813-50.829,27.133
		l-17.142,85.772l79.698,29.714l49.303-94.782c-0.066-3.25-0.609-25.839-2.896-31.807c-2.653-6.926,12.764-49.168,15.881-57.565
		c0.296-0.799,1.185-1.206,1.981-0.909c0.799,0.296,1.206,1.184,0.909,1.982c-7.061,19.021-17.619,50.879-15.893,55.389
		c2.646,6.907,3.09,32.176,3.107,33.248l0.006,0.391l-0.18,0.346L1088.324,882.979z"/>
	<path style="fill:#0E2549;" d="M1170.477,590.235c9.999,4.574,34.432,15.374,28.224,33.923
		c-7.081,21.157-19.757,47.165-26.678,60.777c-2.731,5.373-8.975,7.93-14.678,6.021l-63.882-21.38
		c-5.853-1.959-9.302-8.002-8.017-14.052c4.323-20.362,13.843-63.355,18.264-68.838
		C1118.754,568.031,1154.646,582.993,1170.477,590.235z"/>
	<path style="fill:#FFFFFF;" d="M1093.783,685.052c-2.249-4.739,1.112-19.379,6.134-35.685c0.145-0.472,0.035-0.978-0.278-1.341
		c-3.357-3.902-7.637-11.279-4.776-19.245c2.479-6.9,7.016-3.761,10.214-0.202c0.57,0.635,1.602,0.398,1.895-0.432
		c6.839-19.4,13.635-36.14,13.635-36.14l75.91,25.406c0,0-5.97,17.343-13.226,36.603c-0.326,0.864-19.084,46.32-22.316,49.92
		c-1.761,1.961-4.301,3.229-7.375,3.922c0,0-6.204,2.354-33.794-6.88L1093.783,685.052z"/>
	<path style="fill:#0E2549;" d="M1150.885,709.676c-4.248,0-13.352-1.132-31.571-7.229c-0.811-0.271-1.248-1.149-0.977-1.959
		c0.271-0.811,1.15-1.248,1.959-0.977c26.115,8.74,32.737,6.902,32.804,6.883l0.158-0.045c2.887-0.651,5.096-1.811,6.563-3.446
		c2.909-3.24,21.329-47.631,22.021-49.435c5.957-15.813,11.101-30.49,12.697-35.082l-73.042-24.446
		c-1.745,4.36-7.422,18.71-13.067,34.724c-0.326,0.924-1.086,1.587-2.033,1.775c-0.917,0.182-1.846-0.125-2.473-0.824
		c-2.13-2.369-4.054-3.599-5.264-3.352c-1.11,0.217-1.886,1.775-2.342,3.043c-2.856,7.955,2.191,15.036,4.494,17.711
		c0.666,0.775,0.885,1.823,0.584,2.805c-7.746,25.151-7.219,32.454-6.216,34.568c0.367,0.772,0.038,1.696-0.734,2.063
		c-0.774,0.366-1.696,0.038-2.063-0.735c-2.153-4.537-0.18-16.554,6.032-36.738c-2.679-3.129-8.398-11.291-5.012-20.721
		c1.057-2.942,2.624-4.636,4.659-5.035c2.28-0.453,4.857,0.825,7.667,3.784c6.699-18.949,13.372-35.416,13.439-35.582l0.547-1.347
		l78.771,26.363l-0.509,1.477c-0.06,0.174-6.06,17.585-13.24,36.645c-0.165,0.436-19.032,46.419-22.613,50.408
		c-1.894,2.108-4.623,3.582-8.115,4.382C1153.642,709.466,1152.713,709.676,1150.885,709.676z"/>
	<path style="fill:#0E2549;" d="M1140.394,647.687c-0.318,0-0.643-0.058-0.957-0.181c-1.354-0.529-2.021-2.055-1.492-3.408
		l0.603-1.541c0.529-1.353,2.056-2.02,3.408-1.492c1.354,0.529,2.021,2.055,1.492,3.408l-0.603,1.541
		C1142.438,647.052,1141.445,647.687,1140.394,647.687z"/>
	<path style="fill:#0E2549;" d="M1171.93,659.638c-0.285,0-0.575-0.046-0.86-0.145c-1.373-0.475-2.101-1.973-1.626-3.346
		l0.638-1.844c0.476-1.372,1.973-2.102,3.347-1.626c1.373,0.475,2.101,1.973,1.626,3.346l-0.638,1.844
		C1174.039,658.955,1173.021,659.638,1171.93,659.638z"/>
	<path style="fill:#0E2549;" d="M1128.91,631.88c-0.534,0-1.067-0.202-1.478-0.606c-0.828-0.816-0.837-2.148-0.021-2.976
		c7.994-8.109,21.363-3.772,21.929-3.584c1.103,0.368,1.698,1.56,1.33,2.663c-0.367,1.101-1.555,1.694-2.659,1.331l0,0
		c-0.113-0.038-11.458-3.687-17.602,2.545C1129.997,631.671,1129.454,631.88,1128.91,631.88z"/>
	<path style="fill:#0E2549;" d="M1154.515,670.166c-0.988,0-1.833-0.073-2.337-0.129c-0.973-0.109-1.673-0.985-1.564-1.958
		c0.108-0.974,0.999-1.672,1.957-1.567c2.748,0.3,5.493-0.15,5.814-0.732c0.452-1.016,1.164-7.336,1.736-12.414
		c1.095-9.709,1.836-15.737,2.896-17.58c0.572-0.992,1.507-1.615,2.705-1.803c5.26-0.829,14.704,7.489,16.546,9.164
		c0.726,0.659,0.779,1.78,0.12,2.505c-0.658,0.725-1.779,0.779-2.505,0.12c-7.86-7.141-13.05-8.787-13.778-8.237
		c-0.786,1.379-1.793,10.315-2.46,16.227c-0.988,8.776-1.461,12.476-2.157,13.734
		C1160.256,669.723,1156.949,670.166,1154.515,670.166z"/>
	<path style="fill:#0E2549;" d="M1177.401,620.259c9.979,2.704,29.707,5.103,34.188-14.855c4.48-19.958-1.607-14.206-1.607-14.206
		s-5.443,2.98-7.032,2.65c-1.59-0.331,1.213,1.794,1.34-15.945c0,0-13.634-7.533-22.896-0.449
		c-9.263,7.083-12.087,0.511-12.943-4.854c-0.728-4.558-8.506-1.509-10.993,2.082c-3.719,3.727-25.262-5.932-32.951-4.776
		c-12.17,1.83-16.512,2.868-20.796,16.781c-0.823,2.675-5.178,29.927-5.178,29.927l17.363-24.401
		C1115.896,592.212,1161.09,615.84,1177.401,620.259z"/>
	<path style="fill:#0E2549;" d="M1157.041,680.975c0.521,1.304-1.51,5.273-5.157,3.687c-9.356-4.068-15.589-14.121-13.482-12.75
		c0.826,0.538,6.4,4.228,10.275,6.196C1153.946,680.785,1156.449,679.494,1157.041,680.975z"/>
	<path style="fill:#E2474B;" d="M1076.053,737.51c0,0,63.228,22.35,65.723,22.505c2.495,0.156-39.353,286.386-39.353,286.386
		l-132.892-42.668L1076.053,737.51z"/>
	<path style="fill:#FFFFFF;" d="M987.961,840.834v234.455V840.834z"/>
	<path style="fill:#0E2549;" d="M987.961,1076.9c-0.89,0-1.611-0.722-1.611-1.611V840.834c0-0.89,0.722-1.611,1.611-1.611
		c0.89,0,1.611,0.722,1.611,1.611v234.455C989.572,1076.179,988.851,1076.9,987.961,1076.9z"/>
	<path style="fill:#FFFFFF;" d="M1169.957,890.965c4.77,8.493,108.172-67.391,109.71-73.173c3.523-13.25-4.958-25.525-4-29.44
		c1.502-6.137,14.235,13.158,16.987,18.765c0.47,0.957,1.219,1.033,2.149,0.513c11.152-6.23,40.651-24.085,42.196-17.869
		c1.417,5.697-28.064,19.805-27.833,21.197c0.612,3.688,3.316,17.187-11.5,23.167c-9.569,3.862-35.511,96.045-85.465,86.303
		C1162.248,910.685,1165.188,882.471,1169.957,890.965z"/>
	<path style="fill:#0E2549;" d="M1219.629,922.786c-2.513,0-5.09-0.245-7.738-0.762c-36.989-7.215-45.756-24.572-46.012-30.651
		c-0.113-2.676,1.252-3.356,1.844-3.524c0.741-0.209,2.172-0.197,3.555,2.15c2.5,0.591,16.719-5.551,55.237-32.598
		c27.286-19.16,50.055-37.222,51.6-40.102c2.135-8.135-0.521-15.919-2.46-21.607c-1.169-3.427-2.014-5.902-1.567-7.727
		c0.488-1.993,1.87-2.353,2.441-2.415c0.081-0.009,0.164-0.013,0.248-0.013c5.479,0,16.066,18.575,17.233,20.673c0,0,0,0,0.001,0
		c1.374-0.768,3.028-1.713,4.875-2.768c21.047-12.024,33.308-18.174,37.829-16.243c0.956,0.409,1.617,1.179,1.863,2.169
		c1.056,4.244-6.392,9.495-21.439,18.308c-2.443,1.431-5.164,3.025-6.237,3.802c1.863,11.896-2.383,20.021-12.626,24.155
		c-2.03,0.819-6.452,9.605-10.728,18.102C1274.315,880.027,1252.794,922.786,1219.629,922.786z M1169.357,892.665
		c0.223,0.876,0.638,2.01,1.383,3.38c2.676,4.924,12.102,16.999,41.773,22.786c35.171,6.858,58.308-39.098,72.128-66.559
		c6.247-12.412,9.384-18.432,12.417-19.656c13.219-5.335,11.215-17.186,10.557-21.081l-0.053-0.311
		c-0.259-1.559,0.674-2.104,7.933-6.356c4.271-2.502,9.589-5.615,13.742-8.584c6.438-4.602,6.188-6.116,6.185-6.131
		c-0.135-0.073-2.096-1.024-13.588,4.542c-7.105,3.442-15.329,8.14-21.334,11.571c-1.857,1.061-3.521,2.011-4.903,2.784
		c-0.933,0.521-1.818,0.657-2.629,0.404c-0.527-0.164-1.263-0.579-1.773-1.62c-2.816-5.738-11.067-17.451-13.977-18.906
		c-0.082,1.032,0.729,3.41,1.515,5.714c1.964,5.755,4.93,14.453,2.507,23.567c-1.174,4.41-35.701,29.695-48.906,39.066
		c-14.61,10.368-49.698,34.623-59.929,35.917C1170.944,893.379,1169.984,893.099,1169.357,892.665z M1278.098,817.364
		c-0.001,0.003-0.002,0.007-0.003,0.01C1278.096,817.37,1278.097,817.367,1278.098,817.364z M1277.314,788.539L1277.314,788.539
		L1277.314,788.539z"/>
	<path style="fill:#A1C5E2;" d="M865.401,1019.257c0,0,84.533-260.694,119.967-284.39c35.433-23.696,46.721-19.818,75.701-19.59
		c28.98,0.227,29.397,75.596,20.165,101.292c-11.729,32.64-72.853,234.873-72.853,234.873L865.401,1019.257z"/>
	<path style="fill:#A1C5E2;" d="M1074.35,1066.291c0,0,30.059-205.788,42.318-247.505c7.698-26.197,14.922-81.465,30.067-76.663
		c32.688,10.364,51.494,127.131,51.494,127.131l65.543-53.677l39.337,56.069c0,0-64.261,107.005-113.032,106.523
		c-21.49-0.212-47.099-58.6-47.099-58.6l-18.996,157.894L1074.35,1066.291z"/>
	<polygon style="fill:#A1C5E2;" points="993.722,833.146 987.961,1083.221 1061.082,1084.229 1065.123,815.833 	"/>
	<path style="fill:#0E2549;" d="M1062.805,1086.003l-76.633-1.058l5.801-251.839c0.021-0.966,0.819-1.76,1.789-1.709
		c0.966,0.022,1.732,0.823,1.709,1.789l-5.72,248.309l69.608,0.96l4.015-266.65c0.014-0.957,0.795-1.723,1.748-1.723
		c0.01,0,0.019,0,0.027,0c0.966,0.015,1.737,0.81,1.723,1.776L1062.805,1086.003z"/>
	<path style="fill:#0E2549;" d="M1142.439,911.396c-0.074,0-0.149-0.005-0.226-0.015c-0.958-0.124-1.635-1.001-1.512-1.959
		l9.938-77.083c0.124-0.957,0.995-1.638,1.959-1.512c0.958,0.124,1.635,1.001,1.512,1.959l-9.938,77.083
		C1144.059,910.753,1143.307,911.396,1142.439,911.396z"/>
</g>
<g>
	<path style="fill:#A1C5E2;" d="M586.982,1351.617H408.365c-23.976,0-43.413-19.438-43.413-43.413V941.088
		c0-23.977,19.437-43.413,43.413-43.413h141.746c23.976,0,43.413,19.437,43.413,43.413v332.203l36.872,34.913
		C630.395,1332.18,610.958,1351.617,586.982,1351.617z"/>
	<path style="fill:#0E2549;" d="M586.982,1353.366H408.365c-24.902,0-45.162-20.26-45.162-45.162V941.088
		c0-24.902,20.26-45.163,45.162-45.163h141.746c24.903,0,45.163,20.261,45.163,45.163v331.45l36.871,34.913v0.753
		C632.144,1333.106,611.885,1353.366,586.982,1353.366z M408.365,899.425c-22.973,0-41.663,18.69-41.663,41.663v367.116
		c0,22.973,18.69,41.662,41.663,41.662h178.617c22.724,0,41.257-18.286,41.657-40.915l-36.864-34.907V941.088
		c0-22.974-18.69-41.663-41.664-41.663H408.365z"/>
	<path style="fill:#0E2549;" d="M488.984,1286.481c-0.01,0-0.02,0-0.03,0l-74.483,1.27c9.913-120.79-19.629-300.753-19.929-302.561
		c-0.159-0.952-1.06-1.604-2.013-1.438c-0.953,0.158-1.598,1.058-1.439,2.013c0.3,1.804,29.829,181.683,19.866,302.047l-15.88,0.271
		c-0.966,0.017-1.736,0.813-1.719,1.779c0.016,0.955,0.796,1.719,1.749,1.719c0.01,0,0.02,0,0.03,0l93.879-1.601
		c0.966-0.017,1.736-0.813,1.719-1.779C490.716,1287.245,489.936,1286.481,488.984,1286.481z"/>
	<path style="fill:#0E2549;" d="M533.823,1576.886h-16.553v-204.78c10.518-2.143,18.372-10.493,18.372-20.488h-47.35
		c0,9.995,7.853,18.346,18.372,20.488v204.78h-16.553c-16.438,0-29.764,13.325-29.764,29.764v5.828h103.239v-5.828
		C563.587,1590.211,550.262,1576.886,533.823,1576.886z"/>
</g>
<g>
	<polygon style="fill:#FFFFFF;" points="854.446,1493.637 883.183,1565.595 833.238,1565.595 808.615,1519.669 	"/>
	<path style="fill:#0E2549;" d="M886.03,1567.523h-53.946l-26.058-48.602l49.391-28.054L886.03,1567.523z M834.392,1563.666h45.944
		l-26.861-67.261l-42.272,24.011L834.392,1563.666z"/>
	<path style="fill:#E2474B;" d="M885.924,1563.271c0,0,72.184,24.446,74.673,44.591H831.164v-44.591H885.924z"/>
	<polygon style="fill:#FFFFFF;" points="691.823,1526.424 685.979,1566.176 638.709,1566.176 643.709,1522.896 	"/>
	<path style="fill:#0E2549;" d="M687.645,1568.104h-51.1l5.461-47.268l52.027,3.815L687.645,1568.104z M640.873,1564.247h43.441
		l5.3-36.052l-44.202-3.241L640.873,1564.247z"/>
	<path style="fill:#E2474B;" d="M688.72,1563.852c0,0,72.184,24.447,74.673,44.591H633.96v-44.591H688.72z"/>
	<polygon style="fill:#0E2549;" points="768.104,1600.789 768.104,1612.371 630.581,1612.371 630.581,1599.129 	"/>
	<polygon style="fill:#0E2549;" points="827.119,1599.444 827.119,1611.791 964.642,1611.791 964.642,1598.548 	"/>
	<path style="fill:#0E2549;" d="M693.573,1580.167c-0.75,0-1.446-0.479-1.686-1.232c-0.297-0.931,0.217-1.927,1.148-2.225
		l24.954-7.968c0.931-0.296,1.927,0.216,2.225,1.148c0.297,0.931-0.217,1.927-1.148,2.225l-24.954,7.968
		C693.933,1580.14,693.751,1580.167,693.573,1580.167z"/>
	<path style="fill:#0E2549;" d="M706.05,1588.134c-0.75,0-1.446-0.479-1.686-1.232c-0.297-0.931,0.217-1.927,1.148-2.225
		l24.954-7.967c0.932-0.298,1.927,0.216,2.225,1.148c0.297,0.931-0.217,1.927-1.148,2.225l-24.954,7.967
		C706.41,1588.106,706.228,1588.134,706.05,1588.134z"/>
	<path style="fill:#0E2549;" d="M723.34,1596.102c-0.75,0-1.446-0.479-1.686-1.232c-0.297-0.931,0.217-1.927,1.148-2.225
		l24.954-7.968c0.933-0.296,1.928,0.216,2.225,1.148c0.297,0.931-0.217,1.927-1.148,2.225l-24.954,7.968
		C723.7,1596.074,723.519,1596.102,723.34,1596.102z"/>
	<path style="fill:#0E2549;" d="M887.228,1576.875c-0.75,0-1.446-0.479-1.686-1.232c-0.297-0.931,0.217-1.927,1.148-2.225
		l24.954-7.968c0.931-0.295,1.928,0.216,2.225,1.148c0.297,0.931-0.217,1.927-1.148,2.225l-24.954,7.968
		C887.588,1576.848,887.406,1576.875,887.228,1576.875z"/>
	<path style="fill:#0E2549;" d="M899.705,1584.842c-0.75,0-1.446-0.479-1.686-1.232c-0.297-0.931,0.217-1.927,1.148-2.225
		l24.954-7.967c0.931-0.297,1.927,0.216,2.225,1.148c0.297,0.931-0.217,1.927-1.148,2.225l-24.954,7.967
		C900.065,1584.814,899.883,1584.842,899.705,1584.842z"/>
	<path style="fill:#0E2549;" d="M916.996,1592.81c-0.75,0-1.446-0.479-1.686-1.232c-0.297-0.931,0.217-1.927,1.148-2.225
		l24.954-7.968c0.932-0.296,1.927,0.216,2.225,1.148c0.297,0.931-0.217,1.927-1.148,2.225l-24.954,7.968
		C917.356,1592.782,917.174,1592.81,916.996,1592.81z"/>
	<path style="fill:#1E5272;" d="M638.813,1194.324c0,0,158.646-7.036,162.646,31.745s-93.25,313.098-93.25,313.098l-76.25-10.831
		c0,0,54.859-201.149,52.483-215.579c-9.399-57.077-228.655-126.402-228.655-126.402L638.813,1194.324z"/>
	<path style="fill:#2E6B99;" d="M427.121,1164.066c0,0-19.066,125.179,72.098,132.895c92.056,7.79,180.381,6.4,200.419,26.062
		c5.868,5.758,109.181,216.145,109.181,216.145l72.165-28.452c0,0-120.736-260.337-130.003-272.858
		c-16.683-22.544-29.315-34.708-112.167-43.532C563.983,1186.354,427.121,1164.066,427.121,1164.066z"/>
	<path style="fill:#FFFFFF;" d="M644.669,828.623c0,0-16.571,48.858-13.563,55.231c3.008,6.373,25.356,21.482,25.356,21.482
		l-67.521,105.244l-86.553-25.676l13.697-85.56c0,0,47.401-22.58,51.284-28.389c5.373-8.039,16.097-54.59,16.097-54.59
		L644.669,828.623z"/>
	<path style="fill:#0E2549;" d="M589.614,1012.387l-1.11-0.33l-87.851-26.061l14.04-87.697l0.731-0.348
		c18.179-8.659,48.008-23.879,50.665-27.854c5.156-7.714,15.77-53.617,15.876-54.08c0.192-0.829,1.02-1.348,1.849-1.156
		c0.83,0.191,1.347,1.019,1.156,1.849c-0.44,1.912-10.851,46.921-16.318,55.101c-3.849,5.758-43.752,25.026-51.171,28.575
		l-13.355,83.425l84.145,24.962l66.086-103.008c-5.083-3.5-21.862-15.357-24.643-21.252c-3.116-6.602,10.696-48.127,13.497-56.384
		c0.273-0.806,1.148-1.237,1.955-0.965c0.806,0.273,1.238,1.149,0.965,1.955c-6.329,18.662-15.625,49.845-13.628,54.077
		c2.319,4.915,18.706,16.726,24.825,20.862l1.247,0.843L589.614,1012.387z"/>
	<path style="fill:#0E2549;" d="M651.414,726.792c10.77,3.438,37.047,11.477,32.557,29.898
		c-5.122,21.011-15.509,47.22-21.242,60.964c-2.262,5.425-8.431,8.48-14.501,7.192l-68-14.428
		c-6.23-1.322-10.403-6.798-9.701-12.736c2.363-19.982,7.755-62.212,11.747-67.905C595.853,710.406,634.362,721.348,651.414,726.792
		z"/>
	<path style="fill:#FFFFFF;" d="M582.146,825.26c-2.803-4.339-0.844-18.731,2.654-34.882c0.101-0.467-0.064-0.943-0.423-1.263
		c-3.859-3.428-9.025-10.108-6.896-18.037c1.845-6.869,6.84-4.286,10.5-1.173c0.653,0.556,1.691,0.229,1.908-0.596
		c5.053-19.299,10.334-36.038,10.334-36.038l80.805,17.145c0,0-4.369,17.239-9.866,36.444c-0.247,0.861-14.903,46.342-17.863,50.112
		c-1.612,2.053-4.099,3.515-7.194,4.476c0,0-6.149,2.856-35.518-3.375L582.146,825.26z"/>
	<path style="fill:#0E2549;" d="M640.011,843.654c-5.3,0-14.423-0.816-29.747-4.068c-0.836-0.177-1.371-0.999-1.193-1.835
		c0.177-0.836,0.996-1.375,1.835-1.193c27.892,5.918,34.523,3.492,34.587,3.467l0.15-0.056c2.923-0.908,5.088-2.238,6.436-3.954
		c2.627-3.345,17.064-47.784,17.594-49.585c4.483-15.661,8.253-30.165,9.453-34.834l-77.846-16.517
		c-1.347,4.348-5.723,18.688-9.895,34.623c-0.237,0.906-0.919,1.616-1.822,1.9c-0.905,0.285-1.872,0.091-2.586-0.517
		c-2.498-2.125-4.665-3.119-5.933-2.719c-1.112,0.346-1.739,1.884-2.069,3.114c-2.107,7.847,3.794,14.138,6.429,16.479
		c0.777,0.691,1.125,1.743,0.908,2.747c-5.385,24.861-4.107,31.794-2.867,33.714c0.464,0.718,0.258,1.677-0.46,2.141
		c-0.717,0.465-1.676,0.258-2.141-0.461c-0.993-1.536-4.009-6.207,2.411-35.909c-3.107-2.786-9.801-10.094-7.271-19.514
		c0.773-2.881,2.166-4.654,4.139-5.268c2.308-0.717,5.134,0.274,8.414,2.946c4.961-18.88,10.156-35.383,10.208-35.549l0.423-1.34
		l83.754,17.771l-0.396,1.561c-0.043,0.172-4.438,17.481-9.878,36.489c-0.124,0.435-14.846,46.456-18.134,50.642
		c-1.731,2.205-4.383,3.879-7.884,4.977C646.101,843.115,644.318,843.654,640.011,843.654z"/>
	<path style="fill:#0E2549;" d="M617.643,784.923c-0.25,0-0.506-0.036-0.758-0.112c-1.391-0.418-2.18-1.885-1.762-3.276l0.462-1.539
		c0.419-1.391,1.884-2.181,3.276-1.762c1.391,0.418,2.18,1.885,1.762,3.276l-0.462,1.539
		C619.819,784.188,618.774,784.923,617.643,784.923z"/>
	<path style="fill:#0E2549;" d="M654.845,792.916c-0.215,0-0.433-0.027-0.651-0.082c-1.408-0.359-2.259-1.79-1.9-3.198l0.467-1.833
		c0.358-1.409,1.791-2.256,3.198-1.9c1.408,0.359,2.259,1.791,1.9,3.198l-0.467,1.833
		C657.089,792.124,656.019,792.916,654.845,792.916z"/>
	<path style="fill:#0E2549;" d="M626.606,774.039c-0.42,0-0.844-0.125-1.212-0.386c-0.074-0.051-5.546-3.814-12.433-2.798
		c-1.151,0.17-2.219-0.626-2.388-1.776c-0.169-1.149,0.626-2.219,1.776-2.388c8.613-1.265,15.203,3.332,15.479,3.529
		c0.947,0.673,1.169,1.987,0.495,2.935C627.913,773.731,627.265,774.039,626.606,774.039z"/>
	<path style="fill:#0E2549;" d="M619.767,810.22c-1.708,1.487,3.342,8.896,10.99,10.191c12.479,2.114,18.235-4.974,15.111-5.048
		c-1.224-0.029-6.286,1.396-13.727-0.004C624.115,813.849,620.912,809.222,619.767,810.22z"/>
	<path style="fill:#0E2549;" d="M635.134,807.294c-0.085,0-0.163,0-0.234-0.001c-0.979-0.011-1.763-0.813-1.752-1.792
		c0.01-0.973,0.803-1.755,1.773-1.755c0.065-0.001,0.128,0.001,0.191,0.001c2.861,0,5.504-0.682,5.819-1.268
		c0.628-1.364,0.667-1.446-0.657-9.726c-0.296-1.851-0.654-4.09-1.076-6.817l-0.017-0.146c-0.045-0.628-0.387-6.233,1.274-9.674
		c0.604-1.25,1.985-2.098,4.107-2.521c5.426-1.083,14.75,0.62,19.447,4.796c0.732,0.651,0.798,1.771,0.147,2.503
		c-0.651,0.732-1.772,0.797-2.503,0.147c-3.438-3.056-10.499-4.534-15.062-4.151c-2.029,0.17-2.841,0.651-2.965,0.806
		c-1.026,2.133-1.011,6.264-0.912,7.771c0.417,2.687,0.769,4.896,1.062,6.726c1.381,8.639,1.493,9.345,0.375,11.771
		C642.748,807.008,637.17,807.294,635.134,807.294z"/>
	<path style="fill:#0E2549;" d="M591.609,730.275c0,0-0.65-20.384,13.016-17.936c13.667,2.448,15.97-11.095,28.775-8.703
		c12.805,2.393,5.625,5.84,18.745,9.818c13.12,3.977,20.138-3.127,23.244,7.503c3.105,10.63,13.644,8.573,17.861,15.887
		c4.217,7.314,2.273,15.432-4.389,17.74c-6.663,2.308,2.999,8.489-2.603,13.995c-5.602,5.506-27.654,3.581-30.894-5.235
		c-3.24-8.816-4.883-14.79-13.076-15.711c-8.192-0.92-18.416,2.722-23.899,0.803c-5.483-1.919-12.704-8.336-15.834-6.973
		c-3.13,1.362-6.619,6.305-9.604,5.72C589.964,746.599,581.211,736.253,591.609,730.275z"/>
	<path style="fill:#0E2549;" d="M604.45,733.243c0,0-3.655,9.797-7.625,14.036c-3.97,4.238-9.372,6.949-9.286,14.013
		c0.085,7.064-16.847-3.75-12.145-11.053c9.687-15.045-4.919-19.492,4.679-26.956c5.731-4.456,15.795-3.698,15.795-3.698
		L604.45,733.243z"/>
	<path style="fill:#0E2549;" d="M604.45,733.243c0,0-3.655,9.797-7.625,14.036c-3.97,4.238-9.372,6.949-9.286,14.013
		c0.085,7.064-16.847-3.75-12.145-11.053c9.687-15.045-4.919-19.492,4.679-26.956c5.731-4.456,15.795-3.698,15.795-3.698
		L604.45,733.243z"/>
	<path style="fill:#E2474B;" d="M542.153,869.574c-17.593-9.075-128.56,67.596-159.917,168.684
		c-35.195,113.467,93.802,81.603,93.802,81.603l-19.923-126.596l-32.165,181.841l206.81,19.219l21.735-135.102
		c0,0-9.615,59.768,67.224,61.053c33.841,0.565,81.741,0,81.741,0l5.523-51.68l-86.215-12.264c0,0-7.813-97.436-41.957-132.799
		c-16.115-16.69-29.373-26.516-36.328-28.211C621.549,890.219,631.493,915.656,542.153,869.574z"/>
	<path style="fill:#FFFFFF;" d="M665.338,1099.264l40.974-4.35l13.312,3.469l1.938,4.936c0,0-21.893-1.291-34.829,2.647
		c-12.935,3.938-22.757,2.684-22.757,2.684l-0.703-2.972L665.338,1099.264z"/>
	<path style="fill:#FFFFFF;" d="M658.528,1112.645c-18.19-1.563-96.131,8.976-96.131,8.976l6.573-42.103
		c0,0,85.026,14.47,91.455,12.62c12.075-3.473,28.08-5.582,42.352-6.139c18.877-0.737,36.497,3.784,36.213,8.915
		c-0.153,2.768-25.577,0.563-32.09,3.176C688.507,1105.47,671.493,1113.759,658.528,1112.645z"/>
	<path style="fill:#0E2549;" d="M559.869,1124.097l7.341-47.025l2.115,0.359c32.533,5.537,85.869,13.875,90.519,12.673
		c11.452-3.294,27.473-5.619,42.85-6.219c16.254-0.632,32.055,2.491,36.756,7.271c1.46,1.483,1.704,2.927,1.651,3.876
		c-0.188,3.384-4.896,3.462-16.273,3.652c-6.383,0.107-14.328,0.24-17.142,1.369c-2.948,1.183-5.86,2.389-8.726,3.576
		c-15.026,6.225-29.215,12.098-40.614,11.124l0,0c-17.747-1.527-94.89,8.859-95.667,8.964L559.869,1124.097z M570.729,1081.961
		l-5.805,37.188c14.336-1.897,77.327-10.011,93.785-8.612l0,0c10.373,0.896,24.098-4.795,38.633-10.816
		c2.88-1.193,5.807-2.405,8.769-3.595c3.538-1.42,11.219-1.548,18.647-1.672c3.917-0.065,9-0.151,11.476-0.522
		c-3.686-3.333-17.734-6.436-33.375-5.817c-15.057,0.587-30.702,2.852-41.85,6.058
		C654.727,1095.984,588.84,1085.026,570.729,1081.961z"/>
	<path style="fill:#FFFFFF;" d="M669.393,1101.644l42.443-6.258l-1.958,0.638c0,0,40.297,6.679-19.038,11.572
		c-13.607,1.122-24.611-0.161-23.906,1.243l0.394-0.78L669.393,1101.644z"/>
	<path style="fill:#0E2549;" d="M675.143,1112.456c-1.038,0-1.943-0.764-2.093-1.82c-0.164-1.156,0.642-2.228,1.799-2.391
		c4.892-0.692,9.318-1.721,13.223-2.629c4.766-1.108,8.881-2.064,12.477-2.108c4.361-0.054,17.344-0.213,19.604-1.76
		c-0.016-0.032-0.034-0.069-0.057-0.11c-0.958-1.319-9.388-4.549-17.767-4.606c-9.593-0.09-18.219,3.189-18.305,3.222
		c-1.092,0.417-2.313-0.131-2.731-1.222c-0.416-1.092,0.129-2.313,1.22-2.731c0.377-0.144,9.271-3.502,19.521-3.502
		c0.108,0,0.216,0.001,0.324,0.001c8.07,0.057,19.439,3.11,21.455,6.817c1.028,1.891,0.646,3.307,0.145,4.162
		c-1.683,2.871-6.922,3.76-23.359,3.96c-3.137,0.039-7.045,0.947-11.57,2c-3.99,0.927-8.512,1.979-13.588,2.696
		C675.341,1112.449,675.241,1112.456,675.143,1112.456z"/>
	<polygon style="fill:#E2474B;" points="524.027,873.546 553.079,859.111 600.637,890.752 579.968,907.205 	"/>
	<polygon style="fill:#E2474B;" points="657.759,903.109 644.045,881.016 600.637,890.752 611.905,912.1 	"/>
	<path style="fill:#0E2549;" d="M661.172,904.597l-16.123-25.974l-43.994,9.866l-47.823-31.816l-33.604,16.697l60.508,36.406
		l18.325-14.588c-2.003,33.03-14.85,235.767-31.313,288.965c-0.312,1.006,0.252,2.074,1.258,2.386
		c0.188,0.059,0.378,0.086,0.564,0.086c0.814,0,1.568-0.525,1.822-1.344c16.194-52.329,28.854-247.171,31.314-287.211l8.662,16.41
		L661.172,904.597z M579.799,904.635l-51.374-30.911l24.5-12.173l44.122,29.354L579.799,904.635z M643.041,883.41l11.305,18.212
		l-41.304,8.1l-9.243-17.512L643.041,883.41z"/>
	<path style="fill:#E2474B;" d="M453.822,1045.664l145.11,25.988l-16.902,49.968c0,0-100.497,2.906-122.012,0
		c-40.051-5.411-82.87-40.692-82.87-40.692L453.822,1045.664z"/>
	<path style="fill:#0E2549;" d="M582.92,1120.964c-0.21,0-0.422-0.034-0.632-0.104c-1.032-0.35-1.586-1.469-1.236-2.501
		l15.263-45.125l-133.331-21.14l37.918-63.859c0.556-0.936,1.766-1.245,2.704-0.689c0.937,0.557,1.246,1.767,0.689,2.703
		l-34.948,58.859l132.205,20.962l-16.761,49.553C584.511,1120.445,583.743,1120.964,582.92,1120.964z"/>
</g>
<g>
	<path style="fill:#EBF4FE;" d="M1660.541,1137.654l-1196.992-1.616c-6.6,0-12-5.4-12-12v-1.396c0-6.6,5.4-12,12-12l1196.992,1.616
		c6.601,0,12,5.4,12,12v1.396C1672.541,1132.254,1667.142,1137.654,1660.541,1137.654z"/>
	<path style="fill:#0E2549;" d="M1660.541,1139.154h-0.002l-1196.992-1.616c-7.442,0-13.498-6.056-13.498-13.5v-1.396
		c0-7.444,6.056-13.5,13.5-13.5l1196.994,1.616c7.442,0,13.498,6.056,13.498,13.5v1.396
		C1674.041,1133.099,1667.985,1139.154,1660.541,1139.154z M463.547,1112.142c-5.788,0-10.498,4.71-10.498,10.5v1.396
		c0,5.79,4.71,10.5,10.5,10.5l1196.994,1.616c5.788-0.001,10.498-4.711,10.498-10.5v-1.396c0-5.79-4.71-10.5-10.5-10.5
		L463.547,1112.142z"/>
	<polygon style="fill:#EBF4FE;" points="422.705,1612.478 397.301,1612.478 514.412,1136.23 539.816,1136.23 	"/>
	<path style="fill:#0E2549;" d="M423.811,1613.889H395.5l0.43-1.748l117.375-477.321h28.312l-0.43,1.748L423.811,1613.889z
		 M399.101,1611.066h22.497l116.418-473.425h-22.497L399.101,1611.066z"/>
	<polygon style="fill:#EBF4FE;" points="1656.298,1612.478 1681.702,1612.478 1611.649,1137.654 1586.245,1137.654 	"/>
	<path style="fill:#0E2549;" d="M1683.439,1613.978h-28.437l-0.189-1.281l-70.306-476.542h28.437l0.189,1.281L1683.439,1613.978z
		 M1657.593,1610.978h22.372l-69.61-471.823h-22.372L1657.593,1610.978z"/>
</g>
<g>
	
		<ellipse transform="matrix(0.1831 -0.9831 0.9831 0.1831 105.2619 1244.7189)" style="fill:#A1C5E2;" cx="801.579" cy="559.023" rx="96.684" ry="96.684"/>
	<path style="fill:#0E2549;" d="M801.701,560.731l-57.816-26.721c-0.752-0.348-1.08-1.239-0.732-1.991
		c0.347-0.752,1.238-1.078,1.991-0.732l56.314,26.028l65.2-42.236c0.695-0.453,1.624-0.252,2.074,0.443
		c0.451,0.695,0.252,1.624-0.443,2.074L801.701,560.731z"/>
</g>
<g>
	<polygon style="fill:#EBF4FE;" points="1000.983,956.004 966.087,1097.288 762.289,1097.288 803.549,956.004 	"/>
	<path style="fill:#0E2549;" d="M967.262,1098.788H760.289l42.136-144.283h200.475l-0.46,1.859L967.262,1098.788z M764.29,1095.788
		h200.623l34.155-138.283H804.673L764.29,1095.788z"/>
	
		<rect x="701.208" y="1097.288" transform="matrix(-1 -1.224647e-16 1.224647e-16 -1 1667.1138 2207.9297)" style="fill:#A1C5E2;" width="264.697" height="13.354"/>
	<path style="fill:#0E2549;" d="M967.405,1112.142H699.708v-16.354h267.696V1112.142z M702.708,1109.142h261.696v-10.354H702.708
		V1109.142z"/>
	<path style="fill:#0E2549;" d="M880.42,1053.479c-0.42,0-0.841-0.018-1.266-0.055c-4.77-0.409-9.041-3.049-12.027-7.434
		c-2.921-4.289-4.264-9.756-3.781-15.392c1.008-11.752,9.722-20.648,19.465-19.8c9.725,0.834,16.816,11.073,15.809,22.825
		C897.655,1044.864,889.625,1053.479,880.42,1053.479z M881.539,1013.745c-7.663,0-14.373,7.432-15.203,17.11
		c-0.425,4.951,0.737,9.727,3.271,13.447c2.469,3.625,5.951,5.803,9.805,6.134c8.065,0.675,15.353-6.964,16.219-17.067
		c0.866-10.105-5-18.888-13.076-19.581C882.215,1013.76,881.875,1013.745,881.539,1013.745z"/>
</g>
<g>
	<path style="fill:#E2474B;" d="M1238.188,1110.642L1238.188,1110.642c-24.301,0-44-19.699-44-44v-26.705h88v26.705
		C1282.188,1090.942,1262.488,1110.642,1238.188,1110.642z"/>
	<path style="fill:#E2474B;" d="M1272.685,1095.502c-0.64,0-1.282-0.021-1.931-0.064l0.201-2.994
		c9.601,0.657,18.339-4.14,23.983-13.125c4.973-7.918,6.352-17.596,3.278-23.012c-1.098-1.934-2.588-3.034-4.557-3.364
		c-6.113-1.026-15.417,5.75-18.481,8.448l-1.982-2.252c0.493-0.435,12.189-10.622,20.96-9.155c2.876,0.482,5.12,2.111,6.67,4.843
		c3.644,6.421,2.268,17.148-3.348,26.088C1291.605,1090.264,1282.649,1095.502,1272.685,1095.502z"/>
	<path style="fill:#FFFFFF;" d="M1223.521,1097.887c-0.21,0-0.422-0.052-0.619-0.16c-19.83-10.94-17.438-44.438-17.326-45.859
		c0.056-0.705,0.69-1.215,1.379-1.179c0.707,0.056,1.234,0.673,1.18,1.379c-0.026,0.332-2.372,33.272,16.008,43.413
		c0.62,0.342,0.846,1.122,0.503,1.743C1224.411,1097.647,1223.973,1097.887,1223.521,1097.887z"/>
	<path style="fill:#0E2549;" d="M1216.323,1032.908c-0.386,0-0.771-0.147-1.064-0.443c-0.584-0.588-0.58-1.538,0.008-2.121
		c7.787-7.729,10.025-10.349,9.891-19.162c-0.121-7.945-3.784-11.313-7.661-14.877c-3.034-2.789-6.172-5.674-7.769-10.691
		c-3.781-11.885,10.909-22.945,11.536-23.41c0.667-0.495,1.604-0.353,2.098,0.311c0.493,0.665,0.354,1.604-0.31,2.098
		c-0.137,0.102-13.597,10.248-10.465,20.091c1.354,4.259,4.067,6.753,6.939,9.393c4.174,3.838,8.489,7.806,8.631,17.039
		c0.152,9.975-2.65,13.272-10.777,21.338C1217.087,1032.763,1216.705,1032.908,1216.323,1032.908z"/>
	<path style="fill:#0E2549;" d="M1255.425,1032.908c-0.386,0-0.771-0.147-1.064-0.443c-0.584-0.588-0.58-1.538,0.008-2.121
		c7.786-7.729,10.024-10.349,9.89-19.162c-0.121-7.945-3.784-11.313-7.661-14.877c-3.034-2.789-6.172-5.674-7.769-10.691
		c-3.781-11.885,10.909-22.945,11.536-23.41c0.667-0.495,1.604-0.353,2.098,0.311c0.493,0.665,0.354,1.604-0.31,2.098
		c-0.137,0.102-13.597,10.248-10.465,20.091c1.354,4.259,4.067,6.753,6.939,9.393c4.174,3.838,8.489,7.806,8.631,17.039
		c0.152,9.975-2.65,13.271-10.776,21.338C1256.189,1032.763,1255.807,1032.908,1255.425,1032.908z"/>
	<path style="fill:#0E2549;" d="M1234.521,1024.98c-0.386,0-0.771-0.147-1.064-0.443c-0.584-0.588-0.58-1.538,0.008-2.121
		c7.786-7.729,10.024-10.349,9.89-19.162c-0.121-7.945-3.784-11.313-7.661-14.877c-3.034-2.789-6.172-5.674-7.769-10.692
		c-3.781-11.885,10.909-22.945,11.536-23.41c0.666-0.494,1.604-0.352,2.098,0.312c0.493,0.665,0.354,1.604-0.31,2.098
		c-0.137,0.102-13.597,10.248-10.465,20.091c1.354,4.259,4.067,6.753,6.939,9.393c4.174,3.838,8.489,7.806,8.631,17.039
		c0.152,9.975-2.65,13.272-10.776,21.338C1235.286,1024.835,1234.903,1024.98,1234.521,1024.98z"/>
</g>
<g>
	<polygon style="fill:#FFFFFF;" points="1303.834,1524.023 1308.939,1573.587 1352.32,1573.587 1358.929,1520.524 	"/>
	<path style="fill:#0E2549;" d="M1353.752,1575.208h-46.275l-5.429-52.696l58.731-3.729L1353.752,1575.208z M1310.402,1571.966
		h40.486l6.189-49.699l-51.458,3.269L1310.402,1571.966z"/>
	<path style="fill:#E2474B;" d="M1306.559,1571.695c0,0-62.695,19.9-64.857,36.299h112.42v-36.299H1306.559z"/>
	<polygon style="fill:#FFFFFF;" points="1443.922,1518.647 1433.573,1572.574 1476.953,1572.574 1484.733,1520.313 	"/>
	<path style="fill:#0E2549;" d="M1478.351,1574.195h-46.739l10.981-57.225l44.01,1.796L1478.351,1574.195z M1435.535,1570.953
		h40.021l7.309-49.093l-37.613-1.536L1435.535,1570.953z"/>
	<path style="fill:#E2474B;" d="M1431.192,1570.683c0,0-62.696,19.9-64.857,36.299h112.42v-36.299H1431.192z"/>
	<polygon style="fill:#0E2549;" points="1361.063,1602.762 1361.063,1612.371 1480.51,1612.371 1480.51,1601.385 	"/>
	<polygon style="fill:#0E2549;" points="1357.635,1600.969 1357.635,1612.371 1238.188,1612.371 1238.188,1600.141 	"/>
	<path style="fill:#0E2549;" d="M1455.694,1602.873c-0.822,0-1.488-0.666-1.488-1.488v-21.781c0-0.822,0.666-1.488,1.488-1.488
		s1.488,0.666,1.488,1.488v21.781C1457.183,1602.207,1456.517,1602.873,1455.694,1602.873z"/>
	<path style="fill:#0E2549;" d="M1331.061,1603.886c-0.822,0-1.488-0.666-1.488-1.488v-21.781c0-0.822,0.666-1.488,1.488-1.488
		s1.488,0.666,1.488,1.488v21.781C1332.549,1603.22,1331.883,1603.886,1331.061,1603.886z"/>
	<path style="fill:#0E2549;" d="M1503.984,1174.033l-106.275,100.064l-22.726,266.82l-78.868,1.964
		c0,0,5.404-275.265,13.868-301.065c9-27.438,141.284-192.773,141.284-192.773l182.706-22.396c0,0,22.82,73.304,8.195,108.752
		c-14.626,35.448-148.52,411.165-148.52,411.165l-88.666-4.572L1503.984,1174.033z"/>
	<path style="fill:#A1C5E2;" d="M1504.984,1175.271c-0.114,0-0.23-0.014-0.347-0.044c-0.735-0.191-1.176-0.942-0.985-1.677
		l17.333-66.666c0.19-0.735,0.938-1.178,1.677-0.985c0.735,0.191,1.176,0.942,0.985,1.677l-17.333,66.666
		C1506.153,1174.861,1505.596,1175.271,1504.984,1175.271z"/>
	<polygon style="fill:#E2474B;" points="1506.836,811.549 1523.52,799.008 1541.151,809.435 1533.412,823.409 1564.879,1010.842 
		1542.65,1062.018 1516.05,1014.53 1517.674,824.226 	"/>
	<path style="fill:#0E2549;" d="M1520.805,629.007c10.181-0.688,34.892-2.677,38.016,15.164c3.563,20.35,4.702,47.119,5.064,61.255
		c0.143,5.579-3.823,10.417-9.32,11.379l-61.58,10.783c-5.642,0.988-11.125-2.41-12.748-7.902
		c-5.464-18.486-15.159-58.31-13.973-64.725C1470.304,633.134,1504.686,630.097,1520.805,629.007z"/>
	<path style="fill:#FFFFFF;" d="M1554.27,721.993c0,0,6.582,47.973,11.762,52.668c5.18,4.695,29.436,13.201,29.436,13.201
		l-66.946,60.646l-53.29-38.6c0,0,22.33-14.838,23.516-21.526c1.641-9.254-7.042-55.434-7.042-55.434L1554.27,721.993z"/>
	<path style="fill:#0E2549;" d="M1528.626,850.443l-56.033-40.587l1.805-1.2c8.427-5.6,22.087-16.128,22.867-20.536
		c1.574-8.881-6.953-54.434-7.039-54.893c-0.153-0.817,0.384-1.603,1.2-1.756c0.808-0.153,1.604,0.383,1.757,1.201
		c0.356,1.896,8.714,46.558,7.045,55.974c-1.095,6.179-16.739,17.429-22.376,21.305l50.563,36.624l64.183-58.143
		c-6.312-2.296-23.166-8.657-27.577-12.655c-5.315-4.819-11.13-45.477-12.241-53.578c-0.113-0.823,0.463-1.582,1.286-1.695
		c0.82-0.111,1.582,0.462,1.694,1.286c2.517,18.338,7.805,48.605,11.282,51.758c4.063,3.684,15.996,12.933,22.663,15.271
		l3.742,2.904L1528.626,850.443z"/>
	<path style="fill:#FFFFFF;" d="M1532.29,742.362c-17.11,5.082-39.495,5.6-46.607,0.607c-4.17-2.927-8.052-16.713-11.259-32.655
		c-0.093-0.461-8.642-57.472-8.642-57.472l78.111-13.678c0,0,2.861,17.245,5.493,36.685c0.118,0.872,1.146,1.271,1.82,0.706
		c3.714-3.11,9.061-6.057,10.49,1.14c1.781,8.968-5.29,15.978-9.087,18.649c-0.396,0.277-0.605,0.746-0.554,1.225
		c1.478,13.777,2.233,25.783,1.087,30.28c-0.625,2.45-2.253,4.678-4.613,6.672L1532.29,742.362z"/>
	<path style="fill:#0E2549;" d="M1503.625,747.971c-8.049,0-15.059-1.14-18.807-3.771c-4.006-2.812-7.888-13.799-11.869-33.59
		c-0.093-0.462-6.648-44.163-8.654-57.546l-0.218-1.452l81.052-14.193l0.249,1.498c0.028,0.17,2.827,17.078,5.406,36.04
		c3.466-2.767,6.374-3.763,8.646-2.962c1.904,0.67,3.163,2.489,3.742,5.406c1.709,8.602-4.089,16.191-9.609,20.11
		c1.765,16.483,2.104,26.527,1.038,30.708c-0.679,2.658-2.395,5.164-5.101,7.45c-0.634,0.536-1.584,0.457-2.12-0.179
		c-0.536-0.635-0.456-1.584,0.179-2.12c2.218-1.873,3.606-3.856,4.126-5.894c0.663-2.601,1.007-9.873-1.125-29.747
		c-0.11-1.024,0.344-2.028,1.187-2.618c1.064-0.749,10.365-7.604,8.475-17.124c-0.246-1.238-0.756-2.79-1.791-3.154
		c-1.262-0.444-3.544,0.603-6.258,2.875c-0.731,0.613-1.737,0.78-2.628,0.435c-0.889-0.344-1.521-1.146-1.649-2.093
		c-2.156-15.929-4.492-30.536-5.241-35.143l-75.167,13.162c2.974,19.825,8.276,55.154,8.417,55.976
		c4.937,24.535,8.787,30.388,10.643,31.691c6.505,4.566,28.526,4.169,45.314-0.817c0.796-0.236,1.634,0.216,1.871,1.014
		c0.236,0.796-0.218,1.634-1.014,1.87C1524.01,746.391,1513.099,747.971,1503.625,747.971z"/>
	<path style="fill:#0E2549;" d="M1489.188,695.917c-1.041,0-1.968-0.741-2.165-1.802l-0.34-1.828
		c-0.223-1.197,0.567-2.348,1.765-2.57c1.2-0.225,2.349,0.567,2.571,1.765l0.34,1.828c0.223,1.197-0.567,2.348-1.765,2.57
		C1489.457,695.905,1489.321,695.917,1489.188,695.917z"/>
	<path style="fill:#0E2549;" d="M1524.176,690.14c-1.06,0-1.994-0.766-2.173-1.846l-0.303-1.834
		c-0.198-1.201,0.615-2.336,1.816-2.534c1.21-0.197,2.337,0.615,2.535,1.816l0.303,1.834c0.198,1.201-0.615,2.336-1.816,2.534
		C1524.416,690.13,1524.295,690.14,1524.176,690.14z"/>
	<path style="fill:#0E2549;" d="M1515.008,676.681c-0.581,0-1.113-0.386-1.274-0.974c-0.193-0.705,0.221-1.432,0.926-1.626
		c0.438-0.12,10.825-2.92,16.821-0.43c0.675,0.28,0.994,1.055,0.714,1.729c-0.28,0.674-1.054,0.996-1.729,0.714
		c-5.163-2.145-15.008,0.511-15.106,0.538C1515.241,676.666,1515.124,676.681,1515.008,676.681z"/>
	<path style="fill:#FFFFFF;" d="M1493.506,679.141c0,0-6.243-2.124-14.689,3.422L1493.506,679.141z"/>
	<path style="fill:#0E2549;" d="M1478.817,683.887c-0.431,0-0.853-0.21-1.106-0.597c-0.401-0.611-0.231-1.431,0.379-1.832
		c8.885-5.831,15.563-3.664,15.842-3.569c0.692,0.235,1.062,0.987,0.826,1.678c-0.233,0.689-0.98,1.059-1.67,0.829
		c-0.238-0.077-5.812-1.804-13.545,3.273C1479.318,683.816,1479.066,683.887,1478.817,683.887z"/>
	<path style="fill:#0E2549;" d="M1506.74,709.761c-0.021,0-0.044-0.001-0.065-0.001c-1.673-0.064-7.225-0.521-8.413-3.715
		c-0.893-2.402-0.755-3.088,0.934-11.493c0.363-1.807,0.802-3.992,1.325-6.654c0.181-0.917,1.076-1.509,1.983-1.333
		c0.916,0.18,1.514,1.068,1.333,1.984c-0.523,2.668-0.963,4.858-1.327,6.669c-1.637,8.148-1.605,8.233-1.08,9.648
		c0.222,0.594,2.745,1.41,5.376,1.516c0.932,0.037,1.658,0.823,1.622,1.755C1508.392,709.047,1507.644,709.761,1506.74,709.761z"/>
	<path style="fill:#0E2549;" d="M1551.958,696.126c0,0-1.911,2.708-5.936,8.315c-4.646,6.473-57.007,12.545-60.972,11.34
		c-8.738-2.655-7.9-10.05-10.805-8.914c-3.598,1.408,6.954,37.403,11.727,41.888c4.771,4.485,42.724-0.31,62.21-7.978
		C1564.369,734.409,1551.958,696.126,1551.958,696.126z"/>
	<path style="fill:#0E2549;" d="M1544.712,643.197c0,0-55.357,27.057-85.319,11.165c-29.961-15.893,11.793-24.071,37.438-25.919
		C1522.477,626.594,1558.714,625.513,1544.712,643.197z"/>
	<path style="fill:#FFFFFF;" d="M1350.71,876.739c22.511,1.636,126.284-80.055,138.855-79.842
		c1.051,0.018,33.151,3.248,33.889,2.783c7.268-4.587,12.884-4.775,17.127-1.482c16.389-5.044,38.927-13.069,39.966-12.879
		c46.473,8.49,98.654,137.981,101.63,146.856c10.714,31.966-29.205,48.656-29.205,48.656c-0.363,3.597,12.521,94.411,12.521,94.411
		l-146.356,4.805l0,0l-97.88,4.372c0,0,11.066-158.039,7.955-203.893c-1.531-22.563-37.531,95.716-69.838,48.88
		C1319.466,871.547,1333.895,875.517,1350.71,876.739z"/>
	<path style="fill:#0E2549;" d="M1419.604,1086.029l0.12-1.719c0.11-1.579,11.023-158.457,7.955-203.683
		c-0.026-0.382-0.061-0.686-0.098-0.926c-1.772,1.979-5.225,8.339-8.317,14.036c-10.235,18.856-25.703,47.353-42.649,48.256
		c-6.681,0.349-12.897-3.587-18.506-11.718c-26.386-38.253-27.623-47.679-25.03-52.166c2.394-4.143,8.383-3.657,15.319-3.093
		c0.798,0.064,1.607,0.13,2.423,0.189l0,0c0.202,0.015,0.413,0.022,0.631,0.022c13.265,0.001,53.675-27.123,86.249-48.988
		c28.5-19.13,46.288-30.881,51.826-30.881c0.021,0,0.043,0,0.064,0c0.326,0.006,1.96,0.158,6.933,0.626
		c7.839,0.738,23.888,2.23,26.409,2.207c7.11-4.4,13.137-4.964,17.93-1.691c7.609-2.357,16.547-5.346,23.773-7.764
		c14.227-4.759,15.388-5.077,16.186-4.932c19.929,3.641,42.872,28.554,68.193,74.048c19.882,35.722,33.396,70.185,34.617,73.832
		c10.079,30.068-22.955,47.228-29.104,50.123c0.537,7.598,7.611,58.866,12.484,93.216l0.241,1.695l-148.067,4.86L1419.604,1086.029z
		 M1427.983,876.089c0.167,0,0.335,0.019,0.504,0.056c1.997,0.435,2.18,3.126,2.257,4.274c2.908,42.858-6.65,185.07-7.837,202.387
		l96.161-4.295l144.664-4.75c-2.104-14.857-12.644-89.576-12.289-93.086l0.092-0.909l0.844-0.354
		c1.575-0.66,38.474-16.522,28.342-46.75c-1.154-3.442-14.928-38.349-34.39-73.315c-24.416-43.868-47.183-68.923-65.859-72.482
		c-1.342,0.263-8.211,2.561-14.86,4.786c-7.476,2.5-16.779,5.613-24.578,8.013l-0.764,0.235l-0.63-0.49
		c-3.888-3.016-8.912-2.504-15.365,1.568c-0.71,0.446-0.97,0.615-28.038-1.933c-3.414-0.322-6.363-0.599-6.71-0.613
		c-0.012-0.001-0.024-0.001-0.037-0.001c-4.844,0-27.837,15.433-50.076,30.36c-35.244,23.658-75.223,50.473-88.814,49.479
		c-0.824-0.06-1.643-0.127-2.448-0.192c-5.653-0.458-10.99-0.892-12.411,1.568c-2.706,4.682,5.438,20.672,24.899,48.885
		c4.961,7.192,10.275,10.703,15.813,10.394c15.23-0.811,30.807-29.508,40.113-46.653
		C1423.038,880.348,1425.476,876.089,1427.983,876.089z M1580.59,786.847L1580.59,786.847L1580.59,786.847z"/>
	<path style="fill:#E2474B;" d="M1523.446,798.381l-6.858,266.238L1523.446,798.381z"/>
	<path style="fill:#0E2549;" d="M1516.589,1066.063c-0.013,0-0.025,0-0.038,0c-0.797-0.021-1.427-0.684-1.406-1.48l6.858-266.238
		c0.021-0.797,0.697-1.442,1.48-1.406c0.797,0.021,1.427,0.683,1.406,1.48l-6.858,266.238
		C1518.011,1065.44,1517.368,1066.063,1516.589,1066.063z"/>
	<polygon style="fill:#E2474B;" points="1506.881,812.15 1523.565,799.609 1542.459,808.259 1530.621,824.936 1542.549,991.838 
		1520.32,1043.015 1493.72,995.526 1517.72,824.828 	"/>
	<path style="fill:#FFFFFF;" d="M1574.713,871.32c0,0,21.771,48.134,16.771,56.697c-5,8.563-107.732,17.807-107.732,17.807
		l5.593,42.675c0,0,99.85,10.253,154.683-8.968L1574.713,871.32z"/>
	<path style="fill:#0E2549;" d="M1549.034,992.602c-32.945,0-59.323-2.634-59.836-2.687l-1.119-0.115l-5.932-45.26l1.476-0.133
		c0.257-0.023,25.964-2.349,51.944-5.688c48.172-6.192,54.037-10.307,54.687-11.42c3.373-5.775-8.537-37.041-16.837-55.393
		c-0.324-0.716-0.006-1.559,0.71-1.883c0.717-0.322,1.559-0.006,1.884,0.711c2.259,4.995,21.922,49.062,16.702,58.001
		c-0.952,1.629-3.479,5.956-56.789,12.809c-22.469,2.888-44.729,5.018-50.569,5.563l5.253,40.085
		c11.133,1.039,102.146,8.806,152.948-9.003c0.739-0.26,1.554,0.131,1.813,0.872c0.261,0.741-0.13,1.554-0.872,1.813
		C1617.885,990.202,1580.47,992.602,1549.034,992.602z"/>
	<polygon style="fill:#FFFFFF;" points="1523.446,798.381 1555.348,814.955 1593.979,786.413 1573.076,778.123 	"/>
	<polygon style="fill:#FFFFFF;" points="1523.446,798.381 1502.266,817.942 1472.137,805.474 1483.316,792.915 	"/>
	<path style="fill:#0E2549;" d="M1597.052,786.013l-23.983-9.511l-49.878,20.358l-40.431-5.139l-14.555,15.371l32.644,12.608
		l22.703-19.569l31.936,16.591L1597.052,786.013z M1500.177,816.184l-26.564-10.26l10.421-11.004l35.567,4.522L1500.177,816.184z
		 M1527.025,798.545l46.059-18.8l17.821,7.068l-35.697,26.374L1527.025,798.545z"/>
	<polygon style="fill:#FFFFFF;" points="1496.706,851.209 1497.354,860.305 1463.747,862.722 1463.098,853.598 	"/>
	<path style="fill:#0E2549;" d="M1462.354,864.331l-0.862-12.127l36.608-2.602l0.861,12.096L1462.354,864.331z M1464.706,854.992
		l0.435,6.122l30.605-2.202l-0.434-6.096L1464.706,854.992z"/>
	<polygon style="fill:#EBF4FE;" points="1271.413,821.481 1306.31,962.764 1510.107,962.764 1468.848,821.481 	"/>
	<path style="fill:#0E2549;" d="M1512.108,964.264h-206.974l-0.281-1.141l-35.356-143.142h200.476l0.314,1.08L1512.108,964.264z
		 M1307.484,961.264h200.622l-40.384-138.283h-194.394L1307.484,961.264z"/>
	<rect x="1306.491" y="962.764" style="fill:#A1C5E2;" width="264.697" height="13.354"/>
	<path style="fill:#0E2549;" d="M1572.688,977.617h-267.697v-16.354h267.697V977.617z M1307.991,974.617h261.697v-10.354h-261.697
		V974.617z"/>
	<path style="fill:#0E2549;" d="M1391.976,918.955c-9.205,0-17.234-8.614-18.198-19.854c-1.008-11.752,6.084-21.991,15.809-22.825
		c4.769-0.406,9.428,1.465,13.118,5.277c3.609,3.729,5.862,8.887,6.346,14.523l0,0c0.484,5.636-0.858,11.103-3.78,15.392
		c-2.986,4.384-7.258,7.023-12.028,7.433C1392.817,918.938,1392.396,918.955,1391.976,918.955z M1390.861,879.221
		c-0.339,0-0.679,0.015-1.02,0.044c-8.076,0.692-13.942,9.477-13.076,19.58c0.867,10.103,8.12,17.739,16.22,17.067
		c3.854-0.331,7.336-2.509,9.805-6.134c2.534-3.72,3.696-8.495,3.271-13.446l0,0c-0.425-4.95-2.383-9.458-5.514-12.693
		C1397.768,880.766,1394.361,879.221,1390.861,879.221z"/>
	<path style="fill:#FFFFFF;" d="M1348.195,979.301c0,0-3.743-24.784-9.118-26.039c-5.375-1.255-3.647,22.041-4.178,22.152
		c-0.854,0.179-0.406-27.322-5.382-28.903c-4.975-1.581-4.347,25.495-4.826,25.435c-0.707-0.089,0.763-17.419-3.876-21.093
		c-4.639-3.675-2.643,18.8-3.562,18.44c-0.606-0.238,1.536-15.103-3.175-15.896c-2.93-0.493-6.346,16.931-6.346,16.931
		s-1.944,11.099,10.199,13.663C1321.111,984.663,1344.349,990.304,1348.195,979.301z"/>
	<path style="fill:#0E2549;" d="M1333.652,987.43c-4.094,0-9.176-0.578-15.48-1.959l-0.527-0.114
		c-13.308-2.81-11.307-15.143-11.284-15.267c3.683-18.79,6.891-18.245,7.95-18.066c1.02,0.172,1.804,0.719,2.405,1.523
		c0.398-2.356,1.065-3.735,2.171-4.268c0.509-0.244,1.547-0.507,2.795,0.482c1.272,1.008,2.146,2.722,2.751,4.854
		c0.601-4.809,1.549-7.941,3.134-9.061c0.711-0.5,1.557-0.629,2.374-0.371c2.462,0.783,3.809,4.704,4.69,11.611
		c0.472-1.991,1.159-3.507,2.16-4.303c0.76-0.604,1.655-0.805,2.604-0.586c5.841,1.363,9.269,21.154,10.18,27.188l0.052,0.342
		l-0.114,0.326C1348.17,983.599,1344.188,987.43,1333.652,987.43z M1314.058,954.835c-1.248,1.155-3.47,8.184-4.956,15.763
		c-0.062,0.367-1.521,9.784,9.119,12.03l0.548,0.119c15.743,3.447,25.654,2.169,27.993-3.596
		c-1.753-11.376-5.28-23.896-8.002-24.531c-0.107-0.023-0.145-0.016-0.233,0.054c-2.138,1.699-2.118,13.468-2.111,17.336
		c0.007,3.997,0.007,4.51-1.229,4.769l-0.625,0.132l-0.545-0.398c-0.717-0.549-0.768-1.088-1.099-6.747
		c-0.812-13.897-2.084-21.268-3.782-21.911c-0.996,0.632-2.271,4.731-2.807,20.373c-0.145,4.207-0.147,4.287-0.721,4.776
		l-0.469,0.398l-0.622-0.073c-1.396-0.175-1.413-1.073-1.483-4.854c-0.08-4.259-0.268-14.202-3.042-16.496
		c-1.01,1.754-1.035,9.553-1.045,12.588c-0.015,4.596-0.017,5.303-0.855,5.873l-0.607,0.414l-0.737-0.262
		c-1.075-0.421-1.053-1.194-0.968-4.07C1315.99,959.34,1315.411,955.413,1314.058,954.835z"/>
	<path style="fill:#FFFFFF;" d="M1499.717,722.851c-0.928,1.258,0.143,6.102,4.517,5.42c11.218-1.748,20.756-10.819,18.102-9.936
		c-1.04,0.346-8.08,2.752-12.806,3.781C1503.103,723.516,1500.771,721.423,1499.717,722.851z"/>
</g>
<g>
	<polygon style="fill:#D2EBFC;" points="1661.998,1380.23 1702.998,1313.23 1774.998,1346.73 1766.899,1401.23 	"/>
	<path style="fill:#0E2549;" d="M1768.151,1403.011l-108.554-21.731l42.819-69.974l74.229,34.537L1768.151,1403.011z
		 M1664.398,1379.182l101.249,20.269l7.702-51.832l-69.771-32.463L1664.398,1379.182z"/>
	<polygon style="fill:#D2EBFC;" points="1573.579,1381.318 1587.488,1339.384 1685.143,1369.739 1665.878,1407.684 	"/>
	<path style="fill:#0E2549;" d="M1666.655,1409.466l-94.992-27.135l14.865-44.816l100.756,31.319L1666.655,1409.466z
		 M1575.495,1380.306l89.605,25.596l17.9-35.257l-94.553-29.392L1575.495,1380.306z"/>
	<polygon style="fill:#2E6B99;" points="1561.184,1374.354 1783.899,1374.354 1757.227,1612.408 1586.522,1612.919 	"/>
</g>
<path style="fill:#0E2549;" d="M1847.885,1613.978H82.983c-0.829,0-1.5-0.672-1.5-1.5s0.671-1.5,1.5-1.5h1764.901
	c0.828,0,1.5,0.672,1.5,1.5S1848.713,1613.978,1847.885,1613.978z"/>
</svg>
