<?xml version="1.0" encoding="utf-8"?>
<!-- Generator: Adobe Illustrator 27.5.0, SVG Export Plug-In . SVG Version: 6.00 Build 0)  -->
<svg version="1.1" xmlns="http://www.w3.org/2000/svg" xmlns:xlink="http://www.w3.org/1999/xlink" x="0px" y="0px"
	 viewBox="0 0 750 500" style="enable-background:new 0 0 750 500;" xml:space="preserve">
<g id="BACKGROUND">
</g>
<g id="OBJECTS">
	<g>
		<path style="opacity:0.62;fill:#D9DEF3;" d="M650.858,208.869c20.267,18.012,36.478,41.751,38.031,66.406
			c1.289,20.457-7.648,39.502-20.677,54.562c-31.734,36.683-89.533,51.445-142.267,36.334
			c-39.163-18.493-83.713-14.221-123.246-4.886c-39.533,9.335-78.1,23.32-120.041,22.785
			c-63.056-0.806-128.29-37.633-161.681-90.833c-33.392-53.2-33.587-120.17-0.921-166.837
			c32.666-46.668,96.546-71.121,159.843-61.646c53.402,7.993,102.414,37.293,153.82,56.249
			C507.675,148.273,592.235,156.769,650.858,208.869z"/>
		<g>
			<rect x="265.977" y="48.162" style="fill:#D9DEF3;" width="250.21" height="183.876"/>
			<rect x="270.653" y="53.603" style="fill:#FFFFFF;" width="241.143" height="173.45"/>
			<polygon style="opacity:0.62;fill:#D9DEF3;" points="276.278,227.053 276.278,176.73 300.008,176.73 300.008,197.42 
				319.275,197.42 319.275,153.733 338.829,153.733 338.829,184.981 351.717,184.981 351.717,107.797 411.375,107.797 
				411.375,182.729 440.565,182.729 440.565,195.656 466.341,195.656 466.341,139.175 494.923,139.175 494.923,176.73 
				511.797,176.73 511.797,227.053 			"/>
			<g>
				<rect x="270.653" y="59.821" style="fill:#D9DEF3;" width="241.143" height="7.728"/>
				<rect x="270.653" y="73.237" style="fill:#D9DEF3;" width="241.143" height="7.728"/>
				<rect x="270.653" y="86.653" style="fill:#D9DEF3;" width="241.143" height="7.728"/>
				<rect x="270.653" y="100.069" style="fill:#D9DEF3;" width="241.143" height="7.728"/>
				<rect x="270.653" y="113.485" style="fill:#D9DEF3;" width="241.143" height="7.728"/>
				<rect x="270.653" y="126.901" style="fill:#D9DEF3;" width="241.143" height="7.728"/>
				<rect x="270.653" y="140.317" style="fill:#D9DEF3;" width="241.143" height="7.728"/>
				<rect x="270.653" y="153.733" style="fill:#D9DEF3;" width="241.143" height="7.728"/>
			</g>
		</g>
		<g>
			<ellipse style="fill:#C2CEF2;" cx="104.616" cy="421.74" rx="35.949" ry="5.495"/>
			<ellipse style="fill:#072847;" cx="104.276" cy="324.953" rx="27.386" ry="1.921"/>
			<g>
				<path style="fill:none;stroke:#92C5F4;stroke-width:0.7534;stroke-miterlimit:10;" d="M106.961,298.187
					c0,0,21.394-8.934,28.308-86.835"/>
				<g>
					<path style="fill:#92C5F4;" d="M143.775,216.048c-9.231,3.801-10.713,11.707-10.713,11.707s8.031-0.451,12.99-9.116
						C146.921,217.12,145.394,215.381,143.775,216.048z"/>
					<path style="fill:#92C5F4;" d="M124.779,214.219c8.336,5.493,8.283,13.536,8.283,13.536s-7.797-1.975-11.012-11.427
						C121.486,214.671,123.317,213.256,124.779,214.219z"/>
				</g>
				<g>
					<path style="fill:#92C5F4;" d="M141.974,235.914c-9.567,2.855-11.836,10.571-11.836,10.571s8.036,0.358,13.84-7.764
						C144.996,237.297,143.651,235.414,141.974,235.914z"/>
					<path style="fill:#92C5F4;" d="M123.258,232.186c7.742,6.303,6.88,14.3,6.88,14.3s-7.559-2.749-9.808-12.476
						C119.937,232.304,121.9,231.081,123.258,232.186z"/>
				</g>
				<g>
					<path style="fill:#92C5F4;" d="M139.237,252.917c-9.752,2.139-12.585,9.667-12.585,9.667s7.987,0.952,14.377-6.719
						C142.148,254.52,140.947,252.542,139.237,252.917z"/>
					<path style="fill:#92C5F4;" d="M120.848,247.814c7.255,6.859,5.803,14.77,5.803,14.77s-7.335-3.301-8.857-13.167
						C117.527,247.687,119.576,246.611,120.848,247.814z"/>
				</g>
				<path style="fill:#92C5F4;" d="M133.919,196.763c-3.552,9.33,1.194,15.824,1.194,15.824s5.171-6.161,2.253-15.708
					C136.854,195.205,134.541,195.127,133.919,196.763z"/>
			</g>
			<g>
				<path style="fill:#FFB700;" d="M104.276,336.402c0,0-44.743-57.097,0-138.465C104.276,336.402,104.276,336.402,104.276,336.402z
					"/>
				<path style="fill:#B77E00;" d="M104.276,336.402c0,0,44.744-57.097,0-138.465C104.276,336.402,104.276,336.402,104.276,336.402z
					"/>
			</g>
			<g>
				<path style="fill:#FFB700;" d="M110.473,334.392c0,0-14.171-41.9,28.04-79.637C110.473,334.392,110.473,334.392,110.473,334.392
					z"/>
				<path style="fill:#B77E00;" d="M110.473,334.392c0,0,37.296-23.778,28.04-79.637
					C110.473,334.392,110.473,334.392,110.473,334.392z"/>
			</g>
			<g>
				<path style="fill:none;stroke:#92C5F4;stroke-width:0.9428;stroke-miterlimit:10;" d="M121.656,354.414
					c0,0-28.577-4.284-60.649-96.329"/>
				<g>
					<path style="fill:#92C5F4;" d="M52.155,266.349c12.314,1.784,16.512,10.888,16.512,10.888s-9.844,1.9-18.475-7.063
						C48.68,268.603,49.996,266.037,52.155,266.349z"/>
					<path style="fill:#92C5F4;" d="M74.557,258.355c-8.403,9.177-5.889,18.882-5.889,18.882s8.822-4.761,9.83-17.163
						C78.674,257.899,76.03,256.746,74.557,258.355z"/>
				</g>
				<g>
					<path style="fill:#92C5F4;" d="M60.381,289.812c12.431,0.537,17.523,9.173,17.523,9.173s-9.603,2.879-19.091-5.17
						C57.149,292.403,58.201,289.718,60.381,289.812z"/>
					<path style="fill:#92C5F4;" d="M81.865,279.607c-7.438,9.975-3.962,19.378-3.962,19.378s8.299-5.624,8.055-18.064
						C85.916,278.739,83.169,277.858,81.865,279.607z"/>
				</g>
				<g>
					<path style="fill:#92C5F4;" d="M68.865,309.528c12.437-0.384,18.154,7.851,18.154,7.851s-9.363,3.582-19.421-3.743
						C65.834,312.351,66.685,309.595,68.865,309.528z"/>
					<path style="fill:#92C5F4;" d="M89.536,297.761c-6.68,10.498-2.517,19.618-2.517,19.618s7.86-6.223,6.696-18.611
						C93.511,296.596,90.707,295.921,89.536,297.761z"/>
				</g>
				<path style="fill:#92C5F4;" d="M58.197,240.041c7.133,10.195,3.374,19.489,3.374,19.489s-8.125-5.872-7.506-18.299
					C54.174,239.052,56.946,238.254,58.197,240.041z"/>
			</g>
			<path style="fill:#8EBEED;" d="M104.276,326.874c-15.125,0-27.386-0.86-27.386-1.921c0,42.326,12.804,93.803,12.804,93.803
				c0,1.061,6.529,1.921,14.582,1.921c8.053,0,14.582-0.86,14.582-1.921c0,0,12.804-51.478,12.804-93.803
				C131.662,326.014,119.401,326.874,104.276,326.874z"/>
			<path style="fill:#708CC9;" d="M114.058,326.746c-0.56,11.018-2.925,45.903-11.867,93.91c0.683,0.013,1.375,0.022,2.085,0.022
				c8.053,0,14.582-0.86,14.582-1.921c0,0,12.804-51.478,12.804-93.803C131.662,325.772,124.345,326.469,114.058,326.746z"/>
		</g>
		
			<ellipse transform="matrix(0.9465 -0.3227 0.3227 0.9465 -1.4768 198.9589)" style="opacity:0.62;fill:#D9DEF3;" cx="599.272" cy="103.933" rx="37.507" ry="37.507"/>
		<ellipse style="fill:#C2CEF2;" cx="400.735" cy="438.064" rx="305.252" ry="12.857"/>
		<g>
			<path style="fill:#544768;" d="M436.923,371.025h-94.708V222.91c0-7.563,6.131-13.694,13.695-13.694h67.319
				c7.563,0,13.694,6.131,13.694,13.694V371.025z"/>
			<path style="fill:#DCE7F4;" d="M350.499,227.033c0,0-8.507,7.904-11.437,22.261c-2.93,14.357-16.994,61.708-16.994,61.708h42.778
				L350.499,227.033z"/>
			<path style="fill:#DCE7F4;" d="M427.831,227.033c0,0,8.507,7.904,11.437,22.261c2.93,14.357,16.994,61.708,16.994,61.708h-42.778
				L427.831,227.033z"/>
			<path style="fill:#F1F2F7;" d="M389.165,208.22l-38.666,18.813l8.428,103.143c0,0,5.866,2.593,30.238,2.593
				c24.371,0,30.238-2.593,30.238-2.593l8.428-103.143L389.165,208.22z"/>
			<polygon style="fill:#FFB700;" points="394.521,220.81 389.165,217.357 383.809,220.81 386.28,229.901 383.809,287.098 
				389.165,293.916 394.521,287.098 392.049,229.901 			"/>
			<polygon style="fill:#DCE7F4;" points="389.165,217.357 379.166,226.593 381.106,212.141 			"/>
			<path style="fill:#F1F2F7;" d="M327.561,292.184h45.431c0,0,16.348,0.684,16.348,18.818c-45.59,0-67.272,0-67.272,0
				L327.561,292.184z"/>
			<polygon style="fill:#DCE7F4;" points="389.165,217.357 399.164,226.593 397.223,212.141 			"/>
			<path style="fill:#072847;" d="M397.088,212.075l-7.923-3.855l-15.53,7.556C393.449,225.158,396.673,214.102,397.088,212.075z"/>
			<g>
				<path style="fill:#9B3321;" d="M389.165,171.649c-21.558-0.819-13.644,25.378-13.644,25.378l13.644-3.411l13.644,3.411
					C402.809,197.027,410.723,170.83,389.165,171.649z"/>
				<path style="fill:#D86260;" d="M404.694,198.145c0,2.328-1.887,4.214-4.215,4.214c-2.327,0-4.214-1.887-4.214-4.214
					c0-2.328,1.887-4.214,4.214-4.214C402.807,193.931,404.694,195.818,404.694,198.145z"/>
				<circle style="fill:#D86260;" cx="377.85" cy="198.145" r="4.214"/>
				<path style="fill:#F99F8C;" d="M389.165,180.333c-15.742,1.166-12.827,12.244-10.495,24.488
					c2.332,12.244,10.495,12.536,10.495,12.536s8.163-0.291,10.495-12.536C401.992,192.577,404.907,181.499,389.165,180.333z"/>
				<path style="fill:#9B3321;" d="M396.266,201.811c0,0.583-0.473,1.056-1.056,1.056l0,0c-0.583,0-1.056-0.473-1.056-1.056v-1.909
					c0-0.583,0.473-1.056,1.056-1.056l0,0c0.583,0,1.056,0.473,1.056,1.056V201.811z"/>
				<path style="fill:#9B3321;" d="M396.266,180.333c0,0-8.524,14.901-19.069,16.275c-1.949-4.766-0.448-15.545,2.417-17.728
					C382.479,176.697,396.266,180.333,396.266,180.333z"/>
				<path style="fill:none;stroke:#9B3321;stroke-width:0.5458;stroke-linecap:round;stroke-miterlimit:10;" d="M387.337,208.813
					c0,0,1.558,0.415,2.857,0c0-6.285,0-6.285,0-6.285"/>
				<path style="fill:none;stroke:#9B3321;stroke-width:1.0915;stroke-linecap:round;stroke-miterlimit:10;" d="M392.687,196.035
					c0,0,2.073-1.471,5.194,0"/>
				<path style="fill:#9B3321;" d="M382.064,201.811c0,0.583,0.473,1.056,1.056,1.056l0,0c0.583,0,1.056-0.473,1.056-1.056v-1.909
					c0-0.583-0.473-1.056-1.056-1.056l0,0c-0.583,0-1.056,0.473-1.056,1.056V201.811z"/>
				<path style="fill:none;stroke:#9B3321;stroke-width:1.0915;stroke-linecap:round;stroke-miterlimit:10;" d="M385.642,196.035
					c0,0-2.073-1.471-5.194,0"/>
				
					<line style="fill:none;stroke:#9B3321;stroke-width:0.5458;stroke-linecap:round;stroke-miterlimit:10;" x1="387.337" y1="211.763" x2="390.666" y2="211.763"/>
				<path style="opacity:0.3;fill:#FEFEFE;" d="M392.688,171.783c-1.079-0.13-2.245-0.183-3.523-0.135
					c-13.998-0.532-15.568,10.324-14.949,18.005C385.216,186.357,390.742,176.233,392.688,171.783z"/>
				<path style="opacity:0.39;fill:#FFFFFF;" d="M394.385,181.271l-0.232,0.869c0,0,2.795,30.72-4.988,35.216
					c0,0,8.163-0.291,10.495-12.536C401.689,194.165,404.155,184.396,394.385,181.271z"/>
			</g>
			<path style="fill:#F1F2F7;" d="M450.769,292.184h-45.431c0,0-16.348,0.684-16.348,18.818c45.59,0,67.272,0,67.272,0
				L450.769,292.184z"/>
			<polygon style="fill:#8EBEED;" points="396.49,262.453 389.087,262.453 341.056,262.453 348.088,305.064 389.087,305.064 
				394.521,305.064 429.906,305.064 436.923,262.453 			"/>
			<rect x="348.088" y="305.064" style="fill:#708CC9;" width="81.999" height="5.761"/>
			<path style="fill:#FFFFFF;" d="M397.826,289.089c0,2.944-3.71,5.33-8.286,5.33s-8.286-2.386-8.286-5.33
				c0-2.944,3.71-5.331,8.286-5.331S397.826,286.145,397.826,289.089z"/>
			<rect x="341.056" y="260.656" style="fill:#708CC9;" width="95.868" height="1.797"/>
			<g>
				<polygon style="fill:#072847;" points="419.928,323.739 419.402,329.523 436.923,336.421 434.987,363.34 389.569,356.742 
					389.569,323.739 				"/>
				<path style="fill:#072847;" d="M402.936,428.238l4.311-74.787c0.613-10.626,10.661-18.813,22.49-18.322l0.435,0.018
					c11.933,0.495,21.135,9.625,20.505,20.344l-4.275,72.655L402.936,428.238z"/>
				<path style="fill:#708CC9;" d="M446.402,428.145c0,0,7.461,2.726,8.073,10.097c-56.229,0-52.711,0-52.711,0l1.172-10.004
					L446.402,428.145z"/>
				<path style="opacity:0.26;fill:#708CC9;" d="M450.679,354.379c-0.046-10.229-8.992-18.755-20.508-19.232l-0.435-0.018
					c-3.57-0.148-6.972,0.506-10.008,1.767c-2.311,2.759-3.698,6.179-3.698,9.898c0,9.11,8.219,16.495,18.357,16.495
					C441.481,363.289,447.622,359.669,450.679,354.379z"/>
				<path style="fill:#FEFEFE;" d="M443.762,430.716h-25.169c-0.754,0-1.365-0.549-1.365-1.227v-0.025
					c0-0.677,0.611-1.227,1.365-1.227h25.169c0.754,0,1.365,0.549,1.365,1.227v0.025
					C445.127,430.167,444.516,430.716,443.762,430.716z"/>
			</g>
			<g>
				<polygon style="fill:#072847;" points="358.401,323.739 358.901,329.852 342.215,336.421 344.152,363.34 389.569,356.742 
					389.569,323.739 				"/>
				<path style="fill:#072847;" d="M376.203,428.238l-4.311-74.787c-0.612-10.626-10.661-18.813-22.49-18.322l-0.435,0.018
					c-11.933,0.495-21.135,9.625-20.505,20.344l4.275,72.655L376.203,428.238z"/>
				<path style="fill:#708CC9;" d="M332.737,428.145c0,0-7.461,2.726-8.073,10.097c56.229,0,52.711,0,52.711,0l-1.172-10.004
					L332.737,428.145z"/>
				<path style="opacity:0.26;fill:#708CC9;" d="M328.46,354.379c0.046-10.229,8.991-18.755,20.507-19.232l0.435-0.018
					c3.57-0.148,6.972,0.506,10.007,1.767c2.311,2.759,3.698,6.179,3.698,9.898c0,9.11-8.219,16.495-18.357,16.495
					C337.658,363.289,331.517,359.669,328.46,354.379z"/>
				<path style="fill:#FEFEFE;" d="M335.376,430.716h25.169c0.754,0,1.365-0.549,1.365-1.227v-0.025
					c0-0.677-0.611-1.227-1.365-1.227h-25.169c-0.754,0-1.365,0.549-1.365,1.227v0.025
					C334.011,430.167,334.622,430.716,335.376,430.716z"/>
			</g>
			
				<line style="fill:none;stroke:#091255;stroke-width:1.1547;stroke-miterlimit:10;" x1="348.088" y1="305.064" x2="429.906" y2="305.064"/>
			<path style="opacity:0.35;fill:none;stroke:#708CC9;stroke-width:1.172;stroke-miterlimit:10;" d="M430.087,428.145l5.548-76.087
				c0.304-4.175-2.035-8.095-5.854-9.809l-24.11-10.819v-7.692"/>
			<path style="opacity:0.35;fill:none;stroke:#708CC9;stroke-width:1.172;stroke-miterlimit:10;" d="M349.052,428.145
				l-5.548-76.087c-0.304-4.175,2.035-8.095,5.854-9.809l24.11-10.819v-7.692"/>
			
				<line style="fill:none;stroke:#708CC9;stroke-width:1.172;stroke-miterlimit:10;" x1="432.027" y1="292.184" x2="445.713" y2="292.184"/>
			
				<line style="fill:none;stroke:#708CC9;stroke-width:1.172;stroke-miterlimit:10;" x1="345.962" y1="292.184" x2="334.081" y2="292.184"/>
		</g>
		<g>
			
				<rect x="165.577" y="356.09" style="fill:none;stroke:#7396C0;stroke-width:3.2907;stroke-miterlimit:10;" width="62.073" height="77.304"/>
			
				<rect x="186.992" y="356.09" style="fill:none;stroke:#7396C0;stroke-width:3.2907;stroke-miterlimit:10;" width="62.073" height="77.304"/>
			<path style="fill:#544768;" d="M246.275,364.901h-78.794c-12.494,0-23.094-9.174-24.886-21.539l-15.163-104.635
				c-0.927-6.399,4.036-12.133,10.502-12.133h49.057l10.695,116.169l50.687,8.526L246.275,364.901z"/>
		</g>
		<g>
			<path style="fill:#072847;" d="M216.772,427.43l-3.415,10.226h53.448c0,0,0.538-6.578-6.451-10.226
				C238.315,427.43,216.772,427.43,216.772,427.43z"/>
			<path style="fill:#072847;" d="M222.189,321.547l43.768,6.188c7.189,1.016,12.063,7.842,10.692,14.971l-16.294,84.723h-43.583
				l20.11-73.294l-38.515-9.474L222.189,321.547z"/>
			<path style="fill:#5B5D8E;" d="M168.718,338.777c0,0,6.339,22.982,26.68,22.982c20.341,0,39.693,0,39.693,0l19.352,65.671h39.778
				l-28.147-82.621c-3.189-9.359-11.277-16.198-21.036-17.787l-16.039-2.61l-26.249-2.865L168.718,338.777z"/>
			<path style="fill:#072847;" d="M254.442,427.43l3.225,10.226h50.529c0,0-4.838-10.226-13.976-10.226
				C285.082,427.43,254.442,427.43,254.442,427.43z"/>
			<polygon style="fill:#708CC9;" points="212.497,217.712 236.882,229.09 228.998,324.412 202.749,321.547 168.793,340.899 
				164.808,229.09 195.398,214.506 			"/>
			<path style="fill:#5B5D8E;" d="M212.497,274.464c0,0,13.403-11.402,12.213-51.054c-12.213-5.698-12.213-5.698-12.213-5.698
				V274.464z"/>
			<path style="fill:#5B5D8E;" d="M212.497,274.464c0,0-30.146-15.912-31.048-53.308c13.948-6.65,13.948-6.65,13.948-6.65
				L212.497,274.464z"/>
			<path style="fill:#FEFEFE;" d="M195.398,214.506l1.631,17.809c0,0,4.342,30.544,15.468,42.149
				c3.958-27.815,3.087-45.374,3.087-45.374l-3.087-11.377L195.398,214.506z"/>
			<g>
				<polygon style="fill:#F99F8C;" points="211.191,208.806 212.497,217.712 207.51,221.156 195.398,214.506 193.002,197.169 
					197.943,195.938 				"/>
				<path style="fill:#6D3E3B;" d="M197.029,202.081l6.584-0.636l7.578,7.361l1.306,8.906
					C199.157,214.553,197.029,202.081,197.029,202.081z"/>
				<path style="fill:#072847;" d="M213.566,184.107c0,0,3.325-2.494,2.019-7.719c-1.306-5.225-6.171-5.929-10.034-4.037
					c-4.287,2.099-14.26,6.167-15.259,6.412c-2.335,0.574-5.283,15.642,6.739,23.317c0.385-3.843,2.404-14.411,2.404-14.411
					l2.019-4.416L213.566,184.107z"/>
				<path style="fill:#FF9588;" d="M188.193,193.785c0,2.656,2.153,4.809,4.809,4.809c2.656,0,4.809-2.153,4.809-4.809
					c0-2.656-2.153-4.809-4.809-4.809C190.346,188.976,188.193,191.129,188.193,193.785z"/>
				<path style="fill:#FF9588;" d="M196.893,183.201c0,0,7.172-6.413,15.643-1.84c6.849,3.697,7.361,28.832,7.361,28.832
					s-16.256,6.441-21.164-3.987c-4.908-10.429-4.908-20.857-4.908-20.857L196.893,183.201z"/>
				<path style="fill:#072847;" d="M207.937,197.646c4.348-0.913,8.417-0.903,10.802-0.776c1.024,6.856,1.158,13.323,1.158,13.323
					s-16.256,6.441-21.164-3.987c-4.908-10.429-4.908-20.857-4.908-20.857l2.992-2.094c0.023,3.289,0.609,6.188,1.543,8.938
					C199.706,196.153,203.843,198.505,207.937,197.646z"/>
				<path style="fill:#091255;" d="M205.253,191.173c0,0.623,0.505,1.128,1.128,1.128l0,0c0.623,0,1.128-0.505,1.128-1.128v-1.069
					c0-0.623-0.505-1.128-1.128-1.128l0,0c-0.623,0-1.128,0.505-1.128,1.128V191.173z"/>
				<path style="fill:#091255;" d="M216.772,191.707c0,0.328-0.266,0.594-0.594,0.594l0,0c-0.328,0-0.594-0.266-0.594-0.594v-2.137
					c0-0.328,0.266-0.594,0.594-0.594l0,0c0.328,0,0.594,0.266,0.594,0.594V191.707z"/>
				<path style="fill:none;stroke:#091255;stroke-width:1.1991;stroke-linecap:round;stroke-miterlimit:10;" d="M208.816,186.72
					c0,0-3.681-1.9-6.531,0.95"/>
				<path style="fill:none;stroke:#091255;stroke-width:1.1991;stroke-linecap:round;stroke-miterlimit:10;" d="M214.516,186.885
					c0,0,0.356-0.31,2.256,0"/>
				<path style="opacity:0.52;fill:#FFFFFF;" d="M205.55,172.352c3.859-1.9,8.728-1.187,10.034,4.037
					c0.845,3.379-0.246,5.609-1.123,6.768c5.02,6.845,5.436,27.036,5.436,27.036s-3.248,1.284-7.276,1.776
					c-8.066-2.884-13.147-21.871-11.167-31.37c-1.641-1.536-2.563-3.415-3.086-5.075C201.093,174.385,203.84,173.193,205.55,172.352
					z"/>
			</g>
			<path style="fill:#FEFEFE;" d="M216.772,199.47l-6.83,0.641C209.942,200.112,215.067,203.703,216.772,199.47z"/>
			<polygon style="fill:#DCE7F4;" points="207.51,221.156 197.029,232.315 195.398,214.506 			"/>
			<polygon style="fill:#DCE7F4;" points="207.51,221.156 215.584,229.09 212.497,217.712 			"/>
			<path style="fill:#5B5D8E;" d="M236.882,229.09c0,0,7.539,2.331,8.711,12.293c1.172,9.962,8.849,53.037,8.849,53.037h23.253
				c8.776,0,16.88,4.702,21.235,12.322l2.334,4.084h-71.141L236.882,229.09z"/>
			<path style="fill:#FFB700;" d="M212.497,274.464c0.87-6.116,1.507-11.735,1.971-16.782l-4.526-27.441l1.605-5.118l-4.037-3.967
				l-4.76,5.068l2.782,4.323v32.754C207.474,267.67,209.782,271.633,212.497,274.464z"/>
			<path style="fill:#FEFEFE;" d="M294.22,429.477c0,0.684-0.555,1.239-1.239,1.239h-24.927c-0.684,0-1.239-0.555-1.239-1.239l0,0
				c0-0.684,0.555-1.239,1.239-1.239h24.927C293.665,428.238,294.22,428.793,294.22,429.477L294.22,429.477z"/>
			<rect x="175.681" y="269.017" style="fill:#5B5D8E;" width="19.717" height="3.979"/>
			
				<line style="fill:none;stroke:#091255;stroke-width:1.1547;stroke-miterlimit:10;" x1="254.442" y1="294.42" x2="240.086" y2="294.42"/>
			<path style="fill:#FF9588;" d="M298.929,306.742c-4.355-7.62-12.458-12.322-21.235-12.322h-6.657
				c-1.409,3.507-2.839,9.08-2.228,16.406h32.454L298.929,306.742z"/>
			
				<line style="fill:none;stroke:#CE455F;stroke-width:1.172;stroke-linecap:round;stroke-miterlimit:10;" x1="190.872" y1="193.169" x2="194.752" y2="195.312"/>
			<path style="fill:#072847;" d="M168.793,340.899c0,0,4.655,8.509,6.888,10.997c27.068-30.348,27.068-30.348,27.068-30.348
				L168.793,340.899z"/>
			<path style="opacity:0.6;fill:#072847;" d="M268.642,352.352l-2.569-7.542c-3.188-9.359-11.277-16.198-21.036-17.787
				l-4.386-0.714c-2.358,3.196-3.769,7.133-3.769,11.409c0,10.637,8.623,19.259,19.259,19.259
				C260.916,356.977,265.277,355.229,268.642,352.352z"/>
			<g>
				<g>
					<rect x="217.258" y="304.362" style="fill:#FFFFFF;" width="32.909" height="6.64"/>
					<rect x="250.167" y="304.362" style="fill:#AEDCFF;" width="51.095" height="6.64"/>
					<polygon style="fill:#8EBEED;" points="268.931,258.175 320.026,258.175 301.262,304.362 250.167,304.362 					"/>
				</g>
				
					<line style="fill:none;stroke:#091255;stroke-width:1.1547;stroke-miterlimit:10;" x1="268.931" y1="258.175" x2="250.167" y2="304.362"/>
				<path style="fill:#7396C0;" d="M288.064,277.806c-3.002,3.031-3.848,7.061-1.889,9.002c1.959,1.94,5.981,1.056,8.983-1.975
					c3.002-3.031,3.848-7.061,1.889-9.002C295.088,273.89,291.066,274.774,288.064,277.806z"/>
				<rect x="231.832" y="306.096" style="fill:#AEDCFF;" width="12.306" height="2.93"/>
			</g>
			<path style="fill:#5B5D8E;" d="M164.808,229.09c0,0-10.63,3.073-14.146,18.524c-2.479,10.893-5.831,37.934-7.594,52.939
				c-0.654,5.564,3.693,10.449,9.296,10.449h70.961c0,0-4.82-16.582-20.576-16.582s-35.693,0-35.693,0L164.808,229.09z"/>
			<path style="fill:#FF9588;" d="M187.443,311.002h35.882c0,0-4.82-16.582-20.576-16.582c-2.383,0-4.861,0-7.352,0
				C195.398,294.42,188.789,297.878,187.443,311.002z"/>
			
				<line style="fill:none;stroke:#091255;stroke-width:1.1547;stroke-miterlimit:10;" x1="167.057" y1="294.42" x2="155.374" y2="294.42"/>
			<path style="fill:none;stroke:#CE455F;stroke-width:1.172;stroke-linecap:round;stroke-miterlimit:10;" d="M204.763,301.593
				c0,0,7.734,1.952,7.734,9.409"/>
		</g>
		<g>
			
				<rect x="554.511" y="354.089" style="fill:none;stroke:#7396C0;stroke-width:3.3759;stroke-miterlimit:10;" width="63.68" height="79.305"/>
			
				<rect x="532.542" y="354.089" style="fill:none;stroke:#7396C0;stroke-width:3.3759;stroke-miterlimit:10;" width="63.68" height="79.305"/>
			<path style="fill:#544768;" d="M535.404,363.128h80.834c12.818,0,23.691-9.411,25.53-22.097l15.556-107.343
				c0.951-6.565-4.14-12.447-10.773-12.447h-41.753l-19.546,119.176l-51.999,8.746L535.404,363.128z"/>
		</g>
		<g>
			<path style="fill:#D86260;" d="M502.531,317.106h2.845h31.719c0,0,21.5,21.008,8.784,35.965h-16.574l16.243,62.974l0,0
				l5.575,21.612h-52.288c0,0,2.591-10.318,13.5-10.318l-22.32-94.412C488.106,324.849,494.232,317.106,502.531,317.106z"/>
			<path style="fill:#072847;" d="M498.927,437.656c0,0,2.582-10.282,13.453-10.282c0,0,17.803,1.34,33.098-11.255l5.555,21.537
				H498.927z"/>
			<path style="fill:#F99F8C;" d="M553.002,357.725h-15.662l20.618,79.931h-49.411c0,0,2.448-9.75,12.757-9.75l-21.092-89.218
				c-1.804-7.632,3.985-14.95,11.828-14.95h32.662C544.701,323.739,565.018,343.591,553.002,357.725z"/>
			<path style="fill:#072847;" d="M621.429,315.136l-3.024,19.935c-1.979,13.043-12.854,22.655-25.632,22.655H542.05
				c0,0,1.198-40.769-24.855-40.769c91.709,0,104.234,0,104.234,0"/>
			<path style="fill:#F99F8C;" d="M587.014,227.033c0,0-11.334,1.763-16.875,27.705c-5.541,25.942-10.326,43.068-10.326,43.068
				H532.01c-8.077,0-15.078,5.589-16.868,13.465l-0.031,0.136h62.513l6.62-22.164l5.793-48.609L587.014,227.033z"/>
			<path style="opacity:0.58;fill:#DD7D76;" d="M584.243,289.243l-6.498,21.755l-0.001,0.004c0,0,3.182-16.879-0.459-29.873
				c-3.641-12.994,9.728-54.096,9.728-54.096l1.344,27.687L584.243,289.243z"/>
			<path style="fill:#FFB700;" d="M601.438,221.24l-14.425,5.793c0,0-8.947,28.443-4.525,44.65
				c1.025,3.758,1.163,7.706,0.459,11.537c-5.246,28.52-6.764,35.239-6.764,35.239h44.828l20.656-82.882l-26.949-14.337H601.438z"/>
			<path style="fill:#B77E00;" d="M621.012,318.459h-3.509h-3.291c0.782-16.891,14.9-69.91,14.9-69.91l7.435-3.363l1.626,4.422
				L621.012,318.459z"/>
			<path style="fill:#F99F8C;" d="M641.668,235.577c0,0,3.526-0.485,6.297,10.345c2.03,7.936,7.983,39.408,11.019,55.658
				c0.955,5.11-2.968,9.826-8.166,9.826h-65.566c0,0,3.526-16.119,17.63-16.119c14.104,0,34.253,0,34.253,0l-8.059-40.802
				C629.075,254.486,626.556,236.817,641.668,235.577z"/>
			<path style="fill:#708CC9;" d="M508.546,437.656c0,0,2.448-9.75,12.757-9.75c0,0,16.882,1.271,31.386-10.672l5.268,20.423
				H508.546z"/>
			<path style="opacity:0.65;fill:#DD7D76;" d="M512.039,323.739h2.688c1.449,2.515,2.291,5.424,2.291,8.535
				c0,8.507-6.204,15.546-14.33,16.888l-2.476-10.474C498.407,331.056,504.196,323.739,512.039,323.739z"/>
			<path style="opacity:0.24;fill:#DD7D76;" d="M644.608,308.811c0-7.543,5.679-13.751,12.992-14.605
				c0.503,2.672,0.97,5.167,1.383,7.375c0.955,5.11-2.968,9.826-8.166,9.826h-5.966C644.7,310.563,644.608,309.698,644.608,308.811z
				"/>
			<path style="fill:none;stroke:#CE455F;stroke-width:1.172;stroke-linecap:round;stroke-miterlimit:10;" d="M593.925,311.002
				c0,0,2.361-8.195,8.429-8.195"/>
			<path style="fill:#B77E00;" d="M581.63,290.345c0.411-2.211,0.848-4.577,1.317-7.126c0.593-3.221,0.581-6.525-0.045-9.729
				c0.001,0.003,4.154,12.162,12.227,14.992C602.128,290.936,586.53,290.109,581.63,290.345z"/>
			
				<line style="fill:none;stroke:#CE455F;stroke-width:1.172;stroke-linecap:round;stroke-miterlimit:10;" x1="637.134" y1="295.288" x2="644.608" y2="295.288"/>
			
				<line style="fill:none;stroke:#CE455F;stroke-width:1.015;stroke-linecap:round;stroke-miterlimit:10;" x1="559.813" y1="297.806" x2="568.952" y2="297.806"/>
			<path style="opacity:0.65;fill:#DD7D76;" d="M537.339,357.725l20.618,79.931h-15.586
				C525.566,378.08,537.339,357.725,537.339,357.725z"/>
			<path style="fill:#F99F8C;" d="M625.607,227.033c0.14-0.202-4.383,5.893-8.701,13.24c-3.549,6.04-15.474,6.678-20.572,0.581
				c-5.098-6.097-1.389-17.006-1.389-17.006l6.263-2.608h13.51L625.607,227.033z"/>
			<g>
				<circle style="fill:#5B71AA;" cx="626.642" cy="179.053" r="11.923"/>
				<path style="opacity:0.39;fill:#FFFFFF;" d="M638.565,179.053c0-6.458-5.138-11.704-11.547-11.904
					c-0.237,0.937-0.376,1.912-0.376,2.923c0,6.458,5.138,11.704,11.547,11.904C638.426,181.039,638.565,180.063,638.565,179.053z"
					/>
				<path style="fill:#072847;" d="M627.371,181.927c0,2.699-2.188,4.887-4.887,4.887s-4.887-2.188-4.887-4.887
					c0-2.699,2.188-4.887,4.887-4.887S627.371,179.228,627.371,181.927z"/>
				<path style="fill:#5B71AA;" d="M596.334,186.814c0,0,3.335-7.917,13.879-8.226c7.908-0.232,14.43,2.502,16.08,10.611
					c1.257,6.178-1.195,12.549-6.017,16.611c-4.138,3.486-8.761,6.371-8.761,6.371L596.334,186.814z"/>
				<path style="fill:#F99F8C;" d="M602.629,210.662l-2.015,15.364c0,0-0.252,4.533,2.015,5.793
					c8.563-2.771,12.089-10.578,12.089-10.578v-16.623L602.629,210.662z"/>
				<path style="fill:#6D3E3B;" d="M602.629,210.662l12.089-6.045v4.295l-0.281,0.703c0,0-6.383,8.632-13,10.129L602.629,210.662z"
					/>
				<path style="fill:#F99F8C;" d="M596.334,186.814c0,0-2.642,17.28-0.639,26.086c0.291,1.278,1.433,2.185,2.743,2.204
					c12.558,0.19,21.295-7.285,20.554-17.319C609.617,194.622,599.85,191.117,596.334,186.814z"/>
				<path style="fill:none;stroke:#006488;stroke-width:1.172;stroke-linecap:round;stroke-miterlimit:10;" d="M599.91,194.573
					c0,0,2.642-1.057,4.887,0.528"/>
				<path style="fill:#5B71AA;" d="M614.181,194.664c0,0,1.692,4.423,1.241,8.263c4.167-1.118,5.59-6.167,5.59-6.167
					L614.181,194.664z"/>
				<path style="fill:#FF9588;" d="M614.438,204.617c0,2.54,2.059,4.598,4.598,4.598c2.54,0,4.598-2.059,4.598-4.598
					c0-2.54-2.059-4.598-4.598-4.598C616.497,200.019,614.438,202.077,614.438,204.617z"/>
				
					<line style="fill:none;stroke:#CE455F;stroke-width:1.172;stroke-linecap:round;stroke-miterlimit:10;" x1="619.037" y1="204.617" x2="616.636" y2="207.005"/>
				<path style="fill:#006488;" d="M600.371,199.06c-0.147,0.968,0.108,1.811,0.571,1.881c0.462,0.07,0.957-0.658,1.104-1.626
					s-0.108-1.811-0.571-1.881C601.013,197.364,600.518,198.092,600.371,199.06z"/>
				<path style="opacity:0.39;fill:#FFFFFF;" d="M595.696,212.9c-2.003-8.806,0.639-26.086,0.639-26.086s1.134-2.564,3.847-4.82
					c2.392,3.202,9.107,13.263,5.386,20.933c-2.749,5.665-4.093,9.776-4.723,12.115c-0.784,0.052-1.586,0.074-2.405,0.062
					C597.128,215.085,595.986,214.178,595.696,212.9z"/>
				<path style="fill:#FEFEFE;" d="M594.992,206.743l4.279,1.272C599.272,208.016,596.409,210.583,594.992,206.743z"/>
				<path style="fill:#CE455F;" d="M597.01,204.617l-2.06-0.8C594.951,203.817,595.057,205.417,597.01,204.617z"/>
			</g>
		</g>
		<g>
			<polygon style="fill:#FEFEFE;" points="629.421,281.379 605.392,281.379 607.737,311.797 627.075,311.797 			"/>
			<rect x="602.852" y="279.823" style="fill:#072847;" width="29.108" height="3.567"/>
			<rect x="605.392" y="276.614" style="fill:#5B71AA;" width="24.029" height="3.209"/>
			<polygon style="fill:#FFB700;" points="628.084,298.709 628.652,291.341 606.16,291.341 606.728,298.709 			"/>
		</g>
		<rect x="95.483" y="311.002" style="fill:#92C5F4;" width="593.922" height="7.457"/>
		<g>
			<rect x="526.228" y="304.888" style="fill:#FFFFFF;" width="56.566" height="6.639"/>
			<rect x="473.281" y="304.888" style="fill:#AEDCFF;" width="52.948" height="6.639"/>
			<polygon style="fill:#8EBEED;" points="457.993,262.453 510.94,262.453 526.228,304.888 473.281,304.888 			"/>
			
				<line style="fill:none;stroke:#091255;stroke-width:1.1547;stroke-miterlimit:10;" x1="510.94" y1="262.453" x2="526.228" y2="304.888"/>
			<path style="fill:#FFFFFF;" d="M493.787,278.331c3.003,3.031,3.848,7.061,1.889,9.002c-1.959,1.94-5.981,1.056-8.983-1.975
				c-3.002-3.031-3.848-7.061-1.889-9.002C486.763,274.416,490.785,275.3,493.787,278.331z"/>
			<rect x="535.608" y="306.777" style="fill:#AEDCFF;" width="9.484" height="2.78"/>
			<rect x="548.853" y="306.777" style="fill:#AEDCFF;" width="9.484" height="2.78"/>
		</g>
		<rect x="623.635" y="318.459" style="fill:#92C5F4;" width="11.304" height="127.436"/>
		<rect x="623.635" y="318.459" style="fill:#7396C0;" width="11.304" height="12.581"/>
		
			<line style="fill:none;stroke:#FF9588;stroke-width:0.6932;stroke-linecap:round;stroke-miterlimit:10;" x1="24.326" y1="198.865" x2="20.847" y2="198.865"/>
	</g>
</g>
</svg>
