<?xml version="1.0" encoding="utf-8"?>
<!-- Generator: Adobe Illustrator 27.5.0, SVG Export Plug-In . SVG Version: 6.00 Build 0)  -->
<svg version="1.1" xmlns="http://www.w3.org/2000/svg" xmlns:xlink="http://www.w3.org/1999/xlink" x="0px" y="0px"
	 viewBox="0 0 750 500" style="enable-background:new 0 0 750 500;" xml:space="preserve">
<g id="BACKGROUND">
	<g>
		<g>
			<g>
				<rect y="-1" style="fill:transparent;" width="750" height="500"/>
			</g>
		</g>
	</g>
</g>
<g id="OBJECTS">
	<g>
		<path style="fill:#E8F4FF;" d="M150.665,131c0,0,50.19-43.916,111.881-23.004s109.79,116.063,169.39,119.2
			c59.6,3.137,115.018-29.277,162.07-1.046c47.053,28.232,55.418,150.569-34.505,163.116
			c-89.923,12.547-140.112-32.414-178.8-30.323c-38.688,2.091-132.793,49.144-207.032,28.232S32.511,221.968,150.665,131z"/>
		<g>
			<g>
				<g style="opacity:0.46;">
					<path style="fill:#BFD9FF;" d="M485.999,138.178H271.457c-2.255,0-3.902-2.131-3.334-4.313l20.028-76.95
						c0.395-1.518,1.766-2.578,3.334-2.578h214.542c2.255,0,3.902,2.131,3.334,4.313l-20.028,76.95
						C488.938,137.118,487.568,138.178,485.999,138.178z"/>
					<g>
						
							<line style="fill:none;stroke:#A9C2FF;stroke-width:3.4455;stroke-linecap:round;stroke-linejoin:round;stroke-miterlimit:10;" x1="300.882" y1="70.799" x2="375.534" y2="70.799"/>
						
							<line style="fill:none;stroke:#A9C2FF;stroke-width:3.4455;stroke-linecap:round;stroke-linejoin:round;stroke-miterlimit:10;" x1="295.139" y1="105.254" x2="369.792" y2="105.254"/>
						
							<line style="fill:none;stroke:#A9C2FF;stroke-width:3.4455;stroke-linecap:round;stroke-linejoin:round;stroke-miterlimit:10;" x1="326.531" y1="92.238" x2="401.185" y2="92.238"/>
						
							<line style="fill:none;stroke:#A9C2FF;stroke-width:3.4455;stroke-linecap:round;stroke-linejoin:round;stroke-miterlimit:10;" x1="298.967" y1="82.284" x2="321.363" y2="82.284"/>
						
							<line style="fill:none;stroke:#A9C2FF;stroke-width:3.4455;stroke-linecap:round;stroke-linejoin:round;stroke-miterlimit:10;" x1="295.905" y1="92.238" x2="318.301" y2="92.238"/>
						
							<line style="fill:none;stroke:#A9C2FF;stroke-width:3.4455;stroke-linecap:round;stroke-linejoin:round;stroke-miterlimit:10;" x1="387.402" y1="70.799" x2="414.01" y2="70.799"/>
						<path style="fill:none;stroke:#84AEE5;stroke-width:1.1485;stroke-miterlimit:10;" d="M400.44,121.418h-39.732
							c-0.2,0-0.346-0.189-0.296-0.383l1.778-6.832c0.035-0.135,0.157-0.229,0.296-0.229h39.732c0.2,0,0.346,0.189,0.296,0.383
							l-1.778,6.832C400.701,121.324,400.579,121.418,400.44,121.418z"/>
						<path style="fill:none;stroke:#84AEE5;stroke-width:1.1485;stroke-miterlimit:10;" d="M351.054,121.418h-39.732
							c-0.2,0-0.346-0.189-0.296-0.383l1.778-6.832c0.035-0.135,0.157-0.229,0.296-0.229h39.732c0.2,0,0.346,0.189,0.296,0.383
							l-1.778,6.832C351.315,121.324,351.194,121.418,351.054,121.418z"/>
					</g>
					<path style="fill:#8DBCF8;" d="M470.272,111.512c-2.036-2.713-10.299-4.686-12.582-7.398c-1.166-1.386-1.166-3.961-0.888-6.15
						c0.813-0.518,1.488-1.038,1.89-1.521c0.686-1.002,1.46-2.403,2.234-3.94c0.234,0.229,0.547,0.408,0.951,0.396
						c1.084-0.032,5.214-5.653,4.149-6.956c-0.609-0.745-1.592-0.099-2.323,0.591c1.093-2.503,1.862-4.422,1.862-4.422h-0.042
						c0.104-0.316,0.199-0.633,0.28-0.955c1.638-6.572-2.36-11.899-8.932-11.899c-6.571,0-13.227,5.327-14.865,11.899
						c-0.08,0.322-0.143,0.64-0.197,0.955h-0.042c0,0-0.188,1.919-0.343,4.422c-0.387-0.69-1.048-1.336-2.028-0.591
						c-1.715,1.303-0.388,6.924,0.681,6.956c0.398,0.012,0.8-0.167,1.148-0.396c0.009,1.537,0.084,2.938,0.27,3.94
						c0.197,0.59,0.773,1.236,1.522,1.867c-0.818,2.109-2.063,4.491-3.823,5.804c-3.635,2.713-12.882,4.685-16.271,7.398
						c-3.048,2.44-5.768,9.566-6.284,10.974h54.444C471.27,121.078,472.104,113.952,470.272,111.512z"/>
				</g>
				<g>
					<g>
						<path style="fill:none;stroke:#7094D8;stroke-width:1.1485;stroke-miterlimit:10;" d="M448.673,199.432H234.131
							c-2.255,0-3.902-2.131-3.335-4.313l20.028-76.95c0.395-1.518,1.766-2.578,3.334-2.578h214.542
							c2.255,0,3.902,2.131,3.335,4.313l-20.028,76.95C451.612,198.372,450.241,199.432,448.673,199.432z"/>
						<path style="fill:#A5C5FF;" d="M444.653,193.689H230.111c-2.255,0-3.902-2.131-3.334-4.313l20.028-76.95
							c0.395-1.518,1.766-2.578,3.334-2.578h214.542c2.255,0,3.903,2.131,3.335,4.313l-20.028,76.95
							C447.592,192.63,446.221,193.689,444.653,193.689z"/>
						
							<line style="fill:none;stroke:#7094D8;stroke-width:1.1485;stroke-miterlimit:10;" x1="297.436" y1="193.689" x2="404.822" y2="193.689"/>
						
							<line style="fill:none;stroke:#7094D8;stroke-width:1.1485;stroke-miterlimit:10;" x1="267.575" y1="109.848" x2="358.307" y2="109.848"/>
					</g>
					<g>
						<path style="fill:#B7DEFF;" d="M427.332,182.204h-48.237c-2.22,0-3.571-1.8-3.017-4.02l12.17-48.812
							c0.553-2.22,2.802-4.02,5.022-4.02h48.237c2.22,0,3.571,1.8,3.017,4.02l-12.17,48.812
							C431.801,180.404,429.552,182.204,427.332,182.204z"/>
						<g>
							<path style="fill:#023F61;" d="M403.659,182.395l4.221-16.931l-6.921-2.93c0,0-12.898,4.721-13.996,5.861
								c-0.921,0.955-5.552,10.831-7.026,14H403.659z"/>
							<path style="fill:#023F61;" d="M427.543,182.395c0.107-3.169,0.4-13.045-0.044-14c-0.53-1.14-11.074-5.861-11.074-5.861
								l-8.382,2.93l-4.221,16.931H427.543z"/>
							<polygon style="fill:#BEBECF;" points="408.025,182.395 414.637,167.744 400.434,168.558 399.045,182.395 							"/>
							<polygon style="fill:#DEE0E8;" points="403.521,159.441 400.429,161.395 398.398,166.279 397.873,172.953 402.227,171.163 
								405.607,175.232 410.122,171.488 412.892,174.093 417.078,165.139 416.341,159.604 414.591,158.79 							"/>
							<g>
								<path style="fill:#FB8E74;" d="M404.472,146.625c0,0-1.039-2.361-3.169-0.79c-2.13,1.57,0.363,7.635,1.906,5.81
									C404.752,149.82,404.472,146.625,404.472,146.625z"/>
								<path style="fill:#FB8E74;" d="M419.651,146.499c0,0,2.024-2.502,3.552-1.1c1.527,1.402-3.494,7.812-4.319,6.097
									C418.059,149.781,419.651,146.499,419.651,146.499z"/>
								<g>
									<path style="fill:#FB8877;" d="M414.906,164.169l2.179-11.558l-12.611,1.093l-2.784,10.855c0,0,2.205,5.138,4.567,7.417
										C406.256,171.977,413.591,165.641,414.906,164.169z"/>
								</g>
								<path style="fill:#713336;" d="M425.133,141.833c-0.469,1.406-1.628,1.757-1.714,2.577c-0.085,0.82-0.611,2.928-1.411,3.748
									c-0.8,0.82-1.215,1.054-1.215,1.054s-10.82,3.046-16.314-1.172c0,0-0.36-1.601,0.017-3.514
									c0.373-1.894-0.546-2.226,0.521-3.163c1.067-0.937,1.39-1.757,1.415-2.811c0.025-1.054,0.108-2.343,1.204-3.397
									c1.096-1.054,2.079-0.703,3.146-1.64c0,0,1.578-2.649,3.662-2.95c2.084-0.301,6.478-1.406,9.091,1.808
									c2.614,3.214,1.41,6.027,2.164,7.031C426.455,140.41,425.133,141.833,425.133,141.833z"/>
								<path style="fill:#FBA990;" d="M404.387,144.635c0,0-5.105,14.063,4.51,15.117c8.496,0.197,11.513-10.171,12.729-15.488
									c1.216-5.317,0.465-10.884-6.336-10.702C408.489,133.744,405.135,141.485,404.387,144.635z"/>
								<path style="fill:#713336;" d="M407.057,139.591c0,0,0.629,1.127,0.046,2.264c-0.583,1.137-2.165,1.574-2.402,3.074
									c-0.237,1.5-0.931,4.62-1.356,4.756c-0.425,0.137-0.124-3.046-0.053-4.137c0.072-1.091,0.885-5.602,3.153-8.467
									c2.268-2.865,3.669-4.075,7.707-4.732c4.037-0.657,7.098,1.042,8.221,3.506c1.124,2.464-0.674,8.739-0.674,8.739
									s0.269-2.983-0.73-3.682c-0.999-0.7-1.825-1.218-1.659-1.627c0.165-0.409-3.196,1.074-6.555-0.006
									c-3.36-1.08-4.446-0.589-5.005-0.243C407.191,139.381,407.057,139.591,407.057,139.591z"/>
							</g>
							<path style="fill:none;stroke:#022755;stroke-width:0.4884;stroke-miterlimit:10;" d="M397.543,166.442
								c-0.081,0.326-4.693,11.314-4.693,11.314l4.051,2.035l-1.138,2.279"/>
							<path style="fill:none;stroke:#022755;stroke-width:0.4884;stroke-miterlimit:10;" d="M417.486,166.442
								c-0.081,0.326-0.949,11.314-0.949,11.314l-5.066,2.035l0.001,2.279"/>
						</g>
					</g>
					<path style="fill:none;stroke:#FFFFFF;stroke-width:1.1485;stroke-miterlimit:10;" d="M427.332,182.204h-48.237
						c-2.22,0-3.571-1.8-3.017-4.02l12.17-48.812c0.553-2.22,2.802-4.02,5.022-4.02h48.237c2.22,0,3.571,1.8,3.017,4.02
						l-12.17,48.812C431.801,180.404,429.552,182.204,427.332,182.204z"/>
					
						<line style="fill:none;stroke:#73A5FF;stroke-width:3.4455;stroke-linecap:round;stroke-linejoin:round;stroke-miterlimit:10;" x1="259.535" y1="128.224" x2="334.188" y2="128.224"/>
					
						<line style="fill:none;stroke:#73A5FF;stroke-width:3.4455;stroke-linecap:round;stroke-linejoin:round;stroke-miterlimit:10;" x1="253.793" y1="162.679" x2="328.446" y2="162.679"/>
					
						<line style="fill:none;stroke:#73A5FF;stroke-width:3.4455;stroke-linecap:round;stroke-linejoin:round;stroke-miterlimit:10;" x1="285.185" y1="149.663" x2="359.838" y2="149.663"/>
					
						<line style="fill:none;stroke:#73A5FF;stroke-width:3.4455;stroke-linecap:round;stroke-linejoin:round;stroke-miterlimit:10;" x1="257.621" y1="139.709" x2="280.017" y2="139.709"/>
					
						<line style="fill:none;stroke:#73A5FF;stroke-width:3.4455;stroke-linecap:round;stroke-linejoin:round;stroke-miterlimit:10;" x1="254.558" y1="149.663" x2="276.954" y2="149.663"/>
					
						<line style="fill:none;stroke:#73A5FF;stroke-width:3.4455;stroke-linecap:round;stroke-linejoin:round;stroke-miterlimit:10;" x1="346.056" y1="128.224" x2="372.663" y2="128.224"/>
					<path style="fill:none;stroke:#7094D8;stroke-width:1.1485;stroke-miterlimit:10;" d="M359.094,178.844h-39.732
						c-0.2,0-0.346-0.189-0.296-0.383l1.778-6.832c0.035-0.135,0.157-0.229,0.296-0.229h39.732c0.2,0,0.346,0.189,0.296,0.383
						l-1.778,6.832C359.355,178.749,359.233,178.844,359.094,178.844z"/>
					<path style="fill:none;stroke:#7094D8;stroke-width:1.1485;stroke-miterlimit:10;" d="M309.708,178.844h-39.732
						c-0.2,0-0.346-0.189-0.296-0.383l1.778-6.832c0.035-0.135,0.157-0.229,0.296-0.229h39.732c0.2,0,0.346,0.189,0.296,0.383
						l-1.778,6.832C309.969,178.749,309.847,178.844,309.708,178.844z"/>
				</g>
				
					<line style="fill:none;stroke:#7094D8;stroke-width:1.1485;stroke-miterlimit:10;" x1="355.436" y1="101.234" x2="401.95" y2="101.234"/>
				<g>
					<path style="fill:#BFD9FF;" d="M446.95,303.563H232.408c-2.255,0-3.903-2.131-3.334-4.313l20.028-76.95
						c0.395-1.518,1.766-2.578,3.334-2.578h214.542c2.255,0,3.902,2.131,3.334,4.313l-20.028,76.95
						C449.889,302.504,448.518,303.563,446.95,303.563z"/>
					<g>
						
							<line style="fill:none;stroke:#A9C2FF;stroke-width:3.4455;stroke-linecap:round;stroke-linejoin:round;stroke-miterlimit:10;" x1="261.832" y1="236.184" x2="336.485" y2="236.184"/>
						
							<line style="fill:none;stroke:#A9C2FF;stroke-width:3.4455;stroke-linecap:round;stroke-linejoin:round;stroke-miterlimit:10;" x1="256.09" y1="270.639" x2="330.743" y2="270.639"/>
						
							<line style="fill:none;stroke:#A9C2FF;stroke-width:3.4455;stroke-linecap:round;stroke-linejoin:round;stroke-miterlimit:10;" x1="287.482" y1="257.623" x2="362.135" y2="257.623"/>
						
							<line style="fill:none;stroke:#A9C2FF;stroke-width:3.4455;stroke-linecap:round;stroke-linejoin:round;stroke-miterlimit:10;" x1="259.918" y1="247.669" x2="282.314" y2="247.669"/>
						
							<line style="fill:none;stroke:#A9C2FF;stroke-width:3.4455;stroke-linecap:round;stroke-linejoin:round;stroke-miterlimit:10;" x1="256.855" y1="257.623" x2="279.251" y2="257.623"/>
						
							<line style="fill:none;stroke:#A9C2FF;stroke-width:3.4455;stroke-linecap:round;stroke-linejoin:round;stroke-miterlimit:10;" x1="348.353" y1="236.184" x2="374.96" y2="236.184"/>
						<path style="fill:none;stroke:#84AEE5;stroke-width:1.1485;stroke-miterlimit:10;" d="M361.391,286.803h-39.732
							c-0.2,0-0.346-0.189-0.296-0.383l1.778-6.832c0.035-0.135,0.157-0.229,0.296-0.229h39.732c0.2,0,0.346,0.189,0.296,0.383
							l-1.778,6.832C361.652,286.709,361.53,286.803,361.391,286.803z"/>
						<path style="fill:none;stroke:#84AEE5;stroke-width:1.1485;stroke-miterlimit:10;" d="M312.005,286.803h-39.732
							c-0.2,0-0.347-0.189-0.296-0.383l1.778-6.832c0.035-0.135,0.157-0.229,0.296-0.229h39.732c0.2,0,0.346,0.189,0.296,0.383
							l-1.778,6.832C312.266,286.709,312.144,286.803,312.005,286.803z"/>
					</g>
					<path style="fill:#8DBCF8;" d="M431.223,276.898c-2.036-2.713-10.299-4.686-12.582-7.398c-1.166-1.386-1.166-3.961-0.888-6.15
						c0.813-0.518,1.488-1.038,1.89-1.521c0.686-1.002,1.46-2.403,2.234-3.94c0.234,0.229,0.547,0.408,0.951,0.396
						c1.084-0.033,5.214-5.654,4.149-6.956c-0.609-0.745-1.592-0.099-2.323,0.591c1.093-2.503,1.862-4.422,1.862-4.422h-0.042
						c0.104-0.316,0.199-0.633,0.28-0.955c1.638-6.571-2.36-11.898-8.932-11.898c-6.571,0-13.227,5.327-14.865,11.898
						c-0.08,0.322-0.143,0.64-0.197,0.955h-0.042c0,0-0.188,1.919-0.343,4.422c-0.387-0.69-1.048-1.336-2.028-0.591
						c-1.715,1.303-0.388,6.924,0.681,6.956c0.398,0.012,0.8-0.167,1.148-0.396c0.009,1.537,0.084,2.938,0.27,3.94
						c0.197,0.59,0.773,1.236,1.522,1.867c-0.818,2.109-2.063,4.491-3.823,5.804c-3.635,2.713-12.882,4.686-16.271,7.398
						c-3.048,2.44-5.768,9.566-6.284,10.974h54.444C432.221,286.463,433.055,279.338,431.223,276.898z"/>
				</g>
				<g style="opacity:0.46;">
					<path style="fill:#BFD9FF;" d="M424.745,406.163H210.204c-2.255,0-3.902-2.131-3.334-4.313l20.028-76.95
						c0.395-1.518,1.766-2.578,3.334-2.578h214.542c2.255,0,3.902,2.131,3.334,4.313l-20.028,76.95
						C427.685,405.104,426.314,406.163,424.745,406.163z"/>
					<g>
						
							<line style="fill:none;stroke:#A9C2FF;stroke-width:3.4455;stroke-linecap:round;stroke-linejoin:round;stroke-miterlimit:10;" x1="239.628" y1="338.784" x2="314.281" y2="338.784"/>
						
							<line style="fill:none;stroke:#A9C2FF;stroke-width:3.4455;stroke-linecap:round;stroke-linejoin:round;stroke-miterlimit:10;" x1="233.885" y1="373.239" x2="308.538" y2="373.239"/>
						
							<line style="fill:none;stroke:#A9C2FF;stroke-width:3.4455;stroke-linecap:round;stroke-linejoin:round;stroke-miterlimit:10;" x1="265.278" y1="360.223" x2="339.931" y2="360.223"/>
						
							<line style="fill:none;stroke:#A9C2FF;stroke-width:3.4455;stroke-linecap:round;stroke-linejoin:round;stroke-miterlimit:10;" x1="237.713" y1="350.269" x2="260.109" y2="350.269"/>
						
							<line style="fill:none;stroke:#A9C2FF;stroke-width:3.4455;stroke-linecap:round;stroke-linejoin:round;stroke-miterlimit:10;" x1="234.651" y1="360.223" x2="257.047" y2="360.223"/>
						
							<line style="fill:none;stroke:#A9C2FF;stroke-width:3.4455;stroke-linecap:round;stroke-linejoin:round;stroke-miterlimit:10;" x1="326.149" y1="338.784" x2="352.756" y2="338.784"/>
						<path style="fill:none;stroke:#84AEE5;stroke-width:1.1485;stroke-miterlimit:10;" d="M339.186,389.404h-39.732
							c-0.2,0-0.346-0.189-0.296-0.383l1.778-6.832c0.035-0.135,0.157-0.229,0.296-0.229h39.732c0.2,0,0.346,0.189,0.296,0.383
							l-1.778,6.832C339.447,389.31,339.326,389.404,339.186,389.404z"/>
						<path style="fill:none;stroke:#84AEE5;stroke-width:1.1485;stroke-miterlimit:10;" d="M289.801,389.404h-39.732
							c-0.2,0-0.346-0.189-0.296-0.383l1.778-6.832c0.035-0.135,0.157-0.229,0.296-0.229h39.732c0.2,0,0.346,0.189,0.296,0.383
							l-1.778,6.832C290.061,389.31,289.94,389.404,289.801,389.404z"/>
					</g>
					<path style="fill:#8DBCF8;" d="M409.019,379.498c-2.036-2.713-10.299-4.686-12.582-7.398c-1.166-1.386-1.166-3.961-0.888-6.15
						c0.813-0.518,1.488-1.038,1.89-1.521c0.686-1.002,1.46-2.403,2.234-3.94c0.234,0.229,0.547,0.408,0.951,0.396
						c1.084-0.033,5.214-5.654,4.15-6.956c-0.609-0.745-1.592-0.099-2.323,0.591c1.093-2.503,1.862-4.422,1.862-4.422h-0.042
						c0.104-0.316,0.199-0.634,0.28-0.955c1.638-6.572-2.36-11.899-8.932-11.899c-6.571,0-13.227,5.327-14.865,11.899
						c-0.08,0.322-0.143,0.64-0.197,0.955h-0.042c0,0-0.188,1.919-0.343,4.422c-0.387-0.69-1.048-1.336-2.028-0.591
						c-1.715,1.303-0.388,6.924,0.681,6.956c0.398,0.012,0.8-0.167,1.148-0.396c0.009,1.537,0.084,2.938,0.27,3.94
						c0.197,0.59,0.773,1.236,1.522,1.867c-0.818,2.109-2.063,4.491-3.823,5.804c-3.635,2.713-12.882,4.685-16.271,7.398
						c-3.048,2.44-5.768,9.566-6.284,10.974h54.444C410.017,389.064,410.85,381.938,409.019,379.498z"/>
				</g>
				
					<line style="fill:none;stroke:#7094D8;stroke-width:1.1485;stroke-miterlimit:10;" x1="381.851" y1="406.546" x2="420.135" y2="406.546"/>
				
					<line style="fill:none;stroke:#7094D8;stroke-width:1.1485;stroke-miterlimit:10;" x1="251.687" y1="303.946" x2="342.802" y2="303.946"/>
				
					<line style="fill:none;stroke:#7094D8;stroke-width:1.1485;stroke-miterlimit:10;" x1="363.667" y1="303.946" x2="385.871" y2="303.946"/>
				<path style="fill:none;stroke:#7094D8;stroke-width:1.1485;stroke-miterlimit:10;" d="M459.567,220.105h7.696
					c2.263,0,3.881,2.19,3.215,4.353l-3.255,10.578"/>
				<g>
					<g>
						<path style="fill:#BFD9FF;" d="M215.81,84.802h-3.926c-0.986,0-1.585-0.799-1.34-1.785l0.979-3.926
							c0.246-0.986,1.244-1.785,2.23-1.785h3.926c0.986,0,1.585,0.799,1.34,1.785l-0.979,3.926
							C217.794,84.003,216.796,84.802,215.81,84.802z"/>
					</g>
					<g>
						<path style="fill:#EDF4FF;" d="M212.94,96.313h-3.926c-0.986,0-1.585-0.799-1.34-1.785l0.979-3.926
							c0.246-0.986,1.244-1.785,2.23-1.785h3.926c0.986,0,1.585,0.799,1.34,1.785l-0.979,3.926
							C214.924,95.514,213.926,96.313,212.94,96.313z"/>
						<path style="fill:#BFD9FF;" d="M225.433,96.313h-3.926c-0.986,0-1.585-0.799-1.34-1.785l0.979-3.926
							c0.246-0.986,1.244-1.785,2.23-1.785h3.926c0.986,0,1.585,0.799,1.34,1.785l-0.979,3.926
							C227.417,95.514,226.419,96.313,225.433,96.313z"/>
						<path style="fill:#EDF4FF;" d="M237.925,96.313h-3.926c-0.986,0-1.585-0.799-1.34-1.785l0.979-3.926
							c0.246-0.986,1.244-1.785,2.23-1.785h3.926c0.986,0,1.585,0.799,1.34,1.785l-0.979,3.926
							C239.909,95.514,238.911,96.313,237.925,96.313z"/>
					</g>
					<g>
						<path style="fill:#EDF4FF;" d="M210.004,108.092h-3.926c-0.986,0-1.585-0.799-1.34-1.785l0.979-3.926
							c0.246-0.986,1.244-1.785,2.23-1.785h3.926c0.986,0,1.585,0.799,1.34,1.785l-0.979,3.926
							C211.988,107.293,210.989,108.092,210.004,108.092z"/>
						<path style="fill:#EDF4FF;" d="M206.867,120.673h-3.926c-0.986,0-1.585-0.799-1.34-1.785l0.979-3.926
							c0.246-0.986,1.244-1.785,2.23-1.785h3.926c0.986,0,1.585,0.799,1.34,1.785l-0.979,3.926
							C208.851,119.874,207.852,120.673,206.867,120.673z"/>
						<path style="fill:#EDF4FF;" d="M222.496,108.092h-3.926c-0.986,0-1.586-0.799-1.34-1.785l0.979-3.926
							c0.246-0.986,1.244-1.785,2.23-1.785h3.926c0.986,0,1.585,0.799,1.34,1.785l-0.979,3.926
							C224.48,107.293,223.482,108.092,222.496,108.092z"/>
						<path style="fill:#BFD9FF;" d="M217.023,130.043h-3.926c-0.986,0-1.585-0.799-1.34-1.785l0.979-3.926
							c0.246-0.986,1.244-1.785,2.23-1.785h3.926c0.986,0,1.585,0.799,1.34,1.785l-0.979,3.926
							C219.007,129.244,218.009,130.043,217.023,130.043z"/>
					</g>
				</g>
				<g>
					<g>
						<g>
							<g>
								<g>
									<path style="fill:#EBEDFC;" d="M278.783,61.946l0-0.002c-0.02-0.001-0.039-0.002-0.059-0.003
										c-0.06-0.004-0.118-0.012-0.179-0.015l-0.001,0.005c-0.404-0.025-0.812-0.044-1.229-0.044
										c-11.641,0-23.424,9.333-26.525,20.924l-0.138,0.554h-0.006c-0.014,0.058-0.024,0.115-0.038,0.173l-0.088,0.355h0.012
										c-2.555,11.748,4.983,21.099,17.052,20.611c11.005-0.446,22.103-9.229,25.406-20.115
										C296.573,72.582,290.053,62.734,278.783,61.946z M286.812,83.989c-2.323,7.739-10.256,13.987-18.063,14.235
										c-8.394,0.266-13.631-6.248-11.9-14.44l0.242-0.973h-0.009c2.233-8.117,10.498-14.633,18.665-14.633
										c0.423,0,0.835,0.022,1.241,0.057C284.789,68.894,289.281,75.761,286.812,83.989z"/>
									<path style="fill:#A5C5FF;" d="M277.636,65.573L277.636,65.573c-0.361,1.447,0.315,2.703,1.632,3.052
										c6.365,1.684,9.761,7.976,7.543,15.365c-2.323,7.739-10.256,13.986-18.063,14.234c-7.656,0.243-12.69-5.153-12.203-12.319
										c0.101-1.479-0.949-2.539-2.452-2.539l0,0c-1.949,0-3.89,1.758-4.02,3.675c-0.692,10.225,6.541,17.908,17.511,17.464
										c11.005-0.446,22.103-9.229,25.406-20.115c3.188-10.509-1.625-19.47-10.669-21.869
										C280.453,62.024,278.148,63.52,277.636,65.573z"/>
								</g>
							</g>
						</g>
					</g>
					<g>
						<g>
							<g>
								<path style="fill:#FFFFFF;" d="M331.807,59.798l0.001-0.002c-0.019-0.001-0.038-0.002-0.056-0.003
									c-0.074-0.005-0.149-0.008-0.223-0.013c-0.391-0.024-0.785-0.041-1.189-0.041c-11.773,0-23.698,9.544-26.633,21.318
									c-2.935,11.773,4.229,21.318,16.003,21.318c0.402,0,0.804-0.017,1.206-0.041c0.076-0.004,0.151-0.008,0.227-0.012
									c0.021-0.001,0.042-0.002,0.063-0.004l0-0.002c11.209-0.757,22.199-9.884,25.085-21.073
									c0.016-0.062,0.035-0.123,0.051-0.185C349.154,69.782,342.698,60.559,331.807,59.798z M322.337,96.042
									c-0.02,0.001-0.039,0.003-0.059,0.004c-0.248,0.016-0.496,0.026-0.744,0.031l0,0c-0.085,0.001-0.171,0.006-0.256,0.006
									c-8.299,0-13.349-6.728-11.28-15.027c2.069-8.299,10.474-15.027,18.773-15.027c0.085,0,0.168,0.005,0.252,0.006
									c0.247,0.004,0.491,0.015,0.732,0.031c0.021,0.001,0.041,0.003,0.062,0.005c7.67,0.543,12.214,7.042,10.233,14.985
									c-0.016,0.062-0.035,0.123-0.051,0.185C337.945,89.104,330.218,95.508,322.337,96.042z"/>
								<path style="fill:#BFD9FF;" d="M339.085,83.867c-2.643,6.026-8.565,10.778-14.874,11.94
									c-1.575,0.29-3.001,1.568-3.383,3.098l0,0c-0.494,1.981,0.945,3.458,2.984,3.088c8.991-1.633,17.441-8.412,21.185-17.007
									c0.847-1.943-0.18-3.744-2.157-3.744h0C341.305,81.242,339.747,82.357,339.085,83.867z"/>
							</g>
						</g>
					</g>
				</g>
				<path style="fill:#EDF4FF;" d="M275.253,134.817h-39.732c-0.2,0-0.347-0.189-0.296-0.383l1.778-6.832
					c0.035-0.135,0.157-0.229,0.296-0.229h39.732c0.2,0,0.346,0.189,0.296,0.383l-1.778,6.832
					C275.514,134.723,275.392,134.817,275.253,134.817z"/>
				<g>
					
						<ellipse transform="matrix(0.7496 -0.6619 0.6619 0.7496 10.0151 336.1338)" style="fill:#73A5FF;" cx="449.231" cy="154.831" rx="19.976" ry="15.578"/>
					<path style="fill:#73A5FF;" d="M475.306,173.782c-0.665,2.666-3.365,4.828-6.032,4.828c-2.666,0-4.289-2.161-3.624-4.828
						c0.665-2.666,3.365-4.828,6.032-4.828C474.348,168.954,475.971,171.115,475.306,173.782z"/>
					<path style="fill:#FFFFFF;" d="M444.682,163.796c-0.555,0-1.057-0.212-1.375-0.635l-4.559-6.073
						c-0.636-0.847-0.294-2.22,0.765-3.067c1.059-0.847,2.431-0.847,3.067,0l3.408,4.539l12.174-9.744
						c1.058-0.847,2.431-0.847,3.067,0c0.636,0.847,0.294,2.22-0.765,3.067l-14.09,11.278
						C445.845,163.584,445.237,163.796,444.682,163.796z"/>
				</g>
			</g>
			<g>
				<ellipse style="fill:#BFD9FF;" cx="561.21" cy="456.124" rx="75.227" ry="6.317"/>
				<g>
					<g>
						<path style="fill:#024470;" d="M564.081,119.802c0,0-1.914,3.828-3.063,12.251c-1.148,8.422,1.914,57.043,1.914,57.043
							l32.924-3.445l-14.931-63.551L564.081,119.802z"/>
						<g>
							<path style="fill:#45242C;" d="M544.557,325.193l-11.485,56.851l22.396,0.574c0,0,5.742-50.534,3.445-50.534
								S544.557,325.193,544.557,325.193z"/>
							<g>
								<path style="fill:#713336;" d="M596.623,447.892c0,0-8.422,8.805-11.868,10.719c0.766,1.531,13.016,1.531,17.611-0.766
									c4.594-2.297,8.04-7.657,8.04-7.657l-0.383,5.743h2.297c0,0,2.297-8.04,2.297-9.954c0-1.914-2.297-4.594-2.297-4.594
									L596.623,447.892z"/>
								<path style="fill:#FF8D68;" d="M593.177,334.573l8.422,103.366l9.954-0.766c0,0,11.485-75.802,6.891-101.835
									S593.177,334.573,593.177,334.573z"/>
								<path style="fill:#FF8D68;" d="M601.599,437.939c0,0-3.063,8.04-7.274,11.868c-4.211,3.828,6.508,3.828,11.102,0
									c4.594-3.828,4.977-6.125,6.508-6.891c1.531-0.766-0.383-5.742-0.383-5.742L601.599,437.939z"/>
							</g>
							<g>
								<path style="fill:#713336;" d="M527.494,446.157c0,0-9.786,7.259-13.505,8.566c0.497,1.639,12.572,3.703,17.487,2.214
									c4.916-1.49,9.215-6.192,9.215-6.192l-1.345,5.596l2.264,0.387c0,0,3.619-7.537,3.942-9.424
									c0.323-1.887-1.49-4.915-1.49-4.915L527.494,446.157z"/>
								<path style="fill:#FF8D68;" d="M543.199,333.878l-9.121,103.306l9.94,0.923c0,0,24.098-72.781,23.958-99.216
									C567.835,312.457,543.199,333.878,543.199,333.878z"/>
								<path style="fill:#FF8D68;" d="M534.078,437.185c0,0-4.374,7.408-9.17,10.472c-4.796,3.064,5.77,4.871,10.943,1.871
									c5.174-2.999,5.938-5.199,7.577-5.695c1.638-0.497,0.591-5.725,0.591-5.725L534.078,437.185z"/>
							</g>
							<g>
								<path style="fill:#FF7759;" d="M507.926,169.644l-19.791-3.898c0,0-0.3,2.699,1.499,3.299c1.799,0.6,1.799,0.6,1.799,0.6
									s4.498,10.795,6.597,11.995c2.099,1.199,14.698,6.398,14.698,6.398l3.294-12.695L507.926,169.644z"/>
								<path style="fill:#FF8D68;" d="M522.161,185.65c0,0-0.191-1.34-2.839-6.71c-2.936-5.953-3.598-8.396-3.598-8.396
									s-9.296-3.598-10.795-5.398c-1.499-1.799-2.399-2.099-2.399-2.099s-1.799,3.298,0.9,5.697
									c2.699,2.399,5.098,4.198,5.098,4.198s-0.3,6.897,0.6,10.196c0.9,3.299,3.603,4.899,3.603,4.899L522.161,185.65z"/>
								<path style="fill:#FF8D68;" d="M552.979,196.752c0,0-13.399,21.439-13.782,19.525s-17.228-31.393-17.228-31.393l-9.24,3.153
									c0,0,13.834,43.17,22.64,50.061c0,0,0.766,1.148,3.446,0.766c2.68-0.383,23.353-21.822,23.353-21.822L552.979,196.752z"/>
							</g>
							<path style="fill:#E86D5E;" d="M565.517,171.293c0,0-7.178,2.871-10.624,7.848c-3.445,4.977-13.399,27.564-13.399,27.564
								s5.36,9.571,17.611,13.016l16.845-31.01L565.517,171.293z"/>
							<path style="fill:#713336;" d="M556.616,244.798c0,0,0.574,9.188,0.574,12.634c0,0-13.782,66.613-14.356,82.118
								c-0.574,15.505,10.911,47.089,10.911,47.089s49.386-1.148,65.465-4.594l1.723-33.307c0,0,2.297-58,0-74.653
								c-2.297-16.653-12.059-25.267-12.059-25.267l-2.871-8.04L556.616,244.798z"/>
							<path style="fill:#E86D5E;" d="M598.824,167.273c0,0,12.921,6.03,16.94,12.346c4.02,6.317,16.079,40.485,16.079,40.485
								s-13.495,4.881-25.267,4.881c0,0,1.148,10.911,2.297,14.356c1.148,3.445-2.871,4.881-2.871,4.881s-28.138,7.753-49.099,3.158
								c0,0-2.584-0.574-2.584-1.723s0.287-4.02,0.287-4.02s-2.01-19.525-2.584-22.97c-0.574-3.446-6.891-12.825-6.317-16.558
								c0.574-3.733,10.337-21.056,10.337-21.056s6.604-7.752,9.475-9.762s10.049-2.01,10.049-2.01L598.824,167.273z"/>
							<path style="fill:#FF8D68;" d="M574.337,156.941c0.01,0.45,1.649,10.195-3.748,17.092c-5.398,7.047,15.893,6.747,20.841-0.45
								c4.498-6.447,4.048-7.497,4.048-7.497s-3.598-11.695-2.549-19.342C592.629,139.848,574.037,144.046,574.337,156.941z"/>
							<path style="fill:#FF8D68;" d="M574.201,116.263c0,0-6.207,1.589-9.724,11.12c-3.516,9.531-1.172,29.785,1.172,32.168
								c2.344,2.383,9.465,1.472,19.34-1.787c10.433-3.444,13.959-14.291,15.823-21.445
								C604.383,122.617,592.469,108.519,574.201,116.263z"/>
							<path style="fill:#024470;" d="M562.167,127.076c0,0,5.742,13.782,27.564,14.548l5.073,24.358c0,0,9.29,4.463,12.921,6.46
								c0,0,4.211-44.218-5.742-54.937c-9.954-10.719-27.564-8.04-34.455-1.914S562.167,127.076,562.167,127.076z"/>
							<path style="fill:#FFFFFF;" d="M598.824,167.273l-4.881-4.594c0,0-4.307,12.346-19.525,13.208c0,0-2.01-3.158-0.861-7.752
								l-2.584,2.01c0,0-5.455,7.752-4.881,10.049c0.574,2.297,7.848-1.723,7.848-1.723s8.614,5.168,12.059,5.455
								C589.444,184.214,598.25,168.135,598.824,167.273z"/>
							<path style="fill:#FF7759;" d="M590.071,141.268c0,0,2.302-3.797,4.604-2.398c2.302,1.399-1.465,9.991-4.604,10.191
								C586.931,149.261,588.606,143.466,590.071,141.268z"/>
						</g>
						
							<line style="fill:none;stroke:#BB524F;stroke-width:1.1485;stroke-miterlimit:10;" x1="595.474" y1="192.158" x2="604.279" y2="223.55"/>
						<path style="fill:none;stroke:#BB524F;stroke-width:1.1485;stroke-miterlimit:10;" d="M590.019,193.976
							c0,0,2.01,6.03,8.614,10.049"/>
						<path style="fill:none;stroke:#BB524F;stroke-width:1.1485;stroke-miterlimit:10;" d="M600.068,186.511
							c0,0,1.148-8.04,10.337-8.614"/>
						<path style="fill:none;stroke:#BB524F;stroke-width:1.1485;stroke-miterlimit:10;" d="M554.989,183.065
							c0,0-9.38,15.409-9.284,19.046c0.096,3.637,6.125,13.974,6.125,13.974l7.465,19.525"/>
						
							<line style="fill:none;stroke:#BB524F;stroke-width:1.1485;stroke-miterlimit:10;" x1="587.435" y1="247.095" x2="597.484" y2="235.61"/>
						<g>
							<path style="fill:none;stroke:#E66657;stroke-width:1.026;stroke-miterlimit:10;" d="M503.21,173.016l-11.777-3.372
								c0,0,1.057,2.606,1.823,3.372c0.766,0.766,8.997,3.637,8.997,3.637"/>
							<path style="fill:none;stroke:#E66657;stroke-width:1.026;stroke-miterlimit:10;" d="M493.257,173.016
								c0,0,1.148,3.445,1.723,4.02c0.574,0.574,7.848,2.68,7.848,2.68"/>
							<polyline style="fill:none;stroke:#E66657;stroke-width:1.026;stroke-miterlimit:10;" points="504.933,170.145 
								508.526,172.943 511.25,172.25 							"/>
						</g>
					</g>
					<g>
						<path style="fill:none;stroke:#E66657;stroke-width:1.026;stroke-miterlimit:10;" d="M575.567,160.191
							c0,0,7.274-1.531,11.102-8.422"/>
						<polyline style="fill:none;stroke:#E66657;stroke-width:1.026;stroke-miterlimit:10;" points="569.25,143.346 567.91,150.62 
							570.398,151.194 						"/>
						<path style="fill:none;stroke:#E66657;stroke-width:1.026;stroke-miterlimit:10;" d="M568.867,154.448
							c0,0,3.637,0.766,7.465-1.34"/>
						<path style="fill:#FA6157;" d="M582.458,147.079c0,1.956-1.586,3.541-3.541,3.541c-1.956,0-3.541-1.585-3.541-3.541
							c0-1.956,1.586-3.541,3.541-3.541C580.872,143.538,582.458,145.123,582.458,147.079z"/>
						<path style="fill:#024470;" d="M575.567,142.293c0,0.476-0.386,0.861-0.861,0.861s-0.861-0.386-0.861-0.861
							c0-0.476,0.386-0.861,0.861-0.861S575.567,141.818,575.567,142.293z"/>
						<path style="fill:#024470;" d="M566.283,142.293c0,0.476-0.386,0.861-0.861,0.861s-0.861-0.386-0.861-0.861
							c0-0.476,0.386-0.861,0.861-0.861S566.283,141.818,566.283,142.293z"/>
					</g>
					<path style="fill:none;stroke:#562525;stroke-width:1.1485;stroke-miterlimit:10;" d="M560.157,255.421
						c0,0,15.792,4.881,30.723-1.436"/>
					<path style="fill:none;stroke:#562525;stroke-width:1.1485;stroke-miterlimit:10;" d="M564.847,261.068
						c0,0,8.04,2.68,21.056-2.297"/>
				</g>
				
					<rect x="540.346" y="262.6" transform="matrix(0.866 -0.5 0.5 0.866 -68.1894 317.228)" style="fill:#FFFFFF;" width="35.03" height="46.515"/>
				<g>
					<g>
						<path style="fill:#FF8D68;" d="M590.114,272.553c0,0-4.785,5.264-6.221,6.413c-1.436,1.148-11.198,2.01-11.198,2.01
							s-4.307,7.178-5.455,6.891c-1.148-0.287-0.861-1.148-0.861-1.148s-0.287-12.921,0.574-14.356
							c0.861-1.436,14.931-5.455,14.931-5.455l1.723-2.01L590.114,272.553"/>
						<path style="fill:#FF8D68;" d="M627.632,221.445c0.383,1.149,3.445,10.145,4.977,14.739
							c1.531,4.594-32.924,28.713-38.284,32.924l-4.211,3.445l-6.508-7.657l30.244-30.244l-4.403-9.954L627.632,221.445z"/>
					</g>
					<g>
						
							<line style="fill:none;stroke:#E66657;stroke-width:1.026;stroke-miterlimit:10;" x1="567.24" y1="287.867" x2="569.058" y2="279.827"/>
						
							<line style="fill:none;stroke:#E66657;stroke-width:1.026;stroke-miterlimit:10;" x1="566.187" y1="280.593" x2="568.293" y2="275.999"/>
						<polyline style="fill:none;stroke:#E66657;stroke-width:1.026;stroke-miterlimit:10;" points="566.953,272.362 
							566.187,287.867 568.675,287.867 572.695,280.976 						"/>
					</g>
				</g>
			</g>
			<g>
				<ellipse style="fill:#BFD9FF;" cx="176.842" cy="456.124" rx="75.227" ry="6.317"/>
				<g>
					<g>
						<g>
							<g>
								<path style="fill:#2D2737;" d="M146.557,435.802c0,0,1.596-3.42,7.524-2.508c5.928,0.912,6.612,2.052,7.296,5.016
									c0.684,2.964,2.736,6.156,4.104,6.84c1.368,0.684,6.384,4.104,10.488,4.788c4.104,0.684,4.56,3.192,3.648,4.332
									c-0.912,1.14-16.415,2.052-19.835,1.596c0,0-11.628-0.228-14.363-1.14C142.682,453.814,146.329,436.942,146.557,435.802z"/>
								<path style="fill:#3D4776;" d="M139.973,355.66c0,0-1.734-9.442,8.237-12.611c9.971-3.169,11.858,1.439,14.877,10.051
									s-2.594,82.179-2.594,82.179s-11.482,1.96-14.427,0.222c0,0-8.747-47.891-8.138-61.033
									C138.537,361.324,139.973,355.66,139.973,355.66z"/>
								<path style="fill:#51598D;" d="M144.847,432.61c0,0,12.996-1.14,17.1-1.824l-0.228,5.928c0,0-10.26,1.824-16.644,0.912
									L144.847,432.61z"/>
							</g>
							<path style="fill:#7E78C7;" d="M141.656,171.33c0,0-8.208,0.456-13.224,19.151c-5.016,18.695-8.208,41.495-6.384,47.423
								c1.824,5.928,21.431,21.887,28.727,21.887c7.296,0,7.752-5.472,6.384-10.032c-1.368-4.56-15.503-16.871-15.503-16.871
								s11.4-36.479,10.944-46.055C152.143,177.258,146.671,171.33,141.656,171.33z"/>
							<g>
								<path style="fill:#FF8D68;" d="M244.429,165.753l-1.361,0.139l3.051-6.04c0,0,7.755-0.489,8.999,2.786l-3.557,7.889
									L244.429,165.753z"/>
								<g>
									<path style="fill:#FF7759;" d="M248.788,148.589c0,0-0.303-6.173,1.894-7.05c2.196-0.877,4.656,0.831,4.656,0.831
										s3.555-0.362,4.689,1.155c1.134,1.517,1.042,3.812,1.042,3.812s2.005,0.449,2.526,2.355c0.521,1.906-0.41,5.592-0.41,5.592
										s-2.322,2.849-5.006,2.143C255.495,156.721,248.788,148.589,248.788,148.589z"/>
									<path style="fill:#FF7759;" d="M244.725,153.574c0,0-0.823-8.079,0.047-9.147c0.871-1.068,9.772-13.381,9.772-13.381
										s1.846,2.097,0.784,4.491c-1.062,2.394-5.254,9.656-5.254,9.656l-0.021,6.206
										C250.054,151.398,247.311,153.311,244.725,153.574z"/>
									<path style="fill:#FF8D68;" d="M245.384,160.037c0,0-2.127-12.975-0.676-14.755c1.451-1.781,8.565-0.742,9.924-0.228
										c1.358,0.515,5.117,5.356,5.638,7.262c0.521,1.906-3.022,8.797-5.152,10.321
										C252.988,164.16,246.617,162.524,245.384,160.037z"/>
								</g>
							</g>
							<path style="fill:#DEE0E8;" d="M240.376,168.594l2.736-5.016c0,0,6.384-1.14,9.576,3.876
								c0.912,1.824,0.456,1.824,0.456,1.824l-2.052,4.104L240.376,168.594z"/>
							<path style="fill:#FF8D68;" d="M175.425,113.703c0,0,6.746,1.726,10.567,12.084c3.821,10.358,1.274,32.368-1.274,34.957
								c-2.548,2.589-10.286,1.6-21.017-1.942c-11.338-3.742-15.169-15.53-17.195-23.305
								C142.626,120.608,155.573,105.287,175.425,113.703z"/>
							<path style="fill:#FF8D68;" d="M151.231,170.874l5.472-19.607c0,0,10.944-3.192,17.783,4.104l2.28,3.192v12.768
								C176.766,171.33,165.367,173.61,151.231,170.874z"/>
							<path style="fill:#3D4776;" d="M135.956,276.435c0,0-4.104,23.939,0,51.298c4.104,27.359,12.312,30.095,19.835,30.095
								c7.524,0,9.576-21.887,10.944-31.463c1.368-9.576,6.84-42.407-3.42-49.931C153.055,268.911,141.428,268.227,135.956,276.435z
								"/>
							<path style="fill:#3D4776;" d="M164.683,308.582c0,0-8.208-21.887,6.156-31.463c14.364-9.576,25.307-8.208,28.727,7.524
								c3.42,15.732,4.104,69.766-0.684,80.71C194.094,376.296,176.994,359.197,164.683,308.582z"/>
							<path style="fill:#C53A45;" d="M188.588,114.639c0,0,3.237,4.208,1.295,9.063c-1.942,4.855-9.063,6.797-9.063,6.797
								s2.266,3.237,0,7.768l-1.618,2.589c0,0,2.266,5.179,1.618,6.474c-0.647,1.295-2.913,0.971-2.913,0.971
								s-2.589-7.121-3.561-6.474c-0.971,0.647-3.56,3.884-3.56,6.797c0,2.913,0.971,5.179,0.324,7.121
								c-0.647,1.942-10.681,1.942-14.889,1.295c-4.208-0.647-10.681-13.594-12.3-19.421c0,0-2.266-8.092,0.971-14.889
								c0,0-0.647-5.826,4.855-11.652c5.503-5.826,22.981-3.884,25.894-1.618c0,0-0.324-3.237,2.913-2.589
								C181.791,107.518,186.646,110.431,188.588,114.639z"/>
							<path style="fill:#FF7759;" d="M178.878,144.094c0,0-0.971-4.208-4.532-2.266c-3.56,1.942,0.647,11.976,3.561,11.329
								C180.82,152.509,179.525,145.712,178.878,144.094z"/>
							<path style="fill:#DEE0E8;" d="M148.336,170.771c0,0,1.527-5.368,2.895-5.824c1.368-0.456,18.239-2.28,27.359,3.192
								c4.104,3.192,3.648,5.472,3.648,5.472S155.016,168.387,148.336,170.771z"/>
							<path style="fill:#7E78C7;" d="M144.847,169.506c0,0,28.271-1.824,48.335,6.84c9.12,4.56,29.981,25.193,29.981,25.193
								l16.415-34.199c0,0,9.234-3.306,12.882,5.358c0,0-10.374,40.355-19.037,53.122c-5.472,4.56-31.577-10.26-31.577-10.26
								s4.104,52.894,2.736,76.606c-1.824,4.56-37.391,6.84-43.775,6.384c-6.384-0.456-28.727-7.752-29.183-9.12
								c-0.456-1.368,3.192-56.086,2.28-62.47c-0.912-6.384-3.648-37.847-2.736-42.407
								C132.08,179.994,136.184,171.33,144.847,169.506z"/>
							<g>
								<path style="fill:#3E3343;" d="M174.943,437.17c0,0,1.596-3.42,7.524-2.508c5.928,0.912,6.612,2.052,7.296,5.016
									c0.684,2.964,2.736,6.156,4.104,6.84c1.368,0.684,6.384,4.104,10.488,4.788c4.104,0.684,4.56,3.192,3.648,4.332
									c-0.912,1.14-16.415,2.052-19.835,1.596c0,0-11.628-0.228-14.364-1.14C171.067,455.181,174.714,438.31,174.943,437.17z"/>
								<path style="fill:#3D4776;" d="M177.678,357.145c0,0-0.684-9.576,9.576-11.628c10.26-2.052,11.628,2.736,13.68,11.628
									c2.052,8.892-11.628,81.393-11.628,81.393s-11.628,0.684-14.363-1.368c0,0-3.42-48.563-1.368-61.558
									C175.626,362.616,177.678,357.145,177.678,357.145z"/>
								<path style="fill:#51598D;" d="M174.031,438.31c0,0,8.892,2.508,16.415,1.14l0.684-5.244l-17.327-1.14L174.031,438.31z"/>
							</g>
							<path style="fill:none;stroke:#2A2E59;stroke-width:1.026;stroke-miterlimit:10;" d="M161.947,303.452
								c0,0,9.576,30.779,16.757,45.827"/>
							<path style="fill:none;stroke:#2A2E59;stroke-width:1.026;stroke-miterlimit:10;" d="M181.44,355.435
								c0,0,5.814-3.42,11.628,0"/>
							<path style="fill:none;stroke:#2A2E59;stroke-width:1.026;stroke-miterlimit:10;" d="M180.414,359.197
								c0,0,4.788-2.736,12.996,3.078"/>
							<path style="fill:none;stroke:#2A2E59;stroke-width:1.026;stroke-miterlimit:10;" d="M144.505,351.331
								c0,0,3.762-3.42,12.312,0.342"/>
							<path style="fill:none;stroke:#2A2E59;stroke-width:1.026;stroke-miterlimit:10;" d="M147.241,354.751
								c0,0,5.472-2.736,10.602,1.368"/>
							
								<line style="fill:none;stroke:#2A2E59;stroke-width:1.026;stroke-miterlimit:10;" x1="159.895" y1="360.222" x2="157.843" y2="429.988"/>
							<path style="fill:none;stroke:#2A2E59;stroke-width:1.026;stroke-miterlimit:10;" d="M188.166,301.742
								c0,0,7.752,4.56,10.944-2.736"/>
							<path style="fill:none;stroke:#2A2E59;stroke-width:1.026;stroke-miterlimit:10;" d="M195.918,302.654
								c0,0,3.648,28.271,2.736,46.967"/>
							
								<line style="fill:none;stroke:#524B81;stroke-width:1.026;stroke-miterlimit:10;" x1="131.168" y1="196.41" x2="134.816" y2="235.624"/>
							<path style="fill:none;stroke:#524B81;stroke-width:1.026;stroke-miterlimit:10;" d="M193.752,210.089
								c0,0,27.017,19.493,39.671,15.732"/>
							<path style="fill:none;stroke:#524B81;stroke-width:1.026;stroke-miterlimit:10;" d="M225.899,205.301
								c0,0,5.472,3.078,5.13,10.26"/>
							<path style="fill:none;stroke:#524B81;stroke-width:1.026;stroke-miterlimit:10;" d="M224.531,202.565
								c0,0,5.814-1.71,9.234,4.104"/>
							<path style="fill:none;stroke:#524B81;stroke-width:1.026;stroke-miterlimit:10;" d="M192.726,178.968
								c0,0-14.363,7.524-4.788,24.965"/>
							<path style="fill:none;stroke:#E66657;stroke-width:1.026;stroke-miterlimit:10;" d="M172.378,156.226
								c0,0,2.394,6.156,10.431,5.13"/>
							<path style="fill:none;stroke:#E66657;stroke-width:1.026;stroke-miterlimit:10;" d="M249.781,143.572l2.679-2.394
								c0,0,1.88-0.01,2.878,1.192"/>
							<path style="fill:none;stroke:#E66657;stroke-width:1.026;stroke-miterlimit:10;" d="M252.973,143.971
								c0-0.171,3.819-2.223,3.819-2.223s3.477,0.855,3.99,2.679c0.513,1.824,0.114,2.793,0.114,2.793"/>
							<path style="fill:none;stroke:#E66657;stroke-width:1.026;stroke-miterlimit:10;" d="M257.476,147.277
								c0.171-0.057,4.845,0.228,4.845,0.228s1.71,1.14,1.653,3.363s-0.789,4.416-0.789,4.416s-1.662,2.366-4.512,2.309"/>
							<path style="fill:none;stroke:#E66657;stroke-width:1.026;stroke-miterlimit:10;" d="M260.155,152.065
								c0,0,0.57,0.912-0.171,2.565c-0.741,1.653-1.638,5.982-4.866,8.007"/>
						</g>
						<path style="fill:none;stroke:#A03A45;stroke-width:1.368;stroke-miterlimit:10;" d="M163.144,122.369
							c-6.669-3.249-15.219,0.684-15.219,0.684s1.026-4.446,5.814-5.985"/>
						<path style="fill:none;stroke:#A03A45;stroke-width:1.368;stroke-miterlimit:10;" d="M148.267,125.789
							c0,0,1.71-0.171,3.933,3.249"/>
						<path style="fill:none;stroke:#A03A45;stroke-width:1.368;stroke-miterlimit:10;" d="M177.678,110.456
							c0,0,8.436,1.368,8.664,9.804"/>
					</g>
				</g>
			</g>
		</g>
	</g>
</g>
</svg>
