<?xml version="1.0" encoding="utf-8"?>
<!-- Generator: Adobe Illustrator 27.5.0, SVG Export Plug-In . SVG Version: 6.00 Build 0)  -->
<svg version="1.1" xmlns="http://www.w3.org/2000/svg" xmlns:xlink="http://www.w3.org/1999/xlink" x="0px" y="0px"
	 viewBox="0 0 750 500" style="enable-background:new 0 0 750 500;" xml:space="preserve">
<g id="BACKGROUND">
	<rect style="fill:transparent;" width="750" height="500"/>
</g>
<g id="OBJECTS">
	<g>
		<path style="fill:#FFC557;" d="M488.575,70.301c0,3.306-2.68,5.986-5.986,5.986s-5.986-2.68-5.986-5.986
			c0-3.306,2.68-5.986,5.986-5.986S488.575,66.995,488.575,70.301z"/>
		<circle style="fill:none;stroke:#FFC557;stroke-miterlimit:10;" cx="511.021" cy="98.733" r="4.489"/>
		<path style="fill:none;stroke:#648AC9;stroke-width:0.8104;stroke-miterlimit:10;" d="M619.949,168.476
			c0,1.268-1.028,2.296-2.296,2.296c-1.268,0-2.296-1.028-2.296-2.296c0-1.268,1.028-2.296,2.296-2.296
			C618.921,166.18,619.949,167.208,619.949,168.476z"/>
		<circle style="fill:#FFC557;" cx="87.372" cy="325.85" r="8.322"/>
		<circle style="fill:#FFC557;" cx="131.924" cy="81.774" r="4.489"/>
		<circle style="fill:#FFC557;" cx="640.214" cy="274.814" r="3.99"/>
		<line style="fill:none;stroke:#95B1DB;stroke-miterlimit:10;" x1="77.554" y1="390.538" x2="713.04" y2="390.538"/>
		<circle style="fill:none;stroke:#95B1DB;stroke-width:2;stroke-miterlimit:10;" cx="115.464" cy="167.569" r="3.492"/>
		<path style="fill:#839DC9;" d="M677.136,320.704c0,2.21-1.791,4.001-4.001,4.001s-4.001-1.791-4.001-4.001
			c0-2.21,1.791-4.001,4.001-4.001S677.136,318.495,677.136,320.704z"/>
		<path style="fill:#839DC9;" d="M696.191,239.01c0,1.163-0.943,2.106-2.106,2.106c-1.163,0-2.106-0.943-2.106-2.106
			c0-1.163,0.943-2.106,2.106-2.106C695.248,236.904,696.191,237.847,696.191,239.01z"/>
	</g>
	<g>
		<g>
			<path style="fill:#95B1DB;" d="M405.293,392.842H171.184V112.239c0-14.359,11.055-26.585,25.415-26.585l208.694,0.585V392.842z"
				/>
			<polygon style="opacity:0.65;fill:#849CC7;" points="175.507,392.842 405.293,392.842 405.293,114.112 212.419,88.567 			"/>
		</g>
		<g>
			<path style="fill:#E0EBFB;" d="M502.665,110.308c0-13.807-11.193-25-25-25H218.912v0.169l-24.671-0.125
				c15.075,0,24.612,10.644,24.612,23.5l0.059-0.072v292.825c0,19.33,15.67,35,35,35h189.754l60.029-0.834L502.665,110.308z"/>
			<g>
				<g>
					
						<ellipse transform="matrix(0.7071 -0.7071 0.7071 0.7071 -23.3428 237.9653)" style="fill:#CBD9EC;" cx="275.578" cy="147.16" rx="36.337" ry="36.337"/>
					<g>
						<defs>
							
								<ellipse id="SVGID_1_" transform="matrix(0.7071 -0.7071 0.7071 0.7071 -23.3428 237.9653)" cx="275.578" cy="147.16" rx="36.337" ry="36.337"/>
						</defs>
						<clipPath id="SVGID_00000160882125697272090190000008443728188773354422_">
							<use xlink:href="#SVGID_1_"  style="overflow:visible;"/>
						</clipPath>
						<g style="clip-path:url(#SVGID_00000160882125697272090190000008443728188773354422_);">
							<g>
								<path style="fill:#F38C84;" d="M364.497,158.647c0.371-2.249,0.559-3.607,0.559-3.607s1.436-13.025-4.259-21.49
									c-0.835-1.241,1.794,2.613,1.794,2.613s-3.73-5.434-4.632-5.873c-0.902-0.439,2.493,5.625,2.493,5.625
									s-3.755-6.474-4.847-6.39c-1.092,0.084,1.875,7.575,1.875,7.575s-2.279-8.242-3.373-8.246
									c-1.218-0.004,0.726,19.406-1.397,17.114c-0.707-0.762-3.799-6.065-5.367-5.743c-1.567,0.322,5.766,12.254,5.766,12.254
									l0,0.001c0.151,0.37,0,0.944-0.153,1.326L364.497,158.647z"/>
								<g>
									<path style="fill:#FF768F;" d="M351.935,153.409l-5.312,13.978c-3.618,9.027-12.706,18.339-21.104,15.292l-26.828-9.732
										c-3.038-1.469-6.199-2.514-9.179-2.795c-0.188-0.067-0.298-0.102-0.298-0.102l-7.346-3.599l-16.038,3.032l-5.686,4.238
										c-14.276,2.734-44.6,12.336-44.6,12.336c6.267,4.436,11.677,12.513,11.677,12.513s-1.177,1.929-2.817,4.626
										c4.29,5.405,9.047,10.966,16.63,14.29c1.735,0.761,5.272,1.596,7.433,2.253l-5.443,56.422l59.103,0.953
										c0,0,9.011-40.145,10.735-65.816l1.053,0.399c13.795,4.841,28.981-0.076,39.418-11.882
										c8.517-9.634,12.72-40.537,12.72-40.537L351.935,153.409z"/>
									<path style="opacity:0.2;fill:#FF768F;" d="M248.466,219.74c-2.161-0.657-5.697-1.493-7.433-2.253
										c-7.582-3.324-12.339-8.885-16.63-14.29c1.64-2.697,2.817-4.626,2.817-4.626L248.466,219.74z"/>
									<path style="opacity:0.2;fill:#FF768F;" d="M312.868,211.358l-38.29,65.504l27.548,0.253
										C302.126,277.116,311.519,233.579,312.868,211.358z"/>
									<line style="fill:#FF768F;" x1="348.791" y1="161.757" x2="364.315" y2="168.951"/>
								</g>
							</g>
							<g>
								<g>
									<path style="fill:#F38C84;" d="M281.041,152.448l2.401,17.455c0,0-23.064,18.591-21.707,3.642l2.92-20.485L281.041,152.448
										z"/>
									<path style="fill:#05093D;" d="M279.51,134.382l2.021,19.283c0,0-19.196,23.786-17.508,0.539l4.079-20.375L279.51,134.382z
										"/>
								</g>
								<g>
									<g>
										<g>
											<path style="fill:#F38C84;stroke:#F38C84;stroke-width:1.1297;stroke-miterlimit:10;" d="M259.463,142.786l3.331-0.938
												l0.776,3.97l-3.332,0.938c-1.026,0.289-2.031-0.365-2.245-1.462l0,0C257.779,144.198,258.437,143.075,259.463,142.786z"
												/>
											<path style="fill:#CA5C3B;" d="M259.762,143.79l1.375-0.387l0.32,1.639l-1.375,0.387
												c-0.423,0.119-0.839-0.151-0.927-0.604l0,0C259.066,144.373,259.338,143.909,259.762,143.79z"/>
										</g>
										<g>
											<path style="fill:#F38C84;stroke:#F38C84;stroke-width:1.1297;stroke-miterlimit:10;" d="M285.775,141.727l-3.394,0.462
												l-0.28-4.073l3.394-0.462c1.045-0.142,1.955,0.654,2.032,1.779l0,0C287.604,140.558,286.82,141.585,285.775,141.727z"/>
											<path style="fill:#CA5C3B;" d="M285.636,138.956l-1.403,0.165l0.089,1.685l1.403-0.165
												c0.432-0.051,0.762-0.469,0.737-0.934l0,0C286.438,139.242,286.068,138.906,285.636,138.956z"/>
										</g>
										<path style="fill:#F38C84;stroke:#F38C84;stroke-width:1.1297;stroke-miterlimit:10;" d="M272.893,156.776l-0.073,0.018
											c-8.006,0.337-11.408-5.052-11.54-11.872l-0.01-0.521c-0.132-6.82,3.569-17.726,9.888-18.223l-0.018-0.073
											c6.319-0.497,12.884,9.677,13.016,16.497l0.01,0.521C284.299,149.943,281.88,156.199,272.893,156.776z"/>
									</g>
									<g>
										<path style="fill:#FFFFFF;" d="M273.481,152.325l-0.009,0.001c-2.782,0.249-5.089-1.495-5.154-3.896l-0.009-0.329
											l10.083-0.904l0.009,0.329C278.465,149.927,276.263,152.076,273.481,152.325z"/>
										<path style="fill:#05093D;" d="M270.453,142.174c0.002,0.498-0.292,0.903-0.657,0.904
											c-0.365,0.002-0.662-0.401-0.664-0.899c-0.002-0.498,0.292-0.903,0.657-0.904
											C270.154,141.273,270.452,141.676,270.453,142.174z"/>
										<path style="fill:#05093D;" d="M276.391,141.539c-0.002,0.5-0.299,0.904-0.664,0.902
											c-0.365-0.002-0.659-0.408-0.657-0.908c0.002-0.5,0.299-0.904,0.664-0.902
											C276.099,140.633,276.393,141.039,276.391,141.539z"/>
										<path style="fill:#CA5C3B;" d="M274.24,145.853l-2.343,0.124c-0.289,0.015-0.5-0.34-0.397-0.667l0.913-2.924
											c0.116-0.372,0.532-0.412,0.708-0.069l1.43,2.8C274.711,145.432,274.541,145.837,274.24,145.853z"/>
										<path style="fill:#05093D;" d="M266.686,139.644c-0.65,0.562,0.203-1.74,1.133-2.093c0.93-0.353,1.931,0.013,2.236,0.816
											C270.055,138.367,268.247,138.293,266.686,139.644z"/>
										<path style="fill:#05093D;" d="M277.55,137.867c0.76,0.4-0.593-1.649-1.579-1.78c-0.986-0.132-1.878,0.452-1.991,1.303
											C273.979,137.39,275.723,136.907,277.55,137.867z"/>
									</g>
									<path style="fill:#05093D;" d="M282.406,129.803c-0.076-0.177-0.158-0.345-0.239-0.51c0.812-0.369,1.296-0.617,1.296-0.617
										s-0.953-13.587-2.502-13.796c-0.608-0.082-17.262,3.837-21.463,14.886c-0.114,0.3-0.092,0.587,0.03,0.859
										c-0.105,0.221-0.202,0.446-0.286,0.675c-0.626,1.7-0.712,3.567-0.462,5.33c0.119,0.837,1.64,5.632,2.422,5.709
										c0.353,0.035,2.26-6.167,3.406-9.576c1.908,0.246,4.152,0.263,6.405-0.039c2.56-0.343,5.121-1.092,7.254-1.854
										c1.608,2.167,5,6.497,5.567,6.52C284.379,137.41,282.912,130.977,282.406,129.803z"/>
								</g>
							</g>
						</g>
					</g>
				</g>
				<g>
					<path style="fill:#3A5785;" d="M330.457,120.626l0.651,2.004c0.091,0.279,0.35,0.468,0.643,0.468h2.107
						c0.655,0,0.928,0.839,0.398,1.224l-1.704,1.238c-0.237,0.172-0.336,0.478-0.246,0.756l0.651,2.004
						c0.202,0.623-0.511,1.142-1.041,0.756l-1.704-1.238c-0.237-0.172-0.558-0.172-0.795,0l-1.704,1.238
						c-0.53,0.385-1.243-0.133-1.041-0.756l0.651-2.004c0.091-0.279-0.009-0.584-0.246-0.756l-1.704-1.238
						c-0.53-0.385-0.258-1.224,0.398-1.224h2.107c0.293,0,0.553-0.189,0.643-0.468l0.651-2.004
						C329.373,120.002,330.254,120.002,330.457,120.626z"/>
					<path style="fill:#3A5785;" d="M344.254,120.626l0.651,2.004c0.09,0.279,0.35,0.468,0.643,0.468h2.107
						c0.655,0,0.928,0.839,0.398,1.224l-1.704,1.238c-0.237,0.172-0.336,0.478-0.246,0.756l0.651,2.004
						c0.202,0.623-0.511,1.142-1.041,0.756l-1.704-1.238c-0.237-0.172-0.558-0.172-0.795,0l-1.704,1.238
						c-0.53,0.385-1.243-0.133-1.041-0.756l0.651-2.004c0.091-0.279-0.009-0.584-0.246-0.756l-1.704-1.238
						c-0.53-0.385-0.258-1.224,0.398-1.224h2.107c0.293,0,0.553-0.189,0.643-0.468l0.651-2.004
						C343.17,120.002,344.052,120.002,344.254,120.626z"/>
					<path style="fill:#3A5785;" d="M358.052,120.626l0.651,2.004c0.091,0.279,0.35,0.468,0.643,0.468h2.107
						c0.655,0,0.928,0.839,0.398,1.224l-1.704,1.238c-0.237,0.172-0.336,0.478-0.246,0.756l0.651,2.004
						c0.203,0.623-0.511,1.142-1.041,0.756l-1.704-1.238c-0.237-0.172-0.558-0.172-0.795,0l-1.704,1.238
						c-0.53,0.385-1.243-0.133-1.041-0.756l0.651-2.004c0.091-0.279-0.009-0.584-0.246-0.756l-1.704-1.238
						c-0.53-0.385-0.258-1.224,0.398-1.224h2.107c0.293,0,0.553-0.189,0.643-0.468l0.651-2.004
						C356.967,120.002,357.849,120.002,358.052,120.626z"/>
					<path style="fill:#3A5785;" d="M371.849,120.626l0.651,2.004c0.091,0.279,0.35,0.468,0.643,0.468h2.107
						c0.655,0,0.928,0.839,0.398,1.224l-1.704,1.238c-0.237,0.172-0.336,0.478-0.246,0.756l0.651,2.004
						c0.203,0.623-0.511,1.142-1.041,0.756l-1.704-1.238c-0.237-0.172-0.558-0.172-0.795,0l-1.704,1.238
						c-0.53,0.385-1.243-0.133-1.041-0.756l0.651-2.004c0.09-0.279-0.009-0.584-0.246-0.756l-1.704-1.238
						c-0.53-0.385-0.258-1.224,0.398-1.224h2.107c0.293,0,0.553-0.189,0.643-0.468l0.651-2.004
						C370.765,120.002,371.647,120.002,371.849,120.626z"/>
					<path style="fill:#CBD9EC;" d="M385.646,120.626l0.651,2.004c0.09,0.279,0.35,0.468,0.643,0.468h2.107
						c0.655,0,0.928,0.839,0.398,1.224l-1.704,1.238c-0.237,0.172-0.336,0.478-0.246,0.756l0.651,2.004
						c0.203,0.623-0.511,1.142-1.041,0.756l-1.704-1.238c-0.237-0.172-0.558-0.172-0.795,0l-1.704,1.238
						c-0.53,0.385-1.243-0.133-1.041-0.756l0.651-2.004c0.09-0.279-0.009-0.584-0.246-0.756l-1.704-1.238
						c-0.53-0.385-0.258-1.224,0.398-1.224h2.107c0.293,0,0.553-0.189,0.643-0.468l0.651-2.004
						C384.562,120.002,385.444,120.002,385.646,120.626z"/>
				</g>
				<path style="fill:#FFFFFF;" d="M397.224,143.168h-74.002c-1.947,0-3.525-1.578-3.525-3.525v-1.594
					c0-1.947,1.578-3.525,3.525-3.525h74.002c1.947,0,3.525,1.578,3.525,3.525v1.594
					C400.749,141.59,399.171,143.168,397.224,143.168z"/>
				
					<rect x="447.198" y="152.082" style="fill:none;stroke:#FFFFFF;stroke-width:3;stroke-miterlimit:10;" width="27.268" height="27.268"/>
				<line style="fill:none;stroke:#FFFFFF;stroke-miterlimit:10;" x1="233.037" y1="197.308" x2="472.466" y2="197.308"/>
				
					<line style="fill:none;stroke:#FFFFFF;stroke-width:3;stroke-miterlimit:10;" x1="320.162" y1="154.077" x2="427.906" y2="154.077"/>
				
					<line style="fill:none;stroke:#FFFFFF;stroke-width:3;stroke-miterlimit:10;" x1="320.162" y1="166.049" x2="427.906" y2="166.049"/>
				
					<line style="fill:none;stroke:#FFFFFF;stroke-width:3;stroke-miterlimit:10;" x1="320.162" y1="178.02" x2="427.906" y2="178.02"/>
			</g>
			<g>
				<g>
					
						<ellipse transform="matrix(0.7071 -0.7071 0.7071 0.7071 -96.7071 268.3539)" style="fill:#CBD9EC;" cx="275.578" cy="250.913" rx="36.337" ry="36.337"/>
					<g>
						<defs>
							
								<ellipse id="SVGID_00000049223248756611171290000013190370471904155797_" transform="matrix(0.9724 -0.2334 0.2334 0.9724 -50.9923 71.311)" cx="275.845" cy="251.135" rx="36.337" ry="36.337"/>
						</defs>
						<clipPath id="SVGID_00000022542524839161333050000004445794769906691481_">
							<use xlink:href="#SVGID_00000049223248756611171290000013190370471904155797_"  style="overflow:visible;"/>
						</clipPath>
						<g style="clip-path:url(#SVGID_00000022542524839161333050000004445794769906691481_);">
							<g>
								<g>
									<g>
										<path style="fill:#05093D;" d="M263.118,232.268c0.701-3.441,2.774-9.891,8.336-11.304
											c5.383-1.367,10.119-1.021,15.356,2.616c10.122,7.029,3.936,43.3,3.936,43.3s-3.816,8.265-31.772-2.531
											C258.974,264.35,262.191,236.818,263.118,232.268z"/>
									</g>
									<g>
										
											<path style="fill:#FBB78B;stroke:#FBB78B;stroke-width:1.2036;stroke-linecap:round;stroke-linejoin:round;stroke-miterlimit:10;" d="
											M267.685,245.302c0,0-2.671,20.81-2.935,22.482c0,0,9.019,10.756,18.246,1.507c0,0-1.56-5.046-4.398-18.039
											L267.685,245.302z"/>
										<path style="fill:#05093D;" d="M274.976,274.13c0,0-0.878,4.412,8.349-4.838c0,0-0.758-4.179-1.375-6.534L274.976,274.13z
											"/>
										<path style="fill:#05093D;" d="M279.305,251.437c-0.75,2.721-5.401,4.992-7.973,4.446
											c-3.132-0.665-4.521-6.247-4.226-8.551c0.248-1.938,5.612-2.98,8.147-2.281
											C277.788,245.75,280.056,248.716,279.305,251.437z"/>
									</g>
									<g>
										<g>
											<g>
												<path style="fill:#FBB78B;stroke:#FBB78B;stroke-width:1.1709;stroke-miterlimit:10;" d="M263.667,234.93l3.612,0.631
													l-0.703,4.027l-3.612-0.63c-1.112-0.194-1.856-1.253-1.662-2.365v0C261.496,235.48,262.555,234.736,263.667,234.93z"/>
												<path style="fill:#E6795C;stroke:#E6795C;stroke-width:1.1586;stroke-miterlimit:10;" d="M263.337,235.976l1.491,0.26
													l-0.29,1.663l-1.491-0.26c-0.459-0.08-0.766-0.517-0.686-0.977l0,0C262.441,236.203,262.878,235.895,263.337,235.976z"
													/>
											</g>
											<g>
												<path style="fill:#FBB78B;stroke:#FBB78B;stroke-width:1.1709;stroke-miterlimit:10;" d="M287.207,243.38l-3.497-1.101
													l1.227-3.9l3.497,1.101c1.077,0.339,1.675,1.487,1.336,2.564l0,0C289.431,243.121,288.283,243.719,287.207,243.38z"/>
												<path style="fill:#E6795C;stroke:#E6795C;stroke-width:1.1586;stroke-miterlimit:10;" d="M288.14,240.591l-1.436-0.479
													l-0.534,1.601l1.436,0.479c0.442,0.148,0.92-0.092,1.068-0.534l0,0C288.821,241.216,288.582,240.738,288.14,240.591z"/>
											</g>
											<path style="fill:#FBB78B;stroke:#FBB78B;stroke-width:1.1709;stroke-miterlimit:10;" d="M279.877,226.844l0.001,0
												c6.491,2.059,9.044,8.818,6.985,15.309l-0.157,0.496c-2.059,6.49-9.034,10.659-14.456,8.843l-0.043-0.027
												c-4.23-1.64-9.878-9.59-7.82-16.08l0.157-0.496C266.604,228.399,273.387,224.786,279.877,226.844z"/>
										</g>
										<g>
											<path style="fill:#FFFFFF;" d="M273.523,246.76l0.476,0.114c1.68,0.401,3.367-0.636,3.768-2.316l0,0l-6.56-1.565l0,0
												C270.806,244.673,271.843,246.36,273.523,246.76z"/>
											<path style="fill:#05093D;" d="M277.403,240.287c-0.114,0.476,0.086,0.931,0.446,1.018s0.746-0.228,0.86-0.704
												c0.114-0.476-0.085-0.931-0.446-1.018C277.902,239.497,277.517,239.812,277.403,240.287z"/>
											<path style="fill:#05093D;" d="M272.311,239.057c-0.15,0.466,0.015,0.935,0.368,1.049
												c0.353,0.113,0.761-0.172,0.911-0.637c0.15-0.466-0.015-0.935-0.368-1.049
												C272.868,238.306,272.46,238.591,272.311,239.057z"/>
											<path style="fill:#EB8383;" d="M273.914,242.331l1.709,0.465c0.21,0.057,0.425-0.178,0.403-0.443l-0.192-2.359
												c-0.024-0.3-0.325-0.397-0.511-0.164l-1.516,1.895C273.635,241.938,273.694,242.272,273.914,242.331z"/>
											<path style="fill:#05093D;" d="M271.244,236.709c-0.548,0.174,0.585-1.016,1.251-0.986
												c0.665,0.03,1.184,0.519,1.158,1.094C273.653,236.816,272.561,236.293,271.244,236.709z"/>
											<path style="fill:#05093D;" d="M280.683,238.922c0.408,0.406-0.054-1.171-0.658-1.45c-0.604-0.279-1.29-0.082-1.531,0.44
												C278.494,237.912,279.704,237.948,280.683,238.922z"/>
										</g>
									</g>
									<g>
										<path style="fill:#05093D;" d="M272.321,226.126c-4.912,8.139,16.098,13.074,16.098,13.074s3.342-15.803-14.151-16.262
											C262.968,222.641,272.804,225.326,272.321,226.126z"/>
										<path style="fill:#05093D;" d="M273.815,225.918c0,0-5.078,7.212-6.367,8.442c-1.472,1.406-3.772-0.222-3.772-0.222
											S264.409,222.874,273.815,225.918z"/>
									</g>
									<g>
										<g>
											<path style="fill:#FCCC4F;" d="M292.918,248.9c0,2.355-1.909,4.264-4.264,4.264s-4.264-1.909-4.264-4.264
												c0-2.355,1.909-4.265,4.264-4.265S292.918,246.544,292.918,248.9z"/>
											<path style="fill:#FCCC4F;" d="M288.852,244.073c0,0.472-0.383,0.854-0.854,0.854c-0.472,0-0.854-0.382-0.854-0.854
												c0-0.472,0.382-0.854,0.854-0.854C288.469,243.219,288.852,243.601,288.852,244.073z"/>
										</g>
										<g>
											<path style="fill:#FCCC4F;" d="M264.35,245.753c-1.135,2.064-3.728,2.817-5.791,1.682
												c-2.064-1.135-2.817-3.728-1.682-5.791c1.135-2.064,3.728-2.817,5.792-1.682
												C264.732,241.096,265.485,243.689,264.35,245.753z"/>
											<path style="fill:#FCCC4F;" d="M263.113,239.564c-0.227,0.413-0.747,0.564-1.16,0.337
												c-0.413-0.227-0.564-0.747-0.337-1.16c0.227-0.413,0.747-0.564,1.16-0.337
												C263.189,238.631,263.34,239.151,263.113,239.564z"/>
										</g>
									</g>
								</g>
								<g>
									<g>
										<path style="fill:#FCCC4F;" d="M311.284,291.367l-9.173-22.572c-3.166-4.926-6.07-6.345-10.009-5.799
											c-1.259,0.175-2.313,0.536-3.221,1.024l-6.337,1.249c-9.164,6.212-17.31-2.86-17.31-2.86
											c-7.012-5.536-22.006,5.033-22.006,5.033l1.707,9.729c0,0,6.459,24.174,6.502,24.99
											c0.399,7.585-0.087,20.775,0.017,20.574c0.104-0.201,40.778,5.232,41.091,4.629c0.313-0.603,0.369-5.167,1.107-21.775
											c0.097-2.183,0.137-4.343,0.134-6.467L311.284,291.367z"/>
										<g>
											<defs>
												<path id="SVGID_00000138550663869605361540000012337563548390441876_" d="M311.284,291.367l-9.173-22.572
													c-3.166-4.926-6.07-6.345-10.009-5.799c-1.259,0.175-2.313,0.536-3.221,1.024l-6.337,1.249
													c-9.164,6.212-17.31-2.86-17.31-2.86c-7.012-5.536-24.536,5.033-24.536,5.033l4.238,9.729c0,0,6.459,24.174,6.502,24.99
													c0.399,7.585-0.087,20.775,0.017,20.574c0.104-0.201,40.778,5.232,41.091,4.629c0.313-0.603,0.369-5.167,1.107-21.775
													c0.097-2.183,0.137-4.343,0.134-6.467L311.284,291.367z"/>
											</defs>
											<clipPath id="SVGID_00000059311834756908065430000004414904015290190213_">
												<use xlink:href="#SVGID_00000138550663869605361540000012337563548390441876_"  style="overflow:visible;"/>
											</clipPath>
											<g style="clip-path:url(#SVGID_00000059311834756908065430000004414904015290190213_);">
												<g>
													<g>
														<path style="fill:#FFFFFF;" d="M271.977,324.348c-7.036-5.676-14.087-11.661-19.128-19.263
															c-2.352-3.547-4.291-7.39-5.49-11.484c-0.231-0.79-1.799-5.532-1.207-6.15c1.114-1.164,4.265,1.052,5.485,1.622
															c8.439,3.945,15.508,9.04,20.973,16.677c5.426,7.582,10.217,15.948,12.255,25.109
															c0.137,0.617,1.084,0.356,0.947-0.261c-2.283-10.262-7.942-19.935-14.43-28.121
															c-6.68-8.429-15.909-12.879-25.583-17.054c-0.31-0.134-0.767,0.012-0.739,0.424
															c1.166,17.066,13.663,29.064,26.222,39.195C271.77,325.436,272.47,324.745,271.977,324.348L271.977,324.348z"/>
													</g>
												</g>
												<g>
													<g>
														<path style="fill:#FFFFFF;" d="M240.429,255.34c13.039,21.48,28.367,44.494,54.232,51.054
															c0.443,0.112,0.73-0.342,0.555-0.722c-5.486-11.864-12.446-22.962-20.861-32.972
															c-8.001-9.517-17.902-20.346-29.433-25.532c-0.572-0.257-1.072,0.589-0.496,0.848
															c10.964,4.93,20.417,15.116,28.159,24.114c4.123,4.792,7.933,9.855,11.387,15.15
															c3.176,4.869,7.073,10.358,8.984,15.883c0.537,1.553,1.158,1.438-0.332,1.675c-1.008,0.161-2.749-0.858-3.754-1.232
															c-3.173-1.182-6.218-2.68-9.13-4.402c-5.22-3.088-9.985-6.911-14.286-11.18c-9.77-9.696-17.077-21.481-24.178-33.179
															C240.949,254.305,240.099,254.798,240.429,255.34L240.429,255.34z"/>
													</g>
												</g>
												<g>
													<g>
														<path style="fill:#FFFFFF;" d="M285.762,264.719c3.432,15.465,16.183,28.136,32.857,26.126
															c0.62-0.075,0.627-1.058,0-0.982c-16.262,1.961-28.568-10.348-31.909-25.405
															C286.572,263.841,285.625,264.102,285.762,264.719L285.762,264.719z"/>
													</g>
												</g>
											</g>
										</g>
									</g>
								</g>
							</g>
						</g>
					</g>
				</g>
				<g>
					<path style="fill:#3A5785;" d="M330.457,224.378l0.651,2.004c0.091,0.279,0.35,0.467,0.643,0.467h2.107
						c0.655,0,0.928,0.839,0.398,1.224l-1.704,1.238c-0.237,0.172-0.336,0.478-0.246,0.756l0.651,2.004
						c0.202,0.623-0.511,1.142-1.041,0.756l-1.704-1.238c-0.237-0.172-0.558-0.172-0.795,0l-1.704,1.238
						c-0.53,0.385-1.243-0.133-1.041-0.756l0.651-2.004c0.091-0.279-0.009-0.584-0.246-0.756l-1.704-1.238
						c-0.53-0.385-0.258-1.224,0.398-1.224h2.107c0.293,0,0.553-0.189,0.643-0.467l0.651-2.004
						C329.373,223.755,330.254,223.755,330.457,224.378z"/>
					<path style="fill:#3A5785;" d="M344.254,224.378l0.651,2.004c0.09,0.279,0.35,0.467,0.643,0.467h2.107
						c0.655,0,0.928,0.839,0.398,1.224l-1.704,1.238c-0.237,0.172-0.336,0.478-0.246,0.756l0.651,2.004
						c0.202,0.623-0.511,1.142-1.041,0.756l-1.704-1.238c-0.237-0.172-0.558-0.172-0.795,0l-1.704,1.238
						c-0.53,0.385-1.243-0.133-1.041-0.756l0.651-2.004c0.091-0.279-0.009-0.584-0.246-0.756l-1.704-1.238
						c-0.53-0.385-0.258-1.224,0.398-1.224h2.107c0.293,0,0.553-0.189,0.643-0.467l0.651-2.004
						C343.17,223.755,344.052,223.755,344.254,224.378z"/>
					<path style="fill:#3A5785;" d="M358.052,224.378l0.651,2.004c0.091,0.279,0.35,0.467,0.643,0.467h2.107
						c0.655,0,0.928,0.839,0.398,1.224l-1.704,1.238c-0.237,0.172-0.336,0.478-0.246,0.756l0.651,2.004
						c0.203,0.623-0.511,1.142-1.041,0.756l-1.704-1.238c-0.237-0.172-0.558-0.172-0.795,0l-1.704,1.238
						c-0.53,0.385-1.243-0.133-1.041-0.756l0.651-2.004c0.091-0.279-0.009-0.584-0.246-0.756l-1.704-1.238
						c-0.53-0.385-0.258-1.224,0.398-1.224h2.107c0.293,0,0.553-0.189,0.643-0.467l0.651-2.004
						C356.967,223.755,357.849,223.755,358.052,224.378z"/>
					<path style="fill:#3A5785;" d="M371.849,224.378l0.651,2.004c0.091,0.279,0.35,0.467,0.643,0.467h2.107
						c0.655,0,0.928,0.839,0.398,1.224l-1.704,1.238c-0.237,0.172-0.336,0.478-0.246,0.756l0.651,2.004
						c0.203,0.623-0.511,1.142-1.041,0.756l-1.704-1.238c-0.237-0.172-0.558-0.172-0.795,0l-1.704,1.238
						c-0.53,0.385-1.243-0.133-1.041-0.756l0.651-2.004c0.09-0.279-0.009-0.584-0.246-0.756l-1.704-1.238
						c-0.53-0.385-0.258-1.224,0.398-1.224h2.107c0.293,0,0.553-0.189,0.643-0.467l0.651-2.004
						C370.765,223.755,371.647,223.755,371.849,224.378z"/>
					<path style="fill:#3A5785;" d="M385.646,224.378l0.651,2.004c0.09,0.279,0.35,0.467,0.643,0.467h2.107
						c0.655,0,0.928,0.839,0.398,1.224l-1.704,1.238c-0.237,0.172-0.336,0.478-0.246,0.756l0.651,2.004
						c0.203,0.623-0.511,1.142-1.041,0.756l-1.704-1.238c-0.237-0.172-0.558-0.172-0.795,0l-1.704,1.238
						c-0.53,0.385-1.243-0.133-1.041-0.756l0.651-2.004c0.09-0.279-0.009-0.584-0.246-0.756l-1.704-1.238
						c-0.53-0.385-0.258-1.224,0.398-1.224h2.107c0.293,0,0.553-0.189,0.643-0.467l0.651-2.004
						C384.562,223.755,385.444,223.755,385.646,224.378z"/>
				</g>
				<path style="fill:#FFFFFF;" d="M397.224,246.921h-74.002c-1.947,0-3.525-1.578-3.525-3.525v-1.594
					c0-1.947,1.578-3.525,3.525-3.525h74.002c1.947,0,3.525,1.578,3.525,3.525v1.594
					C400.749,245.343,399.171,246.921,397.224,246.921z"/>
				
					<rect x="447.198" y="255.835" style="fill:none;stroke:#FFFFFF;stroke-width:3;stroke-miterlimit:10;" width="27.268" height="27.268"/>
				<line style="fill:none;stroke:#FFFFFF;stroke-miterlimit:10;" x1="233.037" y1="301.06" x2="472.466" y2="301.06"/>
				
					<line style="fill:none;stroke:#FFFFFF;stroke-width:3;stroke-miterlimit:10;" x1="320.162" y1="257.83" x2="427.906" y2="257.83"/>
				
					<line style="fill:none;stroke:#FFFFFF;stroke-width:3;stroke-miterlimit:10;" x1="320.162" y1="269.802" x2="427.906" y2="269.802"/>
				
					<line style="fill:none;stroke:#FFFFFF;stroke-width:3;stroke-miterlimit:10;" x1="320.162" y1="281.773" x2="427.906" y2="281.773"/>
			</g>
			<g>
				<g>
					
						<ellipse transform="matrix(0.7071 -0.7071 0.7071 0.7071 -170.5417 298.9371)" style="fill:#FCFCFC;" cx="275.578" cy="355.331" rx="36.337" ry="36.337"/>
					<g>
						<defs>
							
								<ellipse id="SVGID_00000151509352265021478930000002804187621861274028_" transform="matrix(0.7071 -0.7071 0.7071 0.7071 -170.5417 298.9371)" cx="275.578" cy="355.331" rx="36.337" ry="36.337"/>
						</defs>
						<clipPath id="SVGID_00000093155522165790561370000013890698747988414380_">
							<use xlink:href="#SVGID_00000151509352265021478930000002804187621861274028_"  style="overflow:visible;"/>
						</clipPath>
						<g style="clip-path:url(#SVGID_00000093155522165790561370000013890698747988414380_);">
							<g>
								<g>
									<path style="fill:#A34E65;" d="M270.375,328.764c0,0-14.482,5.656-18.936,21.342c-4.455,15.687-10.661,29.915-22.14,30.762
										c-11.48,0.847-23.543,8.95-24.232,11.448c-0.689,2.497,37.003,56.642,68.422,43.293l4.041-28.538l0.538,22.199
										c0,0,0.992,4.158,12.098-3.142C301.271,418.828,304.691,319.117,270.375,328.764z"/>
									<g>
										<g>
											<path style="fill:#A34E65;" d="M278.366,328.529c-7.385-1.646-15.097,0.007-20.968,4.883
												c-7.038,5.844-8.721,14.941-10.136,23.496c-0.762,4.604-1.484,9.293-3.22,13.653c-2.89,7.258-8.563,10.033-16.157,10.201
												c-9.667,0.214-18.362-0.577-25.164,7.5c-0.84,0.997,0.595,2.445,1.441,1.441c7.709-9.153,17.703-5.683,27.985-7.218
												c7.576-1.131,11.966-5.793,14.393-12.834c2.865-8.312,2.604-17.393,5.85-25.593c4.062-10.26,14.599-15.979,25.436-13.564
												C279.102,330.779,279.648,328.815,278.366,328.529L278.366,328.529z"/>
										</g>
									</g>
								</g>
								<g>
									
										<path style="fill:#FFBBAA;stroke:#FFBBAA;stroke-width:1.2122;stroke-linecap:round;stroke-linejoin:round;stroke-miterlimit:10;" d="
										M282.258,352.181c0,0,2.516,21.711,2.93,23.366c0,0-6.587,7.393-16.143,2.068c0,0,1.046-6.441,2.731-19.729
										L282.258,352.181z"/>
									<path style="fill:#05093D;" d="M273.133,338.265L273.133,338.265c-4.183,0.92-5.66,7.312-4.132,14.26l0.117,0.531
										c1.525,6.935,5.865,10.478,9.422,10.699c2.857,0.178,6.013-6.561,4.485-13.51l0.351-1.069
										C281.848,342.228,277.315,337.346,273.133,338.265z"/>
								</g>
								<g>
									<g>
										<g>
											<path style="fill:#FFBBAA;stroke:#FFBBAA;stroke-width:1.1792;stroke-miterlimit:10;" d="M264.633,350.406l3.497-1.187
												l-1.323-3.899l-3.497,1.187c-1.077,0.365-1.653,1.535-1.288,2.611l0,0C262.387,350.195,263.556,350.771,264.633,350.406z
												"/>
											<path style="fill:#FFBBAA;stroke:#FFBBAA;stroke-width:1.1792;stroke-miterlimit:10;" d="M288.591,340.718l-3.552,1.011
												l1.127,3.96l3.552-1.01c1.094-0.311,1.728-1.45,1.417-2.544l0,0C290.824,341.041,289.685,340.406,288.591,340.718z"/>
											
												<path style="fill:#F08992;stroke:#F08992;stroke-width:1.1746;stroke-linecap:round;stroke-linejoin:round;stroke-miterlimit:10;" d="
												M289.032,341.731l-1.466,0.417l0.465,1.635l1.466-0.417c0.452-0.128,0.713-0.599,0.585-1.05l0,0
												C289.954,341.864,289.484,341.602,289.032,341.731z"/>
											
												<path style="fill:#F08992;stroke:#F08992;stroke-width:1.1746;stroke-linecap:round;stroke-linejoin:round;stroke-miterlimit:10;" d="
												M263.63,347.618l1.435-0.515l0.574,1.6l-1.435,0.514c-0.442,0.159-0.929-0.071-1.087-0.513l0,0
												C262.959,348.263,263.189,347.777,263.63,347.618z"/>
										</g>
										<path style="fill:#FFBBAA;stroke:#FFBBAA;stroke-width:1.1626;stroke-miterlimit:10;" d="M273.175,334.061l-0.001,0
											c-6.674,1.576-9.787,8.016-8.255,14.504l0.117,0.496c1.532,6.488,9.713,11.633,14.015,10.467
											c4.41-1.196,10.482-9.578,8.95-16.066l-0.117-0.496C286.352,336.478,279.849,332.486,273.175,334.061z"/>
									</g>
									<g>
										<path style="fill:#FFFFFF;" d="M277.787,354.036l0.491-0.13c1.731-0.46,2.762-2.236,2.302-3.967l0,0l-6.76,1.795l0,0
											C274.279,353.466,276.055,354.496,277.787,354.036z"/>
										<path style="fill:#05093D;" d="M278.148,346.218c0.129,0.49,0.536,0.809,0.908,0.71c0.372-0.098,0.569-0.575,0.439-1.066
											c-0.129-0.491-0.536-0.809-0.908-0.71C278.215,345.25,278.018,345.728,278.148,346.218z"/>
										<path style="fill:#05093D;" d="M272.893,347.598c0.092,0.499,0.474,0.846,0.852,0.777c0.378-0.07,0.61-0.531,0.518-1.03
											c-0.092-0.499-0.473-0.847-0.852-0.777C273.033,346.638,272.8,347.099,272.893,347.598z"/>
										<path style="fill:#F08992;" d="M275.966,349.8l1.789-0.415c0.22-0.051,0.3-0.372,0.151-0.602l-1.336-2.06
											c-0.17-0.262-0.492-0.202-0.547,0.101l-0.453,2.476C275.518,349.578,275.736,349.853,275.966,349.8z"/>
										<path style="fill:#05093D;" d="M270.765,345.978c-0.415,0.428,0.035-1.216,0.657-1.516c0.622-0.3,1.336-0.107,1.595,0.43
											C273.017,344.892,271.762,344.95,270.765,345.978z"/>
										<path style="fill:#05093D;" d="M280.471,343.359c0.572,0.17-0.625-1.043-1.314-1.001
											c-0.689,0.042-1.218,0.559-1.181,1.154C277.976,343.513,279.099,342.951,280.471,343.359z"/>
									</g>
								</g>
							</g>
							<g>
								<g>
									<path style="fill:#FF768F;" d="M285.409,374.321c-2.197,3.528-9.262,6.419-16.142-3.975c0,0-11.136-7.134-19.188,6.082
										c-7.268,11.928-7.35,12.3-7.35,12.3l15.079,12.918l1.046,28.025l43.237,1.41c0,0-4.604-20.008-3.794-23.247
										c0.136-0.542,13.28-22.089,13.28-22.089S294.335,359.991,285.409,374.321z"/>
									<line style="fill:#FF768F;" x1="258.546" y1="419.262" x2="299.019" y2="420.346"/>
								</g>
							</g>
							<path style="fill:#A34E65;" d="M263.741,345.385c0,0,7.641-2.381,9.434-11.324c0,0,8.135,7.679,14.55,6.294
								c0,0-6.415-11.81-15.236-8.165C263.668,335.835,263.814,341.23,263.741,345.385z"/>
						</g>
					</g>
				</g>
				<g>
					<path style="fill:#3A5785;" d="M330.457,328.796l0.651,2.004c0.091,0.279,0.35,0.467,0.643,0.467h2.107
						c0.655,0,0.928,0.839,0.398,1.224l-1.704,1.238c-0.237,0.172-0.336,0.478-0.246,0.756l0.651,2.004
						c0.202,0.623-0.511,1.142-1.041,0.756l-1.704-1.238c-0.237-0.172-0.558-0.172-0.795,0l-1.704,1.238
						c-0.53,0.385-1.243-0.133-1.041-0.756l0.651-2.004c0.091-0.279-0.009-0.584-0.246-0.756l-1.704-1.238
						c-0.53-0.385-0.258-1.224,0.398-1.224h2.107c0.293,0,0.553-0.189,0.643-0.467l0.651-2.004
						C329.373,328.173,330.254,328.173,330.457,328.796z"/>
					<path style="fill:#3A5785;" d="M344.254,328.796l0.651,2.004c0.09,0.279,0.35,0.467,0.643,0.467h2.107
						c0.655,0,0.928,0.839,0.398,1.224l-1.704,1.238c-0.237,0.172-0.336,0.478-0.246,0.756l0.651,2.004
						c0.202,0.623-0.511,1.142-1.041,0.756l-1.704-1.238c-0.237-0.172-0.558-0.172-0.795,0l-1.704,1.238
						c-0.53,0.385-1.243-0.133-1.041-0.756l0.651-2.004c0.091-0.279-0.009-0.584-0.246-0.756l-1.704-1.238
						c-0.53-0.385-0.258-1.224,0.398-1.224h2.107c0.293,0,0.553-0.189,0.643-0.467l0.651-2.004
						C343.17,328.173,344.052,328.173,344.254,328.796z"/>
					<path style="fill:#3A5785;" d="M358.052,328.796l0.651,2.004c0.091,0.279,0.35,0.467,0.643,0.467h2.107
						c0.655,0,0.928,0.839,0.398,1.224l-1.704,1.238c-0.237,0.172-0.336,0.478-0.246,0.756l0.651,2.004
						c0.203,0.623-0.511,1.142-1.041,0.756l-1.704-1.238c-0.237-0.172-0.558-0.172-0.795,0l-1.704,1.238
						c-0.53,0.385-1.243-0.133-1.041-0.756l0.651-2.004c0.091-0.279-0.009-0.584-0.246-0.756l-1.704-1.238
						c-0.53-0.385-0.258-1.224,0.398-1.224h2.107c0.293,0,0.553-0.189,0.643-0.467l0.651-2.004
						C356.967,328.173,357.849,328.173,358.052,328.796z"/>
					<path style="fill:#CBD9EC;" d="M371.849,328.796l0.651,2.004c0.091,0.279,0.35,0.467,0.643,0.467h2.107
						c0.655,0,0.928,0.839,0.398,1.224l-1.704,1.238c-0.237,0.172-0.336,0.478-0.246,0.756l0.651,2.004
						c0.203,0.623-0.511,1.142-1.041,0.756l-1.704-1.238c-0.237-0.172-0.558-0.172-0.795,0l-1.704,1.238
						c-0.53,0.385-1.243-0.133-1.041-0.756l0.651-2.004c0.09-0.279-0.009-0.584-0.246-0.756l-1.704-1.238
						c-0.53-0.385-0.258-1.224,0.398-1.224h2.107c0.293,0,0.553-0.189,0.643-0.467l0.651-2.004
						C370.765,328.173,371.647,328.173,371.849,328.796z"/>
					<path style="fill:#CBD9EC;" d="M385.646,328.796l0.651,2.004c0.09,0.279,0.35,0.467,0.643,0.467h2.107
						c0.655,0,0.928,0.839,0.398,1.224l-1.704,1.238c-0.237,0.172-0.336,0.478-0.246,0.756l0.651,2.004
						c0.203,0.623-0.511,1.142-1.041,0.756l-1.704-1.238c-0.237-0.172-0.558-0.172-0.795,0l-1.704,1.238
						c-0.53,0.385-1.243-0.133-1.041-0.756l0.651-2.004c0.09-0.279-0.009-0.584-0.246-0.756l-1.704-1.238
						c-0.53-0.385-0.258-1.224,0.398-1.224h2.107c0.293,0,0.553-0.189,0.643-0.467l0.651-2.004
						C384.562,328.173,385.444,328.173,385.646,328.796z"/>
				</g>
				<path style="fill:#FFFFFF;" d="M397.224,351.339h-74.002c-1.947,0-3.525-1.578-3.525-3.525v-1.594
					c0-1.947,1.578-3.525,3.525-3.525h74.002c1.947,0,3.525,1.578,3.525,3.525v1.594
					C400.749,349.761,399.171,351.339,397.224,351.339z"/>
				
					<rect x="447.198" y="360.253" style="fill:none;stroke:#FFFFFF;stroke-width:3;stroke-miterlimit:10;" width="27.268" height="27.268"/>
				<line style="fill:none;stroke:#FFFFFF;stroke-miterlimit:10;" x1="233.037" y1="405.478" x2="472.466" y2="405.478"/>
				
					<line style="fill:none;stroke:#FFFFFF;stroke-width:3;stroke-miterlimit:10;" x1="320.162" y1="362.248" x2="427.906" y2="362.248"/>
				
					<line style="fill:none;stroke:#FFFFFF;stroke-width:3;stroke-miterlimit:10;" x1="320.162" y1="374.219" x2="427.906" y2="374.219"/>
				
					<line style="fill:none;stroke:#FFFFFF;stroke-width:3;stroke-miterlimit:10;" x1="320.162" y1="386.191" x2="427.906" y2="386.191"/>
			</g>
		</g>
		<path style="fill:#CEDDF4;" d="M249.331,436.737c9.367,0,22.945-12.581,22.945-21.948h258.384c0,0-0.998,21.948-25.938,21.948
			H249.331"/>
	</g>
	<g>
		<g>
			<g>
				<path style="fill:#020F2B;" d="M584.693,255.656l-18.486-79.619c-0.259-2.079,3.503-7.057,5.326-8.102
					c4.993-2.86,11.158-3.271,16.792-2.1c18.364,3.815,33.971,77.232,30.905,75.463c0,0-27.56,14.393-36.477,8.537"/>
				<path style="fill:#F1ABA5;" d="M586.161,182.94c-0.008,0.277,0.211,0.506,0.488,0.505c1.158-0.005,3.831-0.252,4.208,2.778
					c0.382,3.063-2.537,4.786-4.293,4.882c-0.507,0.028-1.677,0.131-2.02,0.505c-1.056,1.149-1.552,3.659-2.365,6.788
					c-1.795,6.911,3.634,10.068,3.634,10.068s-18.103,8.9-17.935-0.022c0,0,1.431-16.413,1.347-16.498
					c-1.413-1.413-6.902-2.02-3.451-13.72c3.197-10.838,11.148-10.067,13.17-9.708C580.65,168.82,586.571,169.191,586.161,182.94z"
					/>
				<path style="fill:#020F2B;" d="M573.35,167.452c0,0,11.11,14.69,13.047,15.908C586.396,183.361,593.972,165.432,573.35,167.452z
					"/>
				<g>
					<path style="fill:#EC7165;" d="M589.541,187.1c0,0-1.82-3.84-4.13,1.305"/>
					<path style="fill:#F79288;" d="M576.097,182.954c-1.502-0.034-2.747,1.156-2.781,2.658c-0.034,1.502,1.156,2.747,2.658,2.781
						c1.502,0.034,2.747-1.156,2.781-2.658C578.789,184.232,577.599,182.987,576.097,182.954z"/>
					<path style="fill:#F79288;" d="M564.765,183.969c1.245-0.226,2.202-1.301,2.231-2.615c0.023-1.013-0.511-1.909-1.322-2.395
						C565.674,178.958,564.512,181.967,564.765,183.969z"/>
					<path style="fill:#FFFFFF;" d="M567.053,182.567l4.146,2.066c0,0-2.028,1.476-3.124,0.668
						C566.979,184.493,567.053,182.567,567.053,182.567z"/>
					<path style="fill:#EC7165;" d="M570.228,179.556l-0.656,2.96l-1.441-0.637c-0.266-0.117-0.309-0.477-0.078-0.654
						L570.228,179.556z"/>
					<path d="M575.548,178.446c0.36,0.503,0.151-1.252-0.44-1.655c-0.591-0.403-1.353-0.316-1.701,0.194
						C573.407,176.986,574.684,177.239,575.548,178.446z"/>
					<path d="M567.728,175.487c-0.595,0.167,0.665-1.071,1.378-1.016c0.714,0.055,1.253,0.599,1.206,1.216
						C570.312,175.687,569.158,175.085,567.728,175.487z"/>
					<path d="M573.157,180.624c-0.2,0.496-0.557,0.819-0.797,0.722c-0.24-0.097-0.273-0.577-0.073-1.073
						c0.2-0.496,0.557-0.819,0.797-0.722C573.324,179.648,573.357,180.128,573.157,180.624z"/>
					<path d="M569.316,178.795c-0.191,0.473-0.532,0.782-0.761,0.689c-0.23-0.093-0.261-0.551-0.07-1.025
						c0.191-0.473,0.532-0.782,0.762-0.689C569.476,177.862,569.507,178.321,569.316,178.795z"/>
					<path d="M569.226,191.946c0,0,5.168,0.987,7.777,0.819C579.612,192.597,566.549,207.598,569.226,191.946z"/>
				</g>
			</g>
			<ellipse style="fill:#839DC9;" cx="605.688" cy="453.78" rx="53.963" ry="3.105"/>
			<g>
				<path style="fill:#F1A9A5;" d="M572.061,430.809l-1.88,13.35c0,0-3.015,8.854-5.815,5.426c-2.8-3.427-5.571-5.239-5.571-5.239
					l-0.919-13.879L572.061,430.809z"/>
				<path style="fill:#F79288;" d="M564.733,431.309l-0.484,18.158c0,0,8.861,1.331,5.568-4.6l1.937-12.589L564.733,431.309z"/>
				<path style="fill:#F1A9A5;" d="M616.681,429.784l4.154,13.317c0,0,3.162,2.772,4.303,2.701c2.076-0.13,3.165-3.712,3.165-3.712
					l0.342-12.305H616.681z"/>
				<path style="fill:#F79288;" d="M622.666,426.224l2.905,22.031c0,0,5.956,1.573,2.663-4.358l0.726-16.947L622.666,426.224z"/>
				<path style="fill:#FF6E95;" d="M557.872,444.277l-11.181,9.063c-0.572,0.425-0.164,1.14,0.654,1.147l16.504,0.134
					c0.398,0.003,0.754-0.177,0.887-0.45l1.244-2.552c0.36-0.738,1.076-0.797,1.01-0.016l0.61,2.464
					c-0.033,0.388,3.913,0.282,3.948-0.071c0.216-2.191-0.24-9.355-0.633-11.35c-0.056-0.286-0.35-0.515-0.74-0.571l-0.002,0
					c-0.35-0.051-0.708,0.047-0.923,0.254c-1.114,1.078-4.676,4.321-6.574,3.664c-1.272-0.44-2.92-1.228-3.434-1.682
					C558.896,444.005,558.254,443.994,557.872,444.277z"/>
				<path style="fill:#FF6E95;" d="M628.457,441.628l6.349,10.634c0.678,1.034,0.301,2.268-0.925,2.997
					c-1.985,1.182-3.607,3.539-4.857,3.573c-2.257,0.063-5.765-2.314-7.81-3.206c-1.372-0.598-2.447-1.475-2.278-2.622l1.578-10.667
					c0.02-0.132,0.252-0.18,0.367-0.076l2.431,2.203c0.797,0.722,2.958,0.625,3.495-0.239c0.383-0.617,1.282-2.606,1.282-2.606
					C628.171,441.513,628.385,441.518,628.457,441.628z"/>
			</g>
			<g>
				<path style="fill:#2D4773;" d="M594.783,254.358c5.125,9.062,7.835,15.699,10.78,27.22
					c3.416,13.361,40.384,126.376,41.995,150.679c-4.21,1.015-32.171,0.867-34.831,0.719
					c-8.464-24.255-29.877-103.027-33.506-118.307c-0.558-2.349-4.187-1.833-3.904,0.564c2.06,17.449,13.158,90.945,18.69,117.787
					c-2.208,1.124-34.265,0.874-36.815,0.554c-2.773-29.928-17.492-143.227,4.728-179.953
					C572.081,252.22,584.48,254.051,594.783,254.358z"/>
				<path style="fill:none;stroke:#FFFFFF;stroke-width:0.3961;stroke-miterlimit:10;" d="M563.246,257.6
					c0,0-9.051,22.397-9.051,54.008c0,31.611,10.361,111.692,10.361,111.692"/>
				
					<line style="fill:none;stroke:#FFFFFF;stroke-width:0.3961;stroke-miterlimit:10;" x1="625.918" y1="423.301" x2="589.773" y2="256.569"/>
				<path style="fill:none;stroke:#FFFFFF;stroke-width:0.3961;stroke-miterlimit:10;" d="M583.436,257.453
					c0,0,0.307,28.955,13.303,26.672"/>
				<path style="opacity:0.21;" d="M562.067,258.19l41.834,31.501c0,0,1.746-17-5.686-30.952L562.067,258.19z"/>
				<path style="fill:none;stroke:#FFFFFF;stroke-width:0.3961;stroke-miterlimit:10;" d="M556.467,285.453
					c12.995,2.283,10.905-26.526,10.905-26.526"/>
			</g>
			<path style="fill:#C20034;" d="M581.514,204.917c0,0,2.651-0.766,2.212-0.202c-0.439,0.564-1.38,1.191-2.321,1.818
				L581.514,204.917z"/>
			
				<line style="fill:none;stroke:#FFFFFF;stroke-width:0.3961;stroke-miterlimit:10;" x1="592.067" y1="423.471" x2="555.952" y2="423.476"/>
			
				<line style="fill:none;stroke:#FFFFFF;stroke-width:0.3961;stroke-miterlimit:10;" x1="646.394" y1="423.159" x2="609.081" y2="423.476"/>
			<path style="fill:#D15449;" d="M607.22,308.673c0-0.222,0.222-2.586,0.222-2.586l-1.071,3.399L607.22,308.673z"/>
			<path style="fill:#D15449;" d="M600.514,312.035l-0.748,0.582c0,0,0.776,1.413,1.109,1.302
				C600.875,313.919,600.32,313.254,600.514,312.035z"/>
			<g>
				<path style="fill:#F1ABA5;" d="M521.808,229.339c0,0,27.345,37.92,33.753,33.399c0,0,7.35-5.189,3.654-26.374
					c-0.007-2.058-0.018-3.484,0.055-3.807c0,0,1.589-20.916,5.027-25.247c0.377-0.475,1.517-1.36,1.365-1.398
					c-10.5-2.625-14.518,23.772-17.412,35.984c-0.12,0.506-20.163-19.014-20.163-19.014s-10.499-13.882-11.231-13.088
					c-1.061,1.15,3.007,7.34,3.007,7.34s-0.265,0.707-1.061,1.061c-0.796,0.354-1.238,0.884-1.504,1.946
					c-0.265,1.061-1.326,1.68-1.503,2.299C515.617,223.06,519.567,227.718,521.808,229.339z"/>
				<path style="fill:#F1ABA5;" d="M527.733,222.795c0,0-2.122-6.014-3.007-5.837c-0.884,0.177-4.776,1.857-4.687,3.361
					c0.089,1.503,3.449,0.265,3.449,0.265s-0.619,3.361,1.061,3.803C526.229,224.829,527.733,222.795,527.733,222.795z"/>
				<g>
					<path style="fill:#F79288;" d="M522.515,220.319c0,0,0.089,1.503-1.15,1.769c0,0-0.265,1.592-1.857,1.238
						c0,0,0.442,0.707-0.531,0.884C518.978,224.21,523.134,228.72,522.515,220.319z"/>
					<g>
						<path style="fill:#EC7165;" d="M523.322,217.423c-0.728,0.53-1.483,0.989-2.242,1.438c-0.355,0.241-0.813,0.417-1.092,0.653
							c-0.145,0.115-0.253,0.255-0.27,0.348c-0.016,0.091,0.002,0.156,0.106,0.257c0.21,0.213,0.628,0.395,1.006,0.48
							c0.396,0.097,0.82,0.108,1.253,0.147c0.206,0.046,0.438-0.066,0.802,0.193c0.18,0.17,0.145,0.422,0.113,0.52l-0.086,0.324
							c-0.137,0.424-0.252,0.853-0.409,1.274l-0.039-0.007l0.242-1.306c0.016-0.208,0.151-0.463,0.005-0.611
							c-0.164-0.126-0.411-0.068-0.626-0.078c-0.869,0.002-1.832-0.053-2.542-0.654c-0.169-0.156-0.263-0.413-0.191-0.642
							c0.068-0.229,0.24-0.397,0.415-0.533c0.363-0.271,0.779-0.426,1.168-0.639l2.371-1.2L523.322,217.423z"/>
					</g>
					<g>
						<path style="fill:#EC7165;" d="M519.789,216.945c0.218,0.02,0.38,0.091,0.534,0.169c0.154,0.079,0.266,0.195,0.399,0.292
							c0.093,0.134,0.211,0.246,0.283,0.398c0.074,0.151,0.139,0.311,0.15,0.52l-0.029,0.027c-0.471-0.445-0.927-0.905-1.365-1.38
							L519.789,216.945z"/>
					</g>
					<g>
						<path style="fill:#EC7165;" d="M517.993,219.178c0.409,0.259,0.77,0.544,1.137,0.818c0.366,0.273,0.708,0.57,1.082,0.826
							c0.336,0.293,0.725,0.568,1.06,0.827c0.165,0.126,0.34,0.224,0.524,0.255c0.191,0.05,0.402,0.027,0.596-0.106l0.032,0.023
							c-0.313,0.409-0.916,0.334-1.301,0.099c-0.406-0.233-0.784-0.504-1.156-0.784c-0.732-0.575-1.405-1.224-2.005-1.934
							L517.993,219.178z"/>
					</g>
					<g>
						<path style="fill:#EC7165;" d="M521.457,222.091c0.025,0.528,0.005,1.184-0.594,1.625c-0.287,0.218-0.692,0.223-1.002,0.146
							c-0.321-0.078-0.591-0.226-0.836-0.39c-0.461-0.376-0.826-0.778-1.155-1.213c-0.324-0.438-0.627-0.89-0.854-1.397l0.031-0.025
							c0.337,0.416,0.689,0.82,1.051,1.213c0.365,0.389,0.73,0.787,1.159,1.099c0.409,0.304,0.975,0.564,1.452,0.296
							c0.468-0.27,0.604-0.854,0.707-1.361L521.457,222.091z"/>
					</g>
					<g>
						<path style="fill:#EC7165;" d="M519.617,223.06c0.098,0.343,0.071,0.703-0.029,1.047c-0.055,0.173-0.107,0.354-0.264,0.537
							c-0.066,0.087-0.266,0.19-0.341,0.207c-0.098,0.034-0.199,0.057-0.3,0.071c-0.4,0.087-0.804-0.111-1.076-0.214
							c-0.135-0.077-0.299-0.145-0.471-0.27c-0.16-0.139-0.247-0.306-0.296-0.481l0.03-0.026c0.206,0.268,0.508,0.385,0.833,0.452
							c0.313,0.104,0.627,0.184,0.948,0.162c0.156-0.016,0.328-0.036,0.434-0.146c0.11-0.111,0.19-0.256,0.257-0.402
							c0.127-0.296,0.226-0.616,0.235-0.937L519.617,223.06z"/>
					</g>
				</g>
			</g>
			<path style="fill:#FF6B82;" d="M565.662,205.913c0,0-6.8-0.952-9.512,4.59c-2.712,5.542-8.726,30.304-8.726,30.304
				l-16.744-16.036l-6.485,11.791c0,0,23.819,30.068,30.658,27.946C561.692,262.385,565.741,213.468,565.662,205.913z"/>
			<g>
				<path style="fill:#FF6B82;" d="M564.57,207.081c0.296,0.717-8.427,21.507-8.075,28.543c0.355,7.088,5.196,19.013,4.819,20.079
					c0,0,5.499,4.338,35.837-0.439c9.327-8.16,1.132-35.893-2-44.675c0,0-5.971-2.988-8.542-3.177
					C586.609,207.413,576.535,210.633,564.57,207.081z"/>
				<path style="fill:#FFEBF1;" d="M586.685,207.38l-4.297-5.62c0,0-5.12,3.639-12.805,6.324l0.132,2.013
					c0.26,3.962,4.597,6.267,8.024,4.262C581.311,212.269,585.138,209.668,586.685,207.38z"/>
				<path style="fill:#FFEBF1;" d="M568.552,201.453c0,0-1.283,4.869,1.134,6.727l-0.693,1.687c-0.803,2.322-4.235,1.92-4.441-0.529
					c-0.081-0.962-0.078-1.842,0.063-2.528L568.552,201.453z"/>
			</g>
			<g>
				<path style="fill:#FFC557;" d="M590.174,318.709l39.199-25.116l-16.266-25.386l-33.863,21.697
					c-2.947,1.888-3.805,5.808-1.917,8.755L590.174,318.709z"/>
			</g>
			<g>
				<path style="opacity:0.6;fill:#4E7A8F;" d="M604.073,273.201c0,0,6.319,2.934,1.435,20.849c-0.258,0.948-0.481,2.028-0.29,2.992
					l1.098,7.699c0.164,0.824,0.276,1.931-0.424,2.397c-0.876,0.583-5.865,5.167-6.471,5.37c-1.232,0.411,0.112-5.675-0.089-8.881
					c-0.036-0.571-0.172,2.03-0.248,3.168l-0.152,2.503c-1.492-0.683-1.461-3.557-1.694-4.526c-0.312-1.298-0.058-2.13,0.093-2.444
					c0.681-1.419,1.979-4.239,2.181-6.769c0.119-1.49-0.924-7.021-1.788-17.323L604.073,273.201z"/>
				<path style="fill:#F1ABA5;" d="M604.878,229.6c11.716,65.431,4.106,77.858,3.339,78.368c-0.96,0.639-6.428,5.664-7.093,5.885
					c-1.351,0.45,0.123-6.22-0.098-9.734c-0.039-0.626-0.189,2.225-0.272,3.472l-0.166,2.743c-1.635-0.748-1.602-3.899-1.857-4.96
					c-0.342-1.422-0.064-2.335,0.102-2.679c0.747-1.555,2.169-4.646,2.391-7.419c0.13-1.633-10.972-54.773-12.924-62.581
					c-2.653-10.61,0.686-22.798,4.421-23.21C597.355,208.973,603.907,224.181,604.878,229.6z"/>
				<path style="fill:#FF6B82;" d="M613.103,291.509c-0.472-2.004,2.05-40.176-6.464-65.149
					c-3.805-11.162-9.284-17.388-13.919-16.876c-3.735,0.412-7.074,12.6-4.421,23.21c1.952,7.808,6.055,42.66,9.475,60.465
					L613.103,291.509z"/>
			</g>
		</g>
		<g>
			<path style="fill:#FFC557;" d="M597.618,157.289l7.802-7.803h29.383c5.981,0,10.829-4.848,10.829-10.829v-2.349
				c0-5.981-4.848-10.829-10.829-10.829h-26.357c-5.981,0-10.829,4.848-10.829,10.829V157.289z"/>
			<g>
				<path style="fill:#FAFAFA;" d="M630.028,137.182c0,1.492,1.209,2.701,2.701,2.701s2.701-1.209,2.701-2.701
					c0-1.492-1.209-2.701-2.701-2.701S630.028,135.691,630.028,137.182z"/>
				<path style="fill:#FAFAFA;" d="M620.125,137.182c0,1.492,1.209,2.701,2.701,2.701c1.492,0,2.701-1.209,2.701-2.701
					c0-1.492-1.209-2.701-2.701-2.701C621.334,134.482,620.125,135.691,620.125,137.182z"/>
				<path style="fill:#FAFAFA;" d="M610.222,137.182c0,1.492,1.209,2.701,2.701,2.701c1.492,0,2.701-1.209,2.701-2.701
					c0-1.492-1.209-2.701-2.701-2.701C611.431,134.482,610.222,135.691,610.222,137.182z"/>
			</g>
		</g>
	</g>
	<g>
		<g>
			<ellipse style="fill:#839DC9;" cx="127.571" cy="435.837" rx="62.864" ry="3.617"/>
			<g>
				<polygon style="fill:#F0A5A9;" points="182.838,425.764 180.912,421.958 169.439,422.373 169.182,425.764 174.572,435.116 
					184.275,427.635 				"/>
				<path style="fill:#E6777D;" d="M175.839,422.34l-0.482,8.836c0,0-2.98-1.691-6.464-4.814l0.478-5.002L175.839,422.34z"/>
				<path style="fill:#2D4773;" d="M183.53,425.634c0,0-3.37-0.065-7.291,2.909c-2.335,1.771-5.861-1.882-6.942-2.826
					c-0.22-0.192-0.518-0.02-0.556,0.321l-1.356,12.35h34.14c0.397,0,0.719-0.419,0.719-0.935v-2.599
					c0-0.403-0.198-0.76-0.492-0.887L183.53,425.634z"/>
				
					<line style="fill:none;stroke:#FFFFFF;stroke-width:0.4846;stroke-miterlimit:10;" x1="185.449" y1="426.281" x2="179.953" y2="429.461"/>
				
					<line style="fill:none;stroke:#FFFFFF;stroke-width:0.4846;stroke-miterlimit:10;" x1="187.844" y1="427.507" x2="182.348" y2="430.686"/>
			</g>
			<g>
				<polygon style="fill:#F0A5A9;" points="127.214,425.764 125.288,421.958 114.76,420.379 113.558,425.764 118.949,435.116 
					128.652,427.635 				"/>
				<path style="fill:#E6777D;" d="M119.071,422.095l0.956,8.345c0,0-2.981-1.691-6.464-4.814l0.957-4.267L119.071,422.095z"/>
				<path style="fill:#2D4773;" d="M127.907,425.634c0,0-3.37-0.065-7.291,2.909c-2.335,1.771-5.861-1.882-6.942-2.826
					c-0.22-0.192-0.519-0.02-0.556,0.321l-1.356,12.35h34.14c0.397,0,0.719-0.419,0.719-0.935v-2.599
					c0-0.403-0.198-0.76-0.491-0.887L127.907,425.634z"/>
				
					<line style="fill:none;stroke:#FFFFFF;stroke-width:0.4846;stroke-miterlimit:10;" x1="130.597" y1="426.526" x2="125.101" y2="429.706"/>
				
					<line style="fill:none;stroke:#FFFFFF;stroke-width:0.4846;stroke-miterlimit:10;" x1="132.993" y1="427.752" x2="127.497" y2="430.931"/>
			</g>
			<path style="fill:#020F2B;" d="M168.727,147.138c2.371-3.778,3.151-9.424-0.995-11.941c-2.16-1.311-4.965-1.01-6.893,0.589
				c-0.893,0.741-1.564,1.677-2.107,2.698c-0.844-1.184-2.084-1.997-3.629-1.964c-1.321,0.028-2.86,1.043-3.835,2.366
				c-1.325-0.415-2.847-0.455-3.981-0.169c-2.932,0.738-3.454,4.588-1.834,6.847c-2.088,2.796-2.683,6.71,0.284,16.468l0.031,0.103
				l4.037,2.175l0.118-0.23l0,0l0,0l0.118-0.23l-0.314-0.169l4.023-13.009c0.52-0.361,3.86-2.574,5.611-1.215
				c1.78,1.381,3.815,2.707,5.407,2.074c0.708-0.281,1.347-0.985,1.815-1.63C167.597,149.279,168.286,148.288,168.727,147.138z
				 M166.962,136.545c1.547,0.932,2.174,2.435,2.212,4.085c-0.696-3.248-3.762-4.822-6.844-3.992
				C163.728,135.783,165.477,135.65,166.962,136.545z M147.088,162.122c0.468,0.148,1.145,0.454,1.766,1.086l-0.876-0.472
				L147.088,162.122z"/>
			<g>
				<path style="fill:#D15868;" d="M180.706,276.278c0,0,4.391,52.519,4.803,67.03c0.413,14.511-2.5,79.201-2.5,79.201
					l-18.264,0.323c0,0-12.759-108.527-30.499-143.523L180.706,276.278z"/>
				<path style="fill:none;stroke:#FFFFFF;stroke-width:0.4846;stroke-miterlimit:10;" d="M158.555,279.05
					c0,0,12.493,60.673,12.493,69.988s1.844,73.331,1.844,73.331"/>
				
					<line style="fill:none;stroke:#FFFFFF;stroke-width:0.4846;stroke-miterlimit:10;" x1="163.812" y1="415.766" x2="183.167" y2="415.766"/>
			</g>
			<g>
				<path style="fill:#FF6B82;" d="M180.744,276.278c0,0-10.152,43.779-20.463,74.752c-8.332,25.029-26.788,72.959-26.788,72.959
					l-20.481-0.51l17.788-71.705c0.947-3.735,1.544-7.553,1.787-11.407c0.915-14.544-2.075-43.933-3.325-62.764L180.744,276.278z"/>
				<g>
					<path style="fill:none;stroke:#020F2B;stroke-width:0.4846;stroke-miterlimit:10;" d="M145.173,277.093
						c0,0,4.797,56.745,0.485,65.571c-4.311,8.826-25.337,80.684-25.337,80.684"/>
					
						<line style="fill:none;stroke:#020F2B;stroke-width:0.4846;stroke-miterlimit:10;" x1="115.065" y1="416.989" x2="135.615" y2="416.989"/>
					
						<line style="fill:none;stroke:#020F2B;stroke-width:0.4846;stroke-miterlimit:10;" x1="162.378" y1="276.604" x2="147.085" y2="296.659"/>
				</g>
			</g>
			<g>
				<path style="fill:#F0A5A9;" d="M156.197,193.649c0,0-0.581-4.712,3.776-5.398c4.357-0.685,16.102-3.799,45.961,6.397
					c0,0,5.173-28.911,5.223-31.249c0.132-6.087,2.061-13.987,6.771-18.16c0.386-0.342,0.666,15.094,0.835,23.331
					c0,0,3.975,41.472-0.873,45.641C213.043,218.38,151.376,207.858,156.197,193.649z"/>
				<path style="fill:#2D4773;" d="M165.025,186.475c0,0-16.852-2.797-16.362,10.345s33.327,22.059,42.251,19.925l-2.764-29.191
					L165.025,186.475z"/>
				<path style="fill:#020F2B;stroke:#020F2B;stroke-width:0.5144;stroke-miterlimit:10;" d="M190.785,216.321
					c-2.62,3.143-28.26-3.455-31.072-7.736c0,0-0.438-14.352,0.654-14.648C171.499,190.919,190.785,216.321,190.785,216.321z"/>
			</g>
			<g>
				<path style="fill:#2D4773;" d="M141.053,184.99c0,0-22.934,2.342-24.378,21.334c-1.444,18.992,10.418,71.591,10.418,71.591
					l57.446-1.828l-3.139-65.273c-0.233-4.842-1.725-9.531-4.322-13.585c-2.398-3.744-5.206-7.989-6.801-8.188l-25.717-6.612
					L141.053,184.99z"/>
				<path style="fill:#263C61;" d="M136.317,192.139c-13.934-5.589-18.92,4.69-19.642,14.186
					c-1.444,18.992,10.418,71.591,10.418,71.591l57.446-1.828"/>
			</g>
			<path style="fill:#FFFFFF;" d="M166.675,251.179c0.13,1.001-0.03,1.848-0.355,1.892c-0.326,0.044-0.695-0.731-0.825-1.732
				c-0.13-1.001,0.03-1.848,0.356-1.892C166.176,249.403,166.545,250.178,166.675,251.179z"/>
			<g>
				<path style="fill:#F0A5A9;" d="M148.273,167.812l-1.341,12.91l13.305,11.096l1.96-5.762l-1.031-10.669l-10.726-9.709
					c0,0-1.65,1.174-1.856,1.6S148.273,167.812,148.273,167.812z"/>
				<path style="fill:#020F2B;" d="M150.439,165.678l10.726,9.709l0.758,6.347c0,0-9.737-2.682-10.076-10.729"/>
			</g>
			<g>
				<g>
					<path style="fill:#FFFFFF;" d="M162.21,200.152c0.129,1.001-0.03,1.848-0.356,1.892c-0.326,0.044-0.695-0.731-0.825-1.732
						c-0.13-1.001,0.03-1.848,0.356-1.892C161.711,198.375,162.08,199.151,162.21,200.152z"/>
					<path style="fill:#FFFFFF;" d="M163.103,210.357c0.13,1.001-0.03,1.848-0.356,1.892s-0.695-0.731-0.825-1.732
						c-0.13-1.001,0.03-1.848,0.356-1.892S162.973,209.356,163.103,210.357z"/>
					<path style="fill:#FFFFFF;" d="M163.996,220.563c0.13,1.001-0.03,1.848-0.355,1.892c-0.326,0.044-0.695-0.731-0.825-1.732
						c-0.13-1.001,0.03-1.848,0.355-1.892C163.497,218.786,163.866,219.562,163.996,220.563z"/>
					<path style="fill:#FFFFFF;" d="M164.889,230.768c0.13,1.001-0.03,1.848-0.356,1.892c-0.326,0.044-0.695-0.731-0.825-1.732
						c-0.13-1.001,0.03-1.848,0.356-1.892S164.759,229.767,164.889,230.768z"/>
					<path style="fill:#FFFFFF;" d="M165.782,240.974c0.13,1.001-0.03,1.848-0.356,1.892c-0.326,0.044-0.695-0.731-0.825-1.732
						c-0.13-1.001,0.03-1.848,0.356-1.892C165.283,239.197,165.652,239.973,165.782,240.974z"/>
					<path style="fill:#FFFFFF;" d="M167.568,261.385c0.13,1.001-0.03,1.848-0.356,1.892c-0.326,0.044-0.695-0.731-0.825-1.732
						c-0.13-1.001,0.03-1.848,0.356-1.892C167.069,259.608,167.438,260.384,167.568,261.385z"/>
					<path style="fill:#FFFFFF;" d="M168.46,271.59c0.13,1.001-0.03,1.848-0.356,1.892c-0.326,0.044-0.695-0.731-0.825-1.732
						c-0.13-1.001,0.03-1.848,0.355-1.892C167.962,269.814,168.331,270.59,168.46,271.59z"/>
				</g>
				<g>
					<polygon style="fill:#FFFFFF;" points="146.52,179.762 139.431,183.068 157.143,198.114 160.237,191.819 					"/>
					<path style="fill:#FFFFFF;" d="M162.197,184.67c0.309,0.107,3.094,2.027,3.094,2.027l0.103,9.496l-5.157-4.375L162.197,184.67z
						"/>
				</g>
			</g>
			<g>
				<g>
					<path style="fill:#2D4773;" d="M177.765,250.546l12.784-40.117c0.709-2.223,2.316-4.019,4.404-4.921l26.177-11.306
						c0.775-0.335,1.57,0.433,1.299,1.256l-12.917,39.302c-0.695,2.115-2.207,3.838-4.175,4.758l-26.244,12.264
						C178.319,252.143,177.499,251.38,177.765,250.546z"/>
					<path style="fill:#FFFFFF;" d="M179.963,252.895l12.784-40.116c0.709-2.224,2.315-4.019,4.404-4.921l26.177-11.306
						c0.775-0.335,1.57,0.433,1.299,1.256l-12.917,39.302c-0.695,2.115-2.207,3.838-4.175,4.758L181.29,254.13
						C180.517,254.492,179.697,253.729,179.963,252.895z"/>
					<polygon style="fill:#020F2B;stroke:#1D254A;stroke-width:0;stroke-miterlimit:10;" points="186.511,223.531 196.149,226.387 
						183.975,231.319 					"/>
					
						<line style="fill:none;stroke:#1D254A;stroke-width:0.5144;stroke-miterlimit:10;" x1="197.84" y1="214.964" x2="220.498" y2="205.273"/>
					
						<line style="fill:none;stroke:#1D254A;stroke-width:0.5144;stroke-miterlimit:10;" x1="197.84" y1="219.233" x2="216.553" y2="211.503"/>
					<polygon style="fill:#FFC557;" points="187.695,243.347 211.931,232.732 210.353,237.809 185.666,248.885 					"/>
				</g>
				<path style="fill:#F0A5A9;" d="M196.253,230.592c-1.414,1.271-26.821,27.329-39.002,39.069c-3.285,3.166-8.55,2.39-10.856-1.595
					l-21.395-35.857l20.273-15.73c0.144,0.223,10.738,18.231,13.178,27.264c0.803,2.971,2.193,2.743,4.604,1.267l18.5-11.404
					c0,0-0.031-3.234,0.38-4.457c0.782-2.325,4.491-5.447,4.491-5.447l-1.606,4.932c-0.289,0.831-1.238,1.432,0.258,1.611
					l11.748-8.707c0,0,1.071-0.087,0.056,1.067c-1.014,1.154-2.114,2.365-1.973,2.452s3.354-2.163,3.495-1.298
					c0.141,0.865-2.621,2.942-2.508,3.029c0.113,0.087,3.128-2.394,3.297-1.586c0.169,0.808-2.114,2.365-2.226,2.683
					c-0.113,0.317,2.48-1.673,2.593-1.24C199.672,227.079,197.062,229.866,196.253,230.592z"/>
				<path style="fill:#2D4773;" d="M139.907,200.538c0,0-5.776-16.218-16.915-9.389c-11.139,6.829-2.888,40.118,3.3,46.946
					l23.928-16.645L139.907,200.538z"/>
			</g>
			<g>
				<path style="fill:#F0A5A9;" d="M149.397,162.081c-0.129,0.341-0.55,0.441-0.807,0.189c-0.873-0.857-2.612-2.033-3.235,1.381
					c-0.847,4.636,3.99,3.838,4.376,4.463c0.782,1.266,3.289,5.518,7.027,7.168c2.278,1.006,5.652,1.165,8.14-1.224
					c2.488-2.389,3.602-0.753,2.558-26.293c0,0-1.14,2.199-2.779,2.766c-1.639,0.567-4.266-1.706-6.132-2.227
					c-1.516-0.423-4.454-1.534-6.25,3.739C151.47,154.465,150.157,160.071,149.397,162.081z"/>
				<g>
					<path style="fill:none;stroke:#1D254A;stroke-width:0.328;stroke-miterlimit:10;" d="M166.603,160.546
						c0,0-0.411-2.145-1.313,0.076"/>
					<path style="fill:none;stroke:#1D254A;stroke-width:0.328;stroke-miterlimit:10;" d="M159.294,160.677l-11.573,0.308
						c0,0-2.225-0.222-2.775,1.738"/>
					
						<ellipse style="fill:none;stroke:#1D254A;stroke-width:0.3361;stroke-miterlimit:10;" cx="168.335" cy="159.523" rx="1.792" ry="4.113"/>
					
						<ellipse style="fill:none;stroke:#1D254A;stroke-width:0.328;stroke-miterlimit:10;" cx="162.242" cy="160.009" rx="3.027" ry="4.932"/>
				</g>
				<g>
					<path style="fill:#FFFFFF;" d="M167.371,166.142c0,0-1.5,0.747-5.168,0.402c0,0,1.973,2.673,3.417,2.156
						C167.065,168.182,167.371,166.142,167.371,166.142z"/>
					<path style="fill:#E6777D;" d="M146.08,163.305l2.555,1.926C148.635,165.232,147.682,160.573,146.08,163.305z"/>
					<path style="fill:#020F2B;" d="M164.375,160.726c0,0.558-0.221,1.01-0.493,1.01c-0.273,0-0.493-0.452-0.493-1.01
						c0-0.558,0.221-1.01,0.493-1.01C164.154,159.716,164.375,160.169,164.375,160.726z"/>
					<path style="fill:#020F2B;" d="M167.587,160.232c0,0.558-0.221,1.01-0.493,1.01c-0.273,0-0.493-0.452-0.493-1.01
						c0-0.558,0.221-1.01,0.493-1.01C167.366,159.222,167.587,159.674,167.587,160.232z"/>
					<path style="fill:#020F2B;" d="M160.225,156.373c-0.731,0.511,0.413-1.799,1.407-2.057c0.994-0.257,1.976,0.247,2.193,1.125
						C163.824,155.441,161.982,155.146,160.225,156.373z"/>
					<path style="fill:#020F2B;" d="M167.739,156.128c-1.048-0.137-1.801,0.049-1.801,0.049c0.137-0.832,0.909-1.414,1.819-1.438"/>
					<path style="fill:#E6777D;" d="M166.076,160.203l1.504,4.279c0.025,0.07-0.02,0.145-0.088,0.15l-1.776,0.135
						c-0.062,0.005-0.113-0.051-0.109-0.118l0.271-4.414C165.887,160.117,166.037,160.092,166.076,160.203z"/>
				</g>
			</g>
		</g>
		<g>
			<path style="fill:#FF6B82;" d="M135.259,132.651l-7.816-7.816H98.008c-5.991,0-10.848-4.857-10.848-10.848v-2.353
				c0-5.991,4.857-10.848,10.848-10.848h26.402c5.991,0,10.848,4.857,10.848,10.848V132.651z"/>
			<g>
				<circle style="fill:#FAFAFA;" cx="100.087" cy="112.51" r="2.705"/>
				<path style="fill:#FAFAFA;" d="M112.713,112.51c0,1.494-1.211,2.706-2.705,2.706s-2.706-1.211-2.706-2.706
					c0-1.494,1.211-2.705,2.706-2.705S112.713,111.015,112.713,112.51z"/>
				<circle style="fill:#FAFAFA;" cx="119.927" cy="112.51" r="2.705"/>
			</g>
		</g>
	</g>
	<g>
		<g>
			<g>
				
					<ellipse transform="matrix(0.54 -0.8417 0.8417 0.54 83.7413 691.7615)" style="fill:#DAE5F7;" cx="674.718" cy="269.271" rx="23.163" ry="23.163"/>
				<g>
					<path style="fill:#839DC9;" d="M682.646,292.374H651.36c-2.055,0-3.721-1.666-3.721-3.721v-40.504
						c0-2.055,1.666-3.721,3.721-3.721h31.286c2.055,0,3.721,1.666,3.721,3.721v40.504
						C686.367,290.708,684.701,292.374,682.646,292.374z"/>
					<g>
						<path style="fill:#FFFFFF;stroke:#FFFFFF;stroke-width:0.161;stroke-miterlimit:10;" d="M677.34,288.44h-23.361
							c-0.853,0-1.545-0.67-1.545-1.496v-37.251c0-0.826,0.692-1.496,1.545-1.496h26.708c0.853,0,1.545,0.67,1.545,1.496v34.011
							C681.629,284.288,677.943,287.856,677.34,288.44z"/>
						<path style="fill:#D8CFCE;" d="M681.676,283.491l-4.82,4.82l-0.116-3.064c-0.039-1.049,0.821-1.91,1.87-1.87L681.676,283.491z
							"/>
						<g>
							<g>
								<path style="fill:#839DC9;" d="M656.506,249.293L656.506,249.293c-0.833,0-1.509-0.675-1.509-1.509v-4.626
									c0-0.833,0.675-1.509,1.509-1.509l0,0c0.833,0,1.509,0.676,1.509,1.509v4.626
									C658.015,248.617,657.34,249.293,656.506,249.293z"/>
								<path style="opacity:0.37;fill:#839DC9;" d="M656.506,251.304L656.506,251.304c-0.833,0-1.509-0.675-1.509-1.508v-4.627
									c0-0.833,0.675-1.508,1.509-1.508l0,0c0.833,0,1.509,0.675,1.509,1.508v4.627
									C658.015,250.629,657.34,251.304,656.506,251.304z"/>
							</g>
							<g>
								<path style="fill:#839DC9;" d="M666.162,249.293L666.162,249.293c-0.833,0-1.509-0.675-1.509-1.509v-4.626
									c0-0.833,0.675-1.509,1.509-1.509l0,0c0.833,0,1.509,0.676,1.509,1.509v4.626
									C667.67,248.617,666.995,249.293,666.162,249.293z"/>
								<path style="opacity:0.37;fill:#839DC9;" d="M666.162,251.304L666.162,251.304c-0.833,0-1.509-0.675-1.509-1.508v-4.627
									c0-0.833,0.675-1.508,1.509-1.508l0,0c0.833,0,1.509,0.675,1.509,1.508v4.627
									C667.67,250.629,666.995,251.304,666.162,251.304z"/>
							</g>
							<g>
								<path style="fill:#839DC9;" d="M675.817,249.293L675.817,249.293c-0.833,0-1.509-0.675-1.509-1.509v-4.626
									c0-0.833,0.675-1.509,1.509-1.509l0,0c0.833,0,1.509,0.676,1.509,1.509v4.626
									C677.326,248.617,676.65,249.293,675.817,249.293z"/>
								<path style="opacity:0.37;fill:#839DC9;" d="M675.817,251.304L675.817,251.304c-0.833,0-1.509-0.675-1.509-1.508v-4.627
									c0-0.833,0.675-1.508,1.509-1.508l0,0c0.833,0,1.509,0.675,1.509,1.508v4.627
									C677.326,250.629,676.65,251.304,675.817,251.304z"/>
							</g>
						</g>
						<g>
							<path style="fill:none;stroke:#7289B5;stroke-width:1.03;stroke-miterlimit:10;" d="M658.597,268.149
								c0,0.883-0.716,1.598-1.598,1.598c-0.883,0-1.598-0.716-1.598-1.598c0-0.883,0.716-1.598,1.598-1.598
								C657.881,266.55,658.597,267.266,658.597,268.149z"/>
							<path style="fill:none;stroke:#7289B5;stroke-width:1.03;stroke-miterlimit:10;" d="M658.597,274.999
								c0,0.883-0.716,1.598-1.598,1.598c-0.883,0-1.598-0.716-1.598-1.598c0-0.883,0.716-1.598,1.598-1.598
								C657.881,273.401,658.597,274.116,658.597,274.999z"/>
							<path style="fill:none;stroke:#7289B5;stroke-width:1.03;stroke-miterlimit:10;" d="M658.597,281.849
								c0,0.883-0.716,1.598-1.598,1.598c-0.883,0-1.598-0.716-1.598-1.598c0-0.883,0.716-1.598,1.598-1.598
								C657.881,280.251,658.597,280.967,658.597,281.849z"/>
							<g>
								<path style="fill:#7289B5;" d="M675.47,268.662h-12.875c-0.361,0-0.653-0.292-0.653-0.653v-0.001
									c0-0.361,0.292-0.653,0.653-0.653h12.875c0.361,0,0.653,0.292,0.653,0.653v0.001
									C676.123,268.369,675.831,268.662,675.47,268.662z"/>
								<path style="fill:#7289B5;" d="M675.47,275.702h-12.875c-0.361,0-0.653-0.293-0.653-0.653v-0.001
									c0-0.361,0.292-0.653,0.653-0.653h12.875c0.361,0,0.653,0.292,0.653,0.653v0.001
									C676.123,275.409,675.831,275.702,675.47,275.702z"/>
								<path style="fill:#7289B5;" d="M675.47,282.742h-12.875c-0.361,0-0.653-0.293-0.653-0.653v-0.001
									c0-0.361,0.292-0.653,0.653-0.653h12.875c0.361,0,0.653,0.293,0.653,0.653v0.001
									C676.123,282.45,675.831,282.742,675.47,282.742z"/>
							</g>
							
								<path style="fill:#1B1A4D;stroke:#1B1A4D;stroke-width:0.7725;stroke-linecap:round;stroke-linejoin:round;stroke-miterlimit:10;" d="
								M657.063,268.801c-0.103,0-0.201-0.047-0.274-0.13l-1.679-1.93c-0.151-0.174-0.151-0.456,0-0.63
								c0.151-0.174,0.397-0.174,0.548,0l1.405,1.615l2.439-2.803c0.151-0.174,0.397-0.174,0.548,0c0.151,0.174,0.151,0.456,0,0.63
								l-2.712,3.118C657.264,268.754,657.166,268.801,657.063,268.801z"/>
							
								<path style="fill:#1B1A4D;stroke:#1B1A4D;stroke-width:0.7725;stroke-linecap:round;stroke-linejoin:round;stroke-miterlimit:10;" d="
								M657.063,275.671c-0.103,0-0.201-0.047-0.274-0.13l-1.679-1.93c-0.151-0.174-0.151-0.456,0-0.63
								c0.151-0.174,0.397-0.174,0.548,0l1.405,1.615l2.439-2.803c0.151-0.174,0.397-0.174,0.548,0c0.151,0.174,0.151,0.456,0,0.63
								l-2.712,3.118C657.264,275.625,657.166,275.671,657.063,275.671z"/>
						</g>
					</g>
				</g>
				<g>
					<g>
						<g>
							
								<ellipse transform="matrix(0.973 -0.2309 0.2309 0.973 -43.6666 164.04)" style="opacity:0.74;fill:#FFFFFF;" cx="679.14" cy="268.616" rx="11.184" ry="11.184"/>
							
								<ellipse transform="matrix(0.973 -0.2309 0.2309 0.973 -43.6666 164.04)" style="fill:none;stroke:#FFD375;stroke-width:2.7834;stroke-miterlimit:10;" cx="679.14" cy="268.616" rx="11.184" ry="11.184"/>
							
								<line style="fill:none;stroke:#FFD375;stroke-width:3.7378;stroke-linecap:round;stroke-miterlimit:10;" x1="687.323" y1="277.006" x2="696.023" y2="284.878"/>
						</g>
					</g>
				</g>
			</g>
		</g>
		<g>
			<g>
				<circle style="fill:#B4CEF7;" cx="639.542" cy="182.114" r="17.41"/>
			</g>
			<g>
				
					<rect x="631.386" y="185.438" style="fill:none;stroke:#FFFFFF;stroke-width:0.7004;stroke-miterlimit:10;" width="6.295" height="6.295"/>
				<polyline style="fill:none;stroke:#FFFFFF;stroke-width:0.7004;stroke-linecap:round;stroke-miterlimit:10;" points="
					632.685,187.764 633.815,189.817 639.872,183.041 				"/>
			</g>
			<g>
				
					<rect x="631.386" y="172.86" style="fill:none;stroke:#FFFFFF;stroke-width:0.7004;stroke-miterlimit:10;" width="6.295" height="6.295"/>
				<polyline style="fill:none;stroke:#FFFFFF;stroke-width:0.7004;stroke-linecap:round;stroke-miterlimit:10;" points="
					632.685,175.187 633.815,177.24 639.872,170.464 				"/>
			</g>
			<g style="opacity:0.57;">
				<defs>
					
						<circle id="SVGID_00000135680838983769601190000004800531074436057778_" style="opacity:0.57;" cx="639.542" cy="182.114" r="17.41"/>
				</defs>
				<clipPath id="SVGID_00000137817100061477543070000007014597403160307873_">
					<use xlink:href="#SVGID_00000135680838983769601190000004800531074436057778_"  style="overflow:visible;"/>
				</clipPath>
				
					<path style="clip-path:url(#SVGID_00000137817100061477543070000007014597403160307873_);fill:#FFFFFF;stroke:#FFFFFF;stroke-width:0.6619;stroke-miterlimit:10;" d="
					M657.587,176.935h-14.685c-0.644,0-1.166-0.522-1.166-1.166l0,0c0-0.644,0.522-1.166,1.166-1.166h14.685
					c0.644,0,1.166,0.522,1.166,1.166l0,0C658.753,176.413,658.231,176.935,657.587,176.935z"/>
				
					<path style="clip-path:url(#SVGID_00000137817100061477543070000007014597403160307873_);fill:#FFFFFF;stroke:#FFFFFF;stroke-width:0.6619;stroke-miterlimit:10;" d="
					M658.733,189.428h-15.796c-0.663,0-1.201-0.538-1.201-1.201l0,0c0-0.663,0.538-1.201,1.201-1.201h15.796
					c0.663,0,1.201,0.538,1.201,1.201l0,0C659.935,188.89,659.397,189.428,658.733,189.428z"/>
			</g>
		</g>
	</g>
</g>
</svg>
