<?xml version="1.0" encoding="UTF-8" standalone="no"?>
<svg
   xmlns:dc="http://purl.org/dc/elements/1.1/"
   xmlns:cc="http://creativecommons.org/ns#"
   xmlns:rdf="http://www.w3.org/1999/02/22-rdf-syntax-ns#"
   xmlns:svg="http://www.w3.org/2000/svg"
   xmlns="http://www.w3.org/2000/svg"
   viewBox="0 0 4666.6665 2666.6667"
   height="2666.6667"
   width="4666.6665"
   xml:space="preserve"
   id="svg2"
   version="1.1"><metadata
     id="metadata8"><rdf:RDF><cc:Work
         rdf:about=""><dc:format>image/svg+xml</dc:format><dc:type
           rdf:resource="http://purl.org/dc/dcmitype/StillImage" /></cc:Work></rdf:RDF></metadata><defs
     id="defs6" /><g
     transform="matrix(1.3333333,0,0,-1.3333333,0,2666.6667)"
     id="g10"><g
       transform="scale(0.1)"
       id="g12"><g
         transform="scale(2.14724)"
         id="g14"><path
           id="path16"
           style="fill:#ffffff;fill-opacity:1;fill-rule:nonzero;stroke:none"
           d="M 16300,0 H 0 V 9314.29 H 16300 V 0" /></g><g
         transform="scale(1.97429)"
         id="g18"><path
           id="path20"
           style="fill:#e7f3fe;fill-opacity:1;fill-rule:nonzero;stroke:none"
           d="m 3394.76,8687.7 c 2104.42,781.25 4243.26,90.55 5693.85,-1413.8 725.53,-752.41 1849.69,-492.44 2994.29,-232.48 1144,259.81 2308.2,519.63 3115.2,-231.1 C 16300,5785.34 15795.3,3150.09 14284.4,2008.72 12230.9,457.278 5985.68,1244.5 4634.76,1508.49 3078.37,1812.7 1940.53,2735.56 1478.22,3855.66 364.305,6554.54 2464.77,8342.45 3394.76,8687.7" /></g><g
         transform="scale(1.28374)"
         id="g22"><path
           id="path24"
           style="fill:#9ec8ff;fill-opacity:1;fill-rule:nonzero;stroke:none"
           d="m 13643.1,10948.1 c -575.5,0 -1042.1,466.5 -1042.1,1042.1 0,575.5 466.6,1042 1042.1,1042 575.6,0 1042.1,-466.5 1042.1,-1042 0,-575.6 -466.5,-1042.1 -1042.1,-1042.1 m 2640.1,743.8 c 11,97.9 16.8,197.4 16.8,298.3 0,53.2 -1.8,106 -4.9,158.4 l -492.9,159.5 c -30.3,207.8 -89.9,406.1 -174.5,590.6 l 326.8,402.2 c -75.5,133 -162.2,258.9 -258.8,376.3 l -493,-160.8 c -143.8,146.8 -307.9,273.4 -488.1,375.1 l 28.1,517.9 c -137.6,62.7 -281.4,113.9 -430.3,152.6 l -304.5,-420.1 c -118.6,20 -240.4,30.5 -364.8,30.5 -84.7,0 -168.3,-5 -250.6,-14.4 l -281.8,435.6 c -151,-30.7 -297.3,-74.2 -437.8,-129.4 l 0.6,-518.7 c -185.6,-92.2 -356.2,-210 -507.2,-348.9 l -483.6,186.7 c -102.8,-112.3 -196.1,-233.4 -278.6,-362.2 l 305.2,-419 c -94.4,-180.1 -164.5,-375 -205.7,-580.4 l -500.6,-133.2 c -10.9,-98 -16.8,-197.5 -16.8,-298.3 0,-53.3 1.8,-106.1 4.8,-158.5 l 493,-159.5 c 30.4,-207.8 90,-406.1 174.5,-590.6 l -326.8,-402.2 c 75.6,-133 162.2,-258.9 258.8,-376.3 l 493.1,160.8 c 143.7,-146.8 307.8,-273.3 488,-375.1 l -28.1,-517.92 c 137.6,-62.63 281.4,-113.88 430.3,-152.52 l 304.5,420.08 c 118.6,-19.98 240.4,-30.52 364.8,-30.52 84.8,0 168.3,4.99 250.6,14.39 l 281.8,-435.62 c 151,30.71 297.3,74.24 437.9,129.39 l -0.7,518.72 c 185.6,92.2 356.3,210 507.2,348.9 l 483.6,-186.6 c 102.8,112.3 196.1,233.4 278.6,362.1 l -305.2,419 c 94.4,180.1 164.5,375 205.7,580.5 l 500.6,133.2" /></g><g
         transform="scale(1.22219)"
         id="g26"><path
           id="path28"
           style="fill:#ffffff;fill-opacity:1;fill-rule:nonzero;stroke:none"
           d="m 15823,11345.6 c -9.3,0 -18.5,3.1 -26.1,9.5 -17.4,14.4 -19.8,40.2 -5.3,57.6 275,330.8 426.6,750.3 426.6,1181.2 0,206.4 -33.8,409.1 -100.3,602.4 -7.4,21.3 3.9,44.6 25.2,52 21.5,7.3 44.7,-4 52.1,-25.4 69.5,-201.9 104.8,-413.5 104.8,-629 0,-450 -158.2,-888.1 -445.5,-1233.5 -8.1,-9.8 -19.7,-14.8 -31.5,-14.8" /></g><g
         transform="scale(1.17794)"
         id="g30"><path
           id="path32"
           style="fill:#ffffff;fill-opacity:1;fill-rule:nonzero;stroke:none"
           d="m 16253,14452.3 c -10.5,0 -20.9,3.8 -29.1,11.5 -191.8,180.6 -414,317.5 -660.4,406.9 -21.9,8 -33.3,32.3 -25.3,54.4 7.9,22 32.3,33.4 54.4,25.4 257.2,-93.4 489.2,-236.3 689.5,-424.9 17,-16 17.9,-42.9 1.9,-60 -8.5,-8.8 -19.7,-13.3 -31,-13.3" /></g><g
         transform="scale(1.08905)"
         id="g34"><path
           id="path36"
           style="fill:#ffffff;fill-opacity:1;fill-rule:nonzero;stroke:none"
           d="m 15605.6,16143.8 c -20.6,0 -39.3,13.9 -44.6,34.7 -6.1,24.6 8.7,49.5 33.4,55.7 172.9,43.7 351.8,65.8 531.8,65.8 25.3,0 45.9,-20.6 45.9,-45.9 0,-25.4 -20.6,-45.9 -45.9,-45.9 -172.5,0 -343.8,-21.2 -509.4,-63 -3.8,-1 -7.6,-1.4 -11.2,-1.4" /></g><path
         id="path38"
         style="fill:#9ec8ff;fill-opacity:1;fill-rule:nonzero;stroke:none"
         d="m 7803.93,5877.5 c -511.74,0 -926.59,414.9 -926.59,926.6 0,511.8 414.85,926.6 926.59,926.6 511.74,0 926.59,-414.8 926.59,-926.6 0,-511.7 -414.85,-926.6 -926.59,-926.6 m 2347.47,661.4 c 9.8,87.1 14.9,175.5 14.9,265.2 0,47.3 -1.5,94.3 -4.3,140.9 l -438.25,141.8 c -26.98,184.8 -79.97,361.1 -155.19,525.2 l 290.62,357.6 c -67.22,118.3 -144.29,230.2 -230.21,334.6 l -438.34,-143 c -127.76,130.5 -273.76,243.1 -433.93,333.5 l 24.93,460.6 c -122.32,55.7 -250.22,101.2 -382.64,135.6 l -270.67,-373.5 c -105.5,17.7 -213.84,27.1 -324.39,27.1 -75.36,0 -149.68,-4.4 -222.8,-12.8 l -250.59,387.4 C 7196.28,9091.7 7066.15,9053 6941.22,9004 l 0.57,-461.2 c -165.03,-82 -316.74,-186.8 -450.99,-310.2 l -430.03,165.9 c -91.38,-99.9 -174.34,-207.5 -247.65,-322 L 6084.5,7704 c -83.99,-160.2 -146.32,-333.5 -182.95,-516.2 l -445.11,-118.4 c -9.74,-87.1 -14.92,-175.6 -14.92,-265.3 0,-47.3 1.56,-94.3 4.31,-140.9 l 438.28,-141.8 c 26.97,-184.8 79.96,-361.1 155.19,-525.1 l -290.62,-357.6 c 67.22,-118.3 144.29,-230.3 230.21,-334.7 l 438.34,143.1 c 127.76,-130.6 273.76,-243.1 433.92,-333.6 L 6826.23,4653 c 122.32,-55.7 250.22,-101.3 382.64,-135.6 l 270.67,373.5 c 105.5,-17.8 213.84,-27.2 324.39,-27.2 75.36,0 149.67,4.5 222.8,12.8 l 250.59,-387.3 c 134.26,27.3 264.39,66 389.32,115 l -0.57,461.3 c 165.03,82 316.74,186.7 450.99,310.2 l 430.02,-165.9 c 91.39,99.8 174.34,207.5 247.66,321.9 l -271.39,372.6 c 84.01,160.2 146.33,333.5 182.96,516.1 l 445.09,118.5" /><path
         id="path40"
         style="fill:#ffffff;fill-opacity:1;fill-rule:nonzero;stroke:none"
         d="m 9067.69,5732 c -11.27,0 -22.6,3.8 -31.95,11.5 -21.23,17.7 -24.13,49.2 -6.47,70.5 230.58,277.2 357.58,628.9 357.58,990.1 0,173 -28.3,342.9 -84.1,504.9 -8.99,26.1 4.89,54.6 31,63.5 26.09,9 54.56,-4.8 63.55,-30.9 59.42,-172.6 89.55,-353.4 89.55,-537.5 0,-384.5 -135.2,-758.9 -380.69,-1054.1 -9.89,-11.9 -24.13,-18 -38.47,-18" /><path
         id="path42"
         style="fill:#ffffff;fill-opacity:1;fill-rule:nonzero;stroke:none"
         d="m 8933.54,7918.9 c -12.29,0 -24.6,4.5 -34.26,13.6 -154.96,145.9 -334.45,256.5 -533.46,328.7 -25.96,9.5 -39.36,38.1 -29.95,64.1 9.41,26 38.12,39.4 64.05,29.9 211.91,-76.8 402.97,-194.6 567.91,-349.8 20.11,-19 21.06,-50.6 2.13,-70.7 -9.84,-10.5 -23.11,-15.8 -36.42,-15.8" /><path
         id="path44"
         style="fill:#ffffff;fill-opacity:1;fill-rule:nonzero;stroke:none"
         d="m 7444.51,8305.1 c -22.35,0 -42.71,15.1 -48.44,37.8 -6.75,26.8 9.47,54 36.24,60.7 131.65,33.2 267.9,50.1 404.96,50.1 27.61,0 50,-22.4 50,-50 0,-27.6 -22.39,-50 -50,-50 -128.81,0 -256.83,-15.8 -380.48,-47 -4.1,-1.1 -8.23,-1.6 -12.28,-1.6" /><g
         transform="scale(1.42774)"
         id="g46"><path
           id="path48"
           style="fill:#9ec8ff;fill-opacity:1;fill-rule:nonzero;stroke:none"
           d="m 15077.8,8295.17 c -228.6,0 -414,185.34 -414,413.98 0,228.64 185.4,413.99 414,413.99 228.7,0 414,-185.35 414,-413.99 0,-228.64 -185.3,-413.98 -414,-413.98 z m 993.7,433.05 c 0,18.11 -0.5,36.09 -1.5,53.95 l 230,184.67 c -18.1,92.17 -46.3,180.66 -83.6,264.23 l -296.9,22.45 c -67.6,106.56 -155,199.22 -257.2,272.78 l -0.9,295.94 c -82.8,43.39 -170.9,77.74 -263.3,101.59 l -203,-218.44 c -35,3.77 -70.5,5.77 -106.5,5.77 -89.5,0 -176.1,-12.02 -258.5,-34.41 l -232.7,184.34 c -87.9,-38.16 -170.4,-86.18 -246.2,-142.77 l 44,-293.39 c -86.7,-86.36 -157.4,-188.84 -207.3,-302.55 l -289.5,-67.11 c -24.5,-89.4 -39.2,-182.84 -42.8,-279.11 l 255,-147.45 c 13,-129.15 51.1,-250.88 109.1,-360.37 L 14092,8000.92 c 54.8,-74.89 117.8,-143.41 187.7,-204.16 l 273.4,107.11 c 107.5,-69.97 229.5,-119.52 360.6,-143.06 l 128.9,-265.38 c 15.3,-0.57 30.7,-0.95 46.3,-0.95 77.1,0 152.7,7.17 226,20.74 l 87,281.07 c 126.5,42.55 241.6,110.2 339.2,196.99 l 287.5,-64.59 c 59,69.21 110.4,145 153.1,226.14 l -166.6,244.68 c 36.5,102.79 56.4,213.42 56.4,328.71" /></g><g
         transform="scale(1.76475)"
         id="g50"><path
           id="path52"
           style="fill:#b1d3ff;fill-opacity:1;fill-rule:nonzero;stroke:none"
           d="m 16098.4,8990.95 h -287.9 c -111.2,0 -201.6,90.43 -201.6,201.59 v 287.85 c 0,111.16 90.4,201.6 201.6,201.6 h 287.9 c 111.2,0 201.6,-90.44 201.6,-201.6 v -287.85 c 0,-111.16 -90.4,-201.59 -201.6,-201.59 m -287.9,611.71 c -67.4,0 -122.3,-54.85 -122.3,-122.27 v -287.85 c 0,-67.42 54.9,-122.26 122.3,-122.26 h 287.9 c 67.4,0 122.3,54.84 122.3,122.26 v 287.85 c 0,67.42 -54.9,122.27 -122.3,122.27 h -287.9" /></g><g
         transform="scale(1.6181)"
         id="g54"><path
           id="path56"
           style="fill:#b1d3ff;fill-opacity:1;fill-rule:nonzero;stroke:none"
           d="m 16080.2,9805.8 h -314 c -121.2,0 -219.9,98.63 -219.9,219.9 v 313.9 c 0,121.2 98.7,219.9 219.9,219.9 h 314 c 121.2,0 219.8,-98.7 219.8,-219.9 v -313.9 c 0,-121.27 -98.6,-219.9 -219.8,-219.9 m -314,667.2 c -73.5,0 -133.3,-59.9 -133.3,-133.4 v -313.9 c 0,-73.56 59.8,-133.37 133.3,-133.37 h 314 c 73.5,0 133.3,59.81 133.3,133.37 v 313.9 c 0,73.5 -59.8,133.4 -133.3,133.4 h -314" /></g><g
         transform="scale(1.64126)"
         id="g58"><path
           id="path60"
           style="fill:#f37168;fill-opacity:1;fill-rule:nonzero;stroke:none"
           d="m 15717.8,9847.63 c -0.6,0 -1.1,0.02 -1.7,0.04 -10.8,0.53 -20.8,5.75 -27.3,14.28 l -222.4,290.15 c -12.3,16.1 -9.3,39 6.7,51.3 16.1,12.3 39,9.2 51.3,-6.8 l 196.2,-255.89 512.2,548.79 c 13.8,14.8 36.9,15.5 51.7,1.8 14.7,-13.8 15.5,-36.9 1.7,-51.7 l -541.6,-580.35 c -7,-7.43 -16.7,-11.62 -26.8,-11.62" /></g><g
         transform="scale(1.94275)"
         id="g62"><path
           id="path64"
           style="fill:#cce2ff;fill-opacity:1;fill-rule:nonzero;stroke:none"
           d="m 15487.8,1414.18 c -1070.5,52.35 -4712.2,-36.34 -5819.74,-70.88 -1107.56,-34.59 -2393.16,45.61 -3060.98,163.48 -667.81,117.88 -4527.96,-10.03 -4352.79,-327.01 175.17,-316.972 1719.88,-141.76 3471.62,-269.152 1751.74,-127.397 5691.39,15.904 6580.09,0 888.7,-15.957 1703.5,31.811 2848.8,95.532 1145.2,63.68 953.6,377.71 333,408.03" /></g><path
         id="path66"
         style="fill:#99bbeb;fill-opacity:1;fill-rule:nonzero;stroke:none"
         d="m 4484.03,8498.3 h 4347.45 v 7125.73 H 4484.03 Z" /><path
         id="path68"
         style="fill:#ffffff;fill-opacity:1;fill-rule:nonzero;stroke:none"
         d="m 4711.71,8769.9 h 3976.85 v 6708.94 H 4711.71 Z" /><path
         id="path70"
         style="fill:#9bd6e8;fill-opacity:1;fill-rule:nonzero;stroke:none"
         d="m 5901.22,12788.5 c 149.68,322.1 403.01,425.2 819.02,425.2 495.34,0 752.54,-179.5 825.45,-440.7 -887.04,-12.2 -1644.47,15.5 -1644.47,15.5" /><path
         id="path72"
         style="fill:#3a384d;fill-opacity:1;fill-rule:nonzero;stroke:none"
         d="m 6547.26,14779.8 c -209.69,-58.8 -200.5,-176.7 -270.37,-286 -69.87,-109.4 -221.76,-182.3 -239.99,-255.2 -18.22,-72.9 46.78,-224.8 -30.37,-309.9 -77.15,-85 -103.29,-127.5 -72.91,-212.6 30.38,-85.1 97.21,-218.7 103.28,-236.9 6.08,-18.3 91.14,-145.9 194.43,-164.1 103.28,-18.2 297.7,-48.6 394.92,-91.1 97.2,-42.6 409.76,54.4 583.26,48.3 173.49,-6 291.63,121.8 279.47,206.9 -12.14,85 127.94,255.1 127.59,400.9 -0.37,156.6 -182.27,273.4 -230.87,376.7 -48.61,103.3 6.08,285.6 -176.19,393.5 -115.19,68.3 -194.43,62.2 -285.56,92.6 -91.13,30.4 -243.03,74.4 -376.69,36.9" /><path
         id="path74"
         style="fill:#f09959;fill-opacity:1;fill-rule:nonzero;stroke:none"
         d="m 6802.44,12956.6 c -47.43,-70 -82.2,-72.9 -133.67,0 -40.92,58 -121.51,189.7 -121.51,256.5 v 667 c 0,66.9 54.68,121.6 121.51,121.6 h 133.67 c 66.83,0 121.51,-54.7 121.51,-121.6 v -667 c 0,-66.8 -78.98,-193.7 -121.51,-256.5" /><path
         id="path76"
         style="fill:#e38540;fill-opacity:1;fill-rule:nonzero;stroke:none"
         d="m 6802.44,14001.7 h -133.67 c -66.83,0 -121.51,-54.7 -121.51,-121.6 V 13285 c 150.08,-47.7 287.06,47.2 376.69,154.2 v 440.9 c 0,66.9 -54.68,121.6 -121.51,121.6" /><path
         id="path78"
         style="fill:#f09959;fill-opacity:1;fill-rule:nonzero;stroke:none"
         d="m 7139.63,13994.9 c 0,-304 -180.88,-550.5 -404.02,-550.5 -223.14,0 -404.04,246.5 -404.04,550.5 0,304 180.9,550.5 404.04,550.5 223.14,0 404.02,-246.5 404.02,-550.5" /><path
         id="path80"
         style="fill:#3a384d;fill-opacity:1;fill-rule:nonzero;stroke:none"
         d="m 6923.95,14433 c -255.18,-431.3 -631.87,-388.8 -631.87,-388.8 0,0 9.12,571.1 308.34,601.5 299.23,30.3 475.42,-89.7 536.18,-287.9 60.75,-198.2 0,-328.8 0,-328.8 0,0 -97.22,75.9 -145.82,197.4 -48.6,121.6 -66.83,206.6 -66.83,206.6" /><path
         id="path82"
         style="fill:#f09959;fill-opacity:1;fill-rule:nonzero;stroke:none"
         d="m 6372.93,14003.4 c 37.79,-79.6 25.43,-164.5 -27.61,-189.7 -53.04,-25.2 -126.68,18.9 -164.47,98.5 -37.78,79.5 -25.42,164.4 27.62,189.6 53.04,25.2 126.68,-18.9 164.46,-98.4" /><path
         id="path84"
         style="fill:#f09959;fill-opacity:1;fill-rule:nonzero;stroke:none"
         d="m 7080.05,14003.4 c -37.79,-79.6 -25.43,-164.5 27.62,-189.7 53.04,-25.2 126.67,18.9 164.46,98.5 37.79,79.5 25.42,164.4 -27.62,189.6 -53.04,25.2 -126.67,-18.9 -164.46,-98.4" /><path
         id="path86"
         style="fill:#ffffff;fill-opacity:1;fill-rule:nonzero;stroke:none"
         d="m 6887.5,13696.3 c 0,0 -68.01,-88.1 -151.89,-88.1 -83.89,0 -151.89,88.1 -151.89,88.1 h 303.78" /><path
         id="path88"
         style="fill:#99bbeb;fill-opacity:1;fill-rule:nonzero;stroke:none"
         d="M 7216.56,11915.2 H 6196.24 c -65.25,0 -118.64,53.4 -118.64,118.7 0,65.2 53.39,118.6 118.64,118.6 h 1020.32 c 65.25,0 118.64,-53.4 118.64,-118.6 0,-65.3 -53.39,-118.7 -118.64,-118.7" /><path
         id="path90"
         style="fill:#99bbeb;fill-opacity:1;fill-rule:nonzero;stroke:none"
         d="M 7403.37,11550.7 H 6009.42 c -65.25,0 -118.63,53.4 -118.63,118.6 0,65.3 53.38,118.7 118.63,118.7 h 1393.95 c 65.25,0 118.64,-53.4 118.64,-118.7 0,-65.2 -53.39,-118.6 -118.64,-118.6" /><path
         id="path92"
         style="fill:#99bbeb;fill-opacity:1;fill-rule:nonzero;stroke:none"
         d="M 8401.78,10239.7 H 5011.02 c -37.86,0 -68.84,31 -68.84,68.9 0,37.8 30.98,68.8 68.84,68.8 h 3390.76 c 37.87,0 68.84,-31 68.84,-68.8 0,-37.9 -30.97,-68.9 -68.84,-68.9" /><path
         id="path94"
         style="fill:#99bbeb;fill-opacity:1;fill-rule:nonzero;stroke:none"
         d="M 8401.78,9919.8 H 5011.02 c -37.86,0 -68.84,31 -68.84,68.8 0,37.9 30.98,68.9 68.84,68.9 h 3390.76 c 37.87,0 68.84,-31 68.84,-68.9 0,-37.8 -30.97,-68.8 -68.84,-68.8" /><path
         id="path96"
         style="fill:#99bbeb;fill-opacity:1;fill-rule:nonzero;stroke:none"
         d="M 8401.78,9599.8 H 5011.02 c -37.86,0 -68.84,31 -68.84,68.9 0,37.8 30.98,68.8 68.84,68.8 h 3390.76 c 37.87,0 68.84,-31 68.84,-68.8 0,-37.9 -30.97,-68.9 -68.84,-68.9" /><path
         id="path98"
         style="fill:#99bbeb;fill-opacity:1;fill-rule:nonzero;stroke:none"
         d="m 5485.26,15106.1 c -12.42,0 -22.91,-10.5 -22.91,-22.9 v -2250.9 c 0,-12.4 10.49,-22.9 22.91,-22.9 h 2442.28 c 12.42,0 22.91,10.5 22.91,22.9 v 2250.9 c 0,12.4 -10.49,22.9 -22.91,22.9 z M 7927.54,12709.4 H 5485.26 c -67.77,0 -122.91,55.1 -122.91,122.9 v 2250.9 c 0,67.8 55.14,122.9 122.91,122.9 h 2442.28 c 67.77,0 122.91,-55.1 122.91,-122.9 v -2250.9 c 0,-67.8 -55.14,-122.9 -122.91,-122.9" /><path
         id="path100"
         style="fill:#99bbeb;fill-opacity:1;fill-rule:nonzero;stroke:none"
         d="m 5837.69,11241.2 70.7,-143.3 158.11,-23 -114.41,-111.5 27.01,-157.5 -141.41,74.4 -141.42,-74.4 27.01,157.5 -114.41,111.5 158.11,23 70.71,143.3" /><path
         id="path102"
         style="fill:#99bbeb;fill-opacity:1;fill-rule:nonzero;stroke:none"
         d="m 6416.83,11241.2 70.7,-143.3 158.11,-23 -114.4,-111.5 27,-157.5 -141.41,74.4 -141.42,-74.4 27.01,157.5 -114.41,111.5 158.11,23 70.71,143.3" /><path
         id="path104"
         style="fill:#99bbeb;fill-opacity:1;fill-rule:nonzero;stroke:none"
         d="m 6995.97,11241.2 70.71,-143.3 158.11,-23 -114.41,-111.5 27.01,-157.5 -141.42,74.4 -141.41,-74.4 27,157.5 -114.4,111.5 158.1,23 70.71,143.3" /><path
         id="path106"
         style="fill:#99bbeb;fill-opacity:1;fill-rule:nonzero;stroke:none"
         d="m 7575.11,11241.2 70.71,-143.3 158.11,-23 -114.41,-111.5 27.01,-157.5 -141.42,74.4 -141.41,-74.4 27,157.5 -114.4,111.5 158.1,23 70.71,143.3" /><g
         transform="scale(1.13642)"
         id="g108"><path
           id="path110"
           style="fill:#99bbeb;fill-opacity:1;fill-rule:nonzero;stroke:none"
           d="M 16300,7478.15 H 12474.5 V 13748.5 H 16300 V 7478.15" /></g><g
         transform="scale(1.12765)"
         id="g112"><path
           id="path114"
           style="fill:#ffffff;fill-opacity:1;fill-rule:nonzero;stroke:none"
           d="M 16300,7777.15 H 12773.3 V 13726.6 H 16300 V 7777.15" /></g><g
         transform="scale(1.04395)"
         id="g116"><path
           id="path118"
           style="fill:#7a4e34;fill-opacity:1;fill-rule:nonzero;stroke:none"
           d="m 15117.9,13440.5 c 0,-305.7 184,-799 618.2,-783.2 434.3,15.8 530.3,486.1 547.1,618.8 16.8,132.7 -1165.3,164.4 -1165.3,164.4" /></g><g
         transform="scale(1.05753)"
         id="g120"><path
           id="path122"
           style="fill:#d54a41;fill-opacity:1;fill-rule:nonzero;stroke:none"
           d="m 14745.1,12092.8 c 141.4,304.5 381,402 774.4,402 468.4,0 711.6,-169.7 780.5,-416.7 -838.7,-11.5 -1554.9,14.7 -1554.9,14.7" /></g><g
         transform="scale(1.01939)"
         id="g124"><path
           id="path126"
           style="fill:#f09959;fill-opacity:1;fill-rule:nonzero;stroke:none"
           d="m 16180.8,12710.2 c -46.6,-68.7 -80.6,-71.6 -131.1,0 -40.2,56.8 -119.2,186 -119.2,251.6 v 654.3 c 0,65.5 53.6,119.2 119.2,119.2 h 131.1 c 65.5,0 119.2,-53.7 119.2,-119.2 v -654.3 c 0,-65.6 -77.5,-190.1 -119.2,-251.6" /></g><g
         transform="scale(1.01939)"
         id="g128"><path
           id="path130"
           style="fill:#e38540;fill-opacity:1;fill-rule:nonzero;stroke:none"
           d="m 16180.8,13735.3 h -131.1 c -65.6,0 -119.2,-53.7 -119.2,-119.2 v -583.8 c 147.2,-46.9 281.6,46.3 369.5,151.3 v 432.5 c 0,65.5 -53.7,119.2 -119.2,119.2" /></g><g
         transform="scale(1.03263)"
         id="g132"><path
           id="path134"
           style="fill:#f09959;fill-opacity:1;fill-rule:nonzero;stroke:none"
           d="m 16300,13552.7 c 0,-294.4 -175.2,-533.1 -391.3,-533.1 -216.1,0 -391.3,238.7 -391.3,533.1 0,294.5 175.2,533.2 391.3,533.2 216.1,0 391.3,-238.7 391.3,-533.2" /></g><g
         transform="scale(1.04774)"
         id="g136"><path
           id="path138"
           style="fill:#7a4e34;fill-opacity:1;fill-rule:nonzero;stroke:none"
           d="m 15891.1,13756.6 c -45.8,-161.6 -146.2,-159.7 -286.2,-212.8 -140,-53.1 -206.9,-106.5 -252.7,-209.8 -58.6,-131.8 26.5,-516.2 26.5,-516.2 0,0 -354.6,265.3 -313.6,682.6 41,417.2 287.1,578.8 518.5,578.8 231.5,0 319.6,-141.1 319.6,-141.1 0,0 123.4,-0.5 240,-138.6 156.8,-185.8 108.5,-636.8 0,-798.4 -108.5,-161.6 -180.9,-212.2 -178.5,-205 2.4,7.2 101.3,378.3 48.3,607.8 -53.1,229.5 -121.9,352.7 -121.9,352.7" /></g><g
         transform="scale(1.01715)"
         id="g140"><path
           id="path142"
           style="fill:#ffffff;fill-opacity:1;fill-rule:nonzero;stroke:none"
           d="m 16300,13465.3 c 0,0 -66.9,-86.6 -149.3,-86.6 -82.4,0 -149.4,86.6 -149.4,86.6 h 298.7" /></g><g
         transform="scale(1.04462)"
         id="g144"><path
           id="path146"
           style="fill:#99bbeb;fill-opacity:1;fill-rule:nonzero;stroke:none"
           d="m 16186.5,11406.3 h -976.8 c -62.5,0 -113.6,51.1 -113.6,113.5 0,62.5 51.1,113.6 113.6,113.6 h 976.8 c 62.4,0 113.5,-51.1 113.5,-113.6 0,-62.4 -51.1,-113.5 -113.5,-113.5" /></g><g
         transform="scale(1.05609)"
         id="g148"><path
           id="path150"
           style="fill:#99bbeb;fill-opacity:1;fill-rule:nonzero;stroke:none"
           d="m 16187.6,10937.3 h -1319.9 c -61.8,0 -112.4,50.5 -112.4,112.3 0,61.8 50.6,112.4 112.4,112.4 h 1319.9 c 61.8,0 112.4,-50.6 112.4,-112.4 0,-61.8 -50.6,-112.3 -112.4,-112.3" /></g><g
         transform="scale(1.11428)"
         id="g152"><path
           id="path154"
           style="fill:#99bbeb;fill-opacity:1;fill-rule:nonzero;stroke:none"
           d="m 16238.2,9189.54 h -3043 c -34,0 -61.8,27.8 -61.8,61.79 0,33.97 27.8,61.78 61.8,61.78 h 3043 c 34,0 61.8,-27.81 61.8,-61.78 0,-33.99 -27.8,-61.79 -61.8,-61.79" /></g><g
         transform="scale(1.11428)"
         id="g156"><path
           id="path158"
           style="fill:#99bbeb;fill-opacity:1;fill-rule:nonzero;stroke:none"
           d="m 16238.2,8902.41 h -3043 c -34,0 -61.8,27.82 -61.8,61.75 0,34.01 27.8,61.8 61.8,61.8 h 3043 c 34,0 61.8,-27.79 61.8,-61.8 0,-33.93 -27.8,-61.75 -61.8,-61.75" /></g><g
         transform="scale(1.11428)"
         id="g160"><path
           id="path162"
           style="fill:#99bbeb;fill-opacity:1;fill-rule:nonzero;stroke:none"
           d="m 16238.2,8615.23 h -3043 c -34,0 -61.8,27.82 -61.8,61.83 0,33.93 27.8,61.75 61.8,61.75 h 3043 c 34,0 61.8,-27.82 61.8,-61.75 0,-34.01 -27.8,-61.83 -61.8,-61.83" /></g><g
         transform="scale(1.0885)"
         id="g164"><path
           id="path166"
           style="fill:#99bbeb;fill-opacity:1;fill-rule:nonzero;stroke:none"
           d="m 13943.4,13877.9 c -11.4,0 -21.1,-9.7 -21.1,-21.1 V 11789 c 0,-11.4 9.7,-21.1 21.1,-21.1 h 2243.7 c 11.4,0 21,9.7 21,21.1 v 2067.8 c 0,11.4 -9.6,21.1 -21,21.1 z M 16187.1,11676 h -2243.7 c -62.3,0 -112.9,50.7 -112.9,113 v 2067.8 c 0,62.3 50.6,113 112.9,113 h 2243.7 c 62.3,0 112.9,-50.7 112.9,-113 V 11789 c 0,-62.3 -50.6,-113 -112.9,-113" /></g><path
         id="path168"
         style="fill:#99bbeb;fill-opacity:1;fill-rule:nonzero;stroke:none"
         d="m 15529.8,11241.2 70.7,-143.3 158.1,-23 -114.4,-111.5 27,-157.5 -141.4,74.4 -141.4,-74.4 27,157.5 -114.4,111.5 158.1,23 70.7,143.3" /><g
         transform="scale(1.00232)"
         id="g170"><path
           id="path172"
           style="fill:#99bbeb;fill-opacity:1;fill-rule:nonzero;stroke:none"
           d="m 16071.7,11215.2 70.6,-143 157.7,-22.9 -114.1,-111.2 26.9,-157.2 -141.1,74.2 -141.1,-74.2 27,157.2 -114.1,111.2 157.7,22.9 70.5,143" /></g><g
         transform="scale(1.03785)"
         id="g174"><path
           id="path176"
           style="fill:#99bbeb;fill-opacity:1;fill-rule:nonzero;stroke:none"
           d="m 16079.5,10831.3 68.2,-138.1 152.3,-22.1 -110.2,-107.5 26,-151.7 -136.3,71.6 -136.2,-71.6 26,151.7 -110.2,107.5 152.3,22.1 68.1,138.1" /></g><g
         transform="scale(1.07338)"
         id="g178"><path
           id="path180"
           style="fill:#99bbeb;fill-opacity:1;fill-rule:nonzero;stroke:none"
           d="m 16086.8,10472.7 65.9,-133.5 147.3,-21.4 -106.6,-103.9 25.2,-146.7 -131.8,69.3 -131.8,-69.3 25.2,146.7 -106.6,103.9 147.3,21.4 65.9,133.5" /></g><path
         id="path182"
         style="fill:#d7e8fa;fill-opacity:1;fill-rule:nonzero;stroke:none"
         d="M 14176.2,8569.6 H 8831.48 v 7028 h 5278.22 c -4.1,-68 -6.3,-136.4 -6.3,-205.4 0,-68.3 2.3,-136.1 6.2,-203.4 l 66.6,-21.6 V 8569.6" /><path
         id="path184"
         style="fill:#9dc5fb;fill-opacity:1;fill-rule:nonzero;stroke:none"
         d="m 14176.2,15167.2 -66.6,21.6 c -3.9,67.3 -6.2,135.1 -6.2,203.4 0,69 2.2,137.4 6.3,205.4 h 66.5 v -430.4" /><path
         id="path186"
         style="fill:#99bbeb;fill-opacity:1;fill-rule:nonzero;stroke:none"
         d="M 8831.48,8569.6 H 7803.93 l 13.83,200.3 h 870.8 v 6708.9 h -407.51 l 8.2,118.8 h 542.23 v -7028" /><path
         id="path188"
         style="fill:#ebf1fb;fill-opacity:1;fill-rule:nonzero;stroke:none"
         d="m 8688.56,8769.9 h -870.8 l 57.31,829.9 h 526.71 c 37.87,0 68.84,31 68.84,68.9 0,37.8 -30.97,68.8 -68.84,68.8 h -517.2 l 12.59,182.3 h 504.61 c 37.87,0 68.84,31 68.84,68.8 0,37.9 -30.97,68.9 -68.84,68.9 h -495.11 l 12.59,182.2 h 482.52 c 37.87,0 68.84,31 68.84,68.9 0,37.8 -30.97,68.8 -68.84,68.8 h -473.01 l 352.28,5101.4 h 407.51 V 8769.9" /><path
         id="path190"
         style="fill:#99bbeb;fill-opacity:1;fill-rule:nonzero;stroke:none"
         d="m 8401.78,10239.7 h -482.52 l 9.51,137.7 h 473.01 c 37.87,0 68.84,-31 68.84,-68.8 0,-37.9 -30.97,-68.9 -68.84,-68.9" /><path
         id="path192"
         style="fill:#99bbeb;fill-opacity:1;fill-rule:nonzero;stroke:none"
         d="m 8401.78,9919.8 h -504.61 l 9.5,137.7 h 495.11 c 37.87,0 68.84,-31 68.84,-68.9 0,-37.8 -30.97,-68.8 -68.84,-68.8" /><path
         id="path194"
         style="fill:#99bbeb;fill-opacity:1;fill-rule:nonzero;stroke:none"
         d="m 8401.78,9599.8 h -526.71 l 9.51,137.7 h 517.2 c 37.87,0 68.84,-31 68.84,-68.8 0,-37.9 -30.97,-68.9 -68.84,-68.9" /><path
         id="path196"
         style="fill:#99bbeb;fill-opacity:1;fill-rule:nonzero;stroke:none"
         d="m 14664.9,8569.6 h -488.7 v 7028 h 736.1 l -4.2,-118.8 h -504.3 V 8769.9 h 268.1 l -7,-200.3" /><path
         id="path198"
         style="fill:#ebf1fb;fill-opacity:1;fill-rule:nonzero;stroke:none"
         d="m 14671.9,8769.9 h -268.1 v 6708.9 h 504.3 l -179.6,-5101.4 h -25.3 c -37.9,0 -68.9,-31 -68.9,-68.8 0,-37.9 31,-68.9 68.9,-68.9 h 20.5 l -6.5,-182.2 h -14 c -37.9,0 -68.9,-31 -68.9,-68.9 0,-37.8 31,-68.8 68.9,-68.8 h 9.2 l -6.4,-182.3 h -2.8 c -37.9,0 -68.9,-31 -68.9,-68.8 0,-37.2 29.9,-67.8 66.8,-68.8 l -29.2,-830" /><path
         id="path200"
         style="fill:#99bbeb;fill-opacity:1;fill-rule:nonzero;stroke:none"
         d="m 14723.7,10239.7 h -20.5 c -37.9,0 -68.9,31 -68.9,68.9 0,37.8 31,68.8 68.9,68.8 h 25.3 l -4.8,-137.7" /><path
         id="path202"
         style="fill:#99bbeb;fill-opacity:1;fill-rule:nonzero;stroke:none"
         d="m 14712.4,9919.8 h -9.2 c -37.9,0 -68.9,31 -68.9,68.8 0,37.9 31,68.9 68.9,68.9 h 14 l -4.8,-137.7" /><path
         id="path204"
         style="fill:#99bbeb;fill-opacity:1;fill-rule:nonzero;stroke:none"
         d="m 14701.1,9599.9 c -36.9,1 -66.8,31.6 -66.8,68.8 0,37.8 31,68.8 68.9,68.8 h 2.8 l -4.9,-137.6" /><g
         transform="scale(1.0385)"
         id="g206"><path
           id="path208"
           style="fill:#99bbeb;fill-opacity:1;fill-rule:nonzero;stroke:none"
           d="M 13926.5,6928.19 H 8208.61 V 16300 H 13926.5 V 6928.19" /></g><g
         transform="scale(1.02633)"
         id="g210"><path
           id="path212"
           style="fill:#ffffff;fill-opacity:1;fill-rule:nonzero;stroke:none"
           d="M 13901.3,7371.7 H 8608.92 V 16300 H 13901.3 V 7371.7" /></g><path
         id="path214"
         style="fill:#2e2d3d;fill-opacity:1;fill-rule:nonzero;stroke:none"
         d="m 11045.3,14804.5 c -3.8,11.3 -98.9,557.2 -110.3,769.4 -11.3,212.3 341.2,242.6 341.2,242.6 0,0 288,155.4 496.5,75.8 208.5,-79.6 350.4,-213.5 445.1,-380.3 94.8,-166.8 -83.3,-686.5 -83.3,-686.5 l -1089.2,-21" /><path
         id="path216"
         style="fill:#d5e1e8;fill-opacity:1;fill-rule:nonzero;stroke:none"
         d="m 10391.7,13050.7 c -1.3,9 24.4,223.8 25.3,232.5 48,452.3 605.6,579.6 1161.9,579.6 653.7,0 1097.2,-119.7 1168,-589.7 2.1,-13.8 39.8,-229.1 37.9,-243.6 -1211.6,-16.6 -2393.1,21.2 -2393.1,21.2" /><path
         id="path218"
         style="fill:#f09959;fill-opacity:1;fill-rule:nonzero;stroke:none"
         d="m 11691.2,13511.7 c -64.8,-95.6 -112.3,-99.6 -182.6,0 -55.9,79.1 -242.5,259.8 -242.5,351.1 l 76.6,910.2 c 0,91.3 74.7,166 165.9,166 h 182.6 c 91.3,0 166,-74.7 166,-166 l 35.6,-910.2 c 0,-91.3 -143.5,-265.4 -201.6,-351.1" /><path
         id="path220"
         style="fill:#e38540;fill-opacity:1;fill-rule:nonzero;stroke:none"
         d="m 11691.2,14939 h -182.6 c -91.2,0 -165.9,-74.7 -165.9,-166 l -66.5,-807.5 c 205,-65.3 481.8,67.4 604.2,213.5 l -23.2,594 c 0,91.3 -74.7,166 -166,166" /><path
         id="path222"
         style="fill:#bdccd4;fill-opacity:1;fill-rule:nonzero;stroke:none"
         d="m 10973.4,13796.4 292.7,-541 c 0,0 156.6,128.9 171.8,103.6 15.2,-25.2 -27.8,-344.1 -27.8,-344.1 0,0 348.7,-4.8 363.9,10.4 15.2,15.1 -70.8,346.4 -35.4,346.4 35.4,0 141.8,-96.1 141.8,-96.1 l 326.8,520.8 -71.8,17.5 -535.5,-288.1 -572.6,281.8 -53.9,-11.2" /><path
         id="path224"
         style="fill:#d54a41;fill-opacity:1;fill-rule:nonzero;stroke:none"
         d="m 11308.1,13547.1 217.4,-145.8 -67.4,-387.1 293.1,16.3 -73.2,352.1 180.2,164.5 -84.7,79.8 h -380.8 l -84.6,-79.8" /><path
         id="path226"
         style="fill:#d5e1e8;fill-opacity:1;fill-rule:nonzero;stroke:none"
         d="m 11281.2,14061.5 -268.8,-255.8 c 0,0 273.9,-487.1 289,-487.1 15.2,0 232.5,268.6 232.5,268.6 l 139.1,2.4 219.8,-230.6 255.3,451.8 -260.4,276 c 0,0 -222.4,-429.6 -262.8,-439.7 -40.4,-10.1 -40.7,-15.2 -73.4,10.1 -32.7,25.3 -270.3,404.3 -270.3,404.3" /><path
         id="path228"
         style="fill:#f09959;fill-opacity:1;fill-rule:nonzero;stroke:none"
         d="m 12151.8,14929.8 c 0,-415.3 -247.1,-752 -551.9,-752 -304.8,0 -551.8,336.7 -551.8,752 0,415.3 247,751.9 551.8,751.9 304.8,0 551.9,-336.6 551.9,-751.9" /><path
         id="path230"
         style="fill:#f09959;fill-opacity:1;fill-rule:nonzero;stroke:none"
         d="m 11104.6,14941.4 c 51.6,-108.7 34.7,-224.7 -37.8,-259.1 -72.4,-34.4 -173,25.8 -224.6,134.5 -51.6,108.6 -34.7,224.6 37.7,259 72.5,34.4 173.1,-25.8 224.7,-134.4" /><path
         id="path232"
         style="fill:#f09959;fill-opacity:1;fill-rule:nonzero;stroke:none"
         d="m 12070.4,14941.4 c -51.6,-108.7 -34.7,-224.7 37.7,-259.1 72.4,-34.4 173,25.8 224.6,134.5 51.6,108.6 34.8,224.6 -37.7,259 -72.4,34.4 -173,-25.8 -224.6,-134.4" /><path
         id="path234"
         style="fill:#ffffff;fill-opacity:1;fill-rule:nonzero;stroke:none"
         d="m 11844.7,14621.3 c 0,0 -109.6,-177.6 -244.8,-177.6 -135.2,0 -244.8,177.6 -244.8,177.6 h 489.6" /><path
         id="path236"
         style="fill:#2e2d3d;fill-opacity:1;fill-rule:nonzero;stroke:none"
         d="m 11276.2,15441.3 c 227.4,159.2 329.7,132.6 500.3,-128.9 170.6,-261.5 375.3,-266.2 375.3,-266.2 l 26.5,271.2 c 0,0 -254.1,491.5 -595.2,427.1 -341,-64.4 -535,-371.5 -535,-371.5 0,0 -16.6,-575.4 31,-595.1 47.6,-19.6 53,185.8 87.1,227.5 34.2,41.7 -34.1,238.8 11.4,329.7 45.5,91 98.6,106.2 98.6,106.2" /><path
         id="path238"
         style="fill:#2e2d3d;fill-opacity:1;fill-rule:nonzero;stroke:none"
         d="m 12007.7,15145.6 c 79.4,-86.9 49.3,-432.1 91,-428.3 41.7,3.8 56.9,329.8 45.5,363.9 -11.4,34.1 -136.5,64.4 -136.5,64.4" /><path
         id="path240"
         style="fill:#99bbeb;fill-opacity:1;fill-rule:nonzero;stroke:none"
         d="m 12827.4,11861.8 h -2534.8 c -89.1,0 -162,72.9 -162,162.1 0,89.1 72.9,162 162,162 h 2534.8 c 89.2,0 162.1,-72.9 162.1,-162 0,-89.2 -72.9,-162.1 -162.1,-162.1" /><path
         id="path242"
         style="fill:#99bbeb;fill-opacity:1;fill-rule:nonzero;stroke:none"
         d="m 12512,11363.9 h -1903.9 c -89.2,0 -162.1,73 -162.1,162.1 0,89.1 72.9,162 162.1,162 H 12512 c 89.1,0 162,-72.9 162,-162 0,-89.1 -72.9,-162.1 -162,-162.1" /><path
         id="path244"
         style="fill:#99bbeb;fill-opacity:1;fill-rule:nonzero;stroke:none"
         d="M 13875.7,9573.4 H 9244.39 c -51.71,0 -94.02,42.3 -94.02,94 0,51.7 42.31,94 94.02,94 h 4631.31 c 51.7,0 94,-42.3 94,-94 0,-51.7 -42.3,-94 -94,-94" /><path
         id="path246"
         style="fill:#99bbeb;fill-opacity:1;fill-rule:nonzero;stroke:none"
         d="M 13875.7,9136.4 H 9244.39 c -51.71,0 -94.02,42.3 -94.02,94 0,51.7 42.31,94 94.02,94 h 4631.31 c 51.7,0 94,-42.3 94,-94 0,-51.7 -42.3,-94 -94,-94" /><path
         id="path248"
         style="fill:#99bbeb;fill-opacity:1;fill-rule:nonzero;stroke:none"
         d="M 13875.7,8699.3 H 9244.39 c -51.71,0 -94.02,42.4 -94.02,94.1 0,51.7 42.31,94 94.02,94 h 4631.31 c 51.7,0 94,-42.3 94,-94 0,-51.7 -42.3,-94.1 -94,-94.1" /><g
         transform="scale(1.00236)"
         id="g250"><path
           id="path252"
           style="fill:#99bbeb;fill-opacity:1;fill-rule:nonzero;stroke:none"
           d="m 9868.89,16200.2 c -27.28,0 -49.47,-22.2 -49.47,-49.4 v -3067.2 c 0,-27.3 22.19,-49.5 49.47,-49.5 h 3327.91 c 27.3,0 49.5,22.2 49.5,49.5 v 3067.2 c 0,27.2 -22.2,49.4 -49.5,49.4 z M 13196.8,12934.4 H 9868.89 c -82.29,0 -149.23,66.9 -149.23,149.2 v 3067.2 c 0,82.3 66.94,149.2 149.23,149.2 h 3327.91 c 82.3,0 149.3,-66.9 149.3,-149.2 v -3067.2 c 0,-82.3 -67,-149.2 -149.3,-149.2" /></g><path
         id="path254"
         style="fill:#99bbeb;fill-opacity:1;fill-rule:nonzero;stroke:none"
         d="m 9971.7,10941.2 96.6,-195.7 215.9,-31.4 -156.2,-152.3 36.9,-215.1 -193.2,101.6 -193.15,-101.6 36.89,215.1 -156.26,152.3 215.95,31.4 96.57,195.7" /><path
         id="path256"
         style="fill:#99bbeb;fill-opacity:1;fill-rule:nonzero;stroke:none"
         d="m 10762.7,10941.2 96.6,-195.7 216,-31.4 -156.3,-152.3 36.9,-215.1 -193.2,101.6 -193.1,-101.6 36.9,215.1 -156.3,152.3 216,31.4 96.5,195.7" /><path
         id="path258"
         style="fill:#99bbeb;fill-opacity:1;fill-rule:nonzero;stroke:none"
         d="m 11553.7,10941.2 96.6,-195.7 216,-31.4 -156.3,-152.3 36.9,-215.1 -193.2,101.6 -193.1,-101.6 36.9,215.1 -156.3,152.3 216,31.4 96.5,195.7" /><path
         id="path260"
         style="fill:#99bbeb;fill-opacity:1;fill-rule:nonzero;stroke:none"
         d="m 12344.8,10941.2 96.5,-195.7 216,-31.4 -156.3,-152.3 36.9,-215.1 -193.1,101.6 -193.2,-101.6 36.9,215.1 -156.3,152.3 216,31.4 96.6,195.7" /><path
         id="path262"
         style="fill:#99bbeb;fill-opacity:1;fill-rule:nonzero;stroke:none"
         d="m 13148.4,10941.2 96.5,-195.7 216,-31.4 -156.3,-152.3 36.9,-215.1 -193.1,101.6 -193.2,-101.6 36.9,215.1 -156.3,152.3 216,31.4 96.6,195.7" /><g
         transform="scale(1.47742)"
         id="g264"><path
           id="path266"
           style="fill:#2e5b9a;fill-opacity:1;fill-rule:nonzero;stroke:none"
           d="m 16243.9,5081.62 h -5157.4 c -31,0 -56.1,25.11 -56.1,56.11 v 84.13 c 0,31 25.1,56.11 56.1,56.11 h 5157.4 c 31,0 56.1,-25.11 56.1,-56.11 v -84.13 c 0,-31 -25.1,-56.11 -56.1,-56.11" /></g><g
         transform="scale(1.59904)"
         id="g268"><path
           id="path270"
           style="fill:#f09959;fill-opacity:1;fill-rule:nonzero;stroke:none"
           d="m 16235.5,7308.11 c 64.5,-227.63 -93.2,-462.19 -266.9,-511.47 -173.7,-49.28 -297.7,105.4 -362.2,333.02 -64.6,227.63 23.9,452.1 197.6,501.37 173.7,49.28 366.9,-95.3 431.5,-322.92" /></g><g
         transform="scale(1.56738)"
         id="g272"><path
           id="path274"
           style="fill:#f09959;fill-opacity:1;fill-rule:nonzero;stroke:none"
           d="m 15569.7,2955.83 c 0,0 454.2,-705.45 515.6,-736.07 61.3,-30.69 214.7,-38.35 157.2,-153.38 -57.5,-115.03 -80.6,-567.45 -134.2,-590.41 -53.7,-23.04 -513.7,-76.69 -444.8,0 69.1,76.69 111.5,38.34 146.3,176.34 34.9,138 83.8,398.69 18.6,452.41 -65.2,53.66 -463.9,536.76 -463.9,536.76 l 205.2,314.35" /></g><g
         transform="scale(1.31354)"
         id="g276"><path
           id="path278"
           style="fill:#f09959;fill-opacity:1;fill-rule:nonzero;stroke:none"
           d="m 15850.8,3165.57 c 0,0 -658.7,-1085.85 -780.8,-1183.44 -121.9,-97.6 -524.6,-244 -195.2,-268.36 329.5,-24.44 488,109.78 695.4,170.76 207.5,60.98 463.6,97.6 366,256.25 -97.6,158.58 -57,504.82 153.4,724.38 210.4,219.63 -238.8,300.41 -238.8,300.41" /></g><g
         transform="scale(1.56891)"
         id="g280"><path
           id="path282"
           style="fill:#6791c9;fill-opacity:1;fill-rule:nonzero;stroke:none"
           d="m 16085.5,4758.32 c 0,0 -1365.4,35.7 -1906.7,-408.56 -316.7,-480.08 -1082.7,-1896.53 -1142.3,-2052.63 40.9,-40.85 270.7,-114.6 372.9,-104.4 301.3,359.29 699.6,669.89 858,951.74 195.2,347.24 255.3,520.93 572,551.53 316.6,30.65 1031.6,132.83 1246.1,132.83 214.5,0 0,929.49 0,929.49" /></g><g
         transform="scale(1.66288)"
         id="g284"><path
           id="path286"
           style="fill:#2e5b9a;fill-opacity:1;fill-rule:nonzero;stroke:none"
           d="m 16300,1351.39 h -67.5 l -484.3,2020.36 h 148.6 L 16300,1351.39" /></g><g
         transform="scale(1.52009)"
         id="g288"><path
           id="path290"
           style="fill:#2e5b9a;fill-opacity:1;fill-rule:nonzero;stroke:none"
           d="m 15618.3,1478.34 h 73.8 l 607.9,2288.22 h -162.5 l -519.2,-2288.22" /></g><g
         transform="scale(1.65486)"
         id="g292"><path
           id="path294"
           style="fill:#75a1de;fill-opacity:1;fill-rule:nonzero;stroke:none"
           d="M 15987.6,4599.85 15235,4469.93 c 0,0 -1000.1,-9.19 -1457.3,-94.33 -415.9,-77.47 -477.2,-550.02 0,-1200.77 271.1,-369.7 500.3,-664.53 969,-997 119.2,87.5 164.8,120.61 197.8,331.27 -33.9,46.53 -121.7,337.61 -149,394.59 -259.3,541.92 -605.3,738.98 -610.1,792.34 58.1,94.38 1539,-492.13 1833.4,-147.15 281.2,329.46 -31.2,1050.97 -31.2,1050.97" /></g><g
         transform="scale(1.66987)"
         id="g296"><path
           id="path298"
           style="fill:#f37168;fill-opacity:1;fill-rule:nonzero;stroke:none"
           d="m 15874.9,6247.04 c -196.4,27.58 -396.5,-9.76 -583.6,-145.22 -163.5,-166.67 -348.5,-441.48 -337.2,-894.87 14.4,-575.8 -89.1,-612.75 18.9,-771.08 450.3,-185.95 1220.3,-984.81 1039,-128.39 -131.3,620.16 288,1082.42 -50.2,1770.33 -27.6,55.99 -62,110.29 -86.9,169.23" /></g><g
         transform="scale(1.63642)"
         id="g300"><path
           id="path302"
           style="fill:#d54a41;fill-opacity:1;fill-rule:nonzero;stroke:none"
           d="m 15259.6,5092.26 c -8.9,-306.33 -52.2,-396.53 -19.1,-492.59 187.3,-19.13 529.9,-94.05 615.5,-213.95 98,-137.06 196,-156.68 150.2,-55.48 -45.7,101.19 -166.5,244.8 19.6,737.7 186.1,492.97 274.2,825.89 91.4,1168.65 l -857.6,-1144.33" /></g><g
         transform="scale(1.62631)"
         id="g304"><path
           id="path306"
           style="fill:#f09959;fill-opacity:1;fill-rule:nonzero;stroke:none"
           d="m 16300,6414.34 c -124.1,294.01 -154.6,624.35 -154.6,624.35 l -325.3,-96.07 c 0,0 184.8,-413.83 7.5,-561.63 -37.8,-31.42 -81.5,-69.56 -126.8,-115.76 192.1,139.08 397.5,177.42 599.2,149.11" /></g><g
         transform="scale(1.61315)"
         id="g308"><path
           id="path310"
           style="fill:#e38540;fill-opacity:1;fill-rule:nonzero;stroke:none"
           d="m 16287,7017.2 c -19.4,17.28 -43.7,38.85 -69.3,61.4 l -267.3,-79 -0.6,-1.45 c 6.5,-14.78 74.5,-173.69 83.5,-326.56 79.7,48.34 167,127.16 266.7,264.85 -5.4,30.55 -9.7,57.79 -13,80.76" /></g><g
         transform="scale(1.63036)"
         id="g312"><path
           id="path314"
           style="fill:#f09959;fill-opacity:1;fill-rule:nonzero;stroke:none"
           d="m 16031.5,6306.16 c -334.1,-116.83 -297,-468.74 -604.4,-987.77 -159.2,-268.65 -307,-264.6 -307,-264.6 0,0 -373.1,-3.01 -824.4,52.19 -282.7,34.53 -300.6,-49.62 -104.1,-119.85 396.4,-141.75 807.9,-294.35 1139.6,-257.49 331.8,36.87 899.1,883.24 928.3,1103.56 40.5,304.71 -59.7,532.8 -228,473.96" /></g><g
         transform="scale(1.67448)"
         id="g316"><path
           id="path318"
           style="fill:#2e5b9a;fill-opacity:1;fill-rule:nonzero;stroke:none"
           d="m 15441.6,3264.78 c -20.2,0 -40.9,0.24 -62.1,0.77 -265.1,6.51 -445.6,43.18 -590.5,72.68 -169.3,34.4 -262.6,53.33 -371.1,1.5 -41.7,-19.89 -91.6,-2.27 -111.5,39.41 -19.9,41.63 -2.3,91.55 39.4,111.44 159,76.02 292.2,48.97 476.4,11.52 138.6,-28.18 311,-63.24 561.4,-69.39 280.2,-6.99 451,34.58 537.6,130.61 77.2,85.58 99.7,229.32 71.1,452.38 -9.8,76.38 -19.7,139.86 -28.3,195.88 -24.5,158.08 -40.7,262.53 -20.6,423.95 18.5,149.9 68.2,349.55 183.2,736.77 13.1,44.25 59.6,69.45 103.9,56.32 44.2,-13.14 69.5,-59.67 56.4,-103.92 -214.3,-721.53 -203.4,-791.77 -157.7,-1087.56 8.8,-57.03 18.8,-121.65 28.9,-200.12 35.4,-275.07 -0.4,-461.22 -112.7,-585.68 -115.6,-128.22 -303.2,-186.56 -603.8,-186.56" /></g><g
         transform="scale(1.29209)"
         id="g320"><path
           id="path322"
           style="fill:#d54a41;fill-opacity:1;fill-rule:nonzero;stroke:none"
           d="m 16159.5,2287.76 c -444.4,-217.32 -683.6,-341.92 -826.1,-330 -33.6,2.78 -61.4,6.19 -84.8,9.9 -158.5,-93.72 -411.5,-204.39 -126.8,-225.45 334.8,-24.84 496,111.61 706.9,173.6 210.9,61.99 471.3,99.22 372.1,260.51 -19.1,30.87 -32.8,68.8 -41.3,111.44" /></g><g
         transform="scale(1.56639)"
         id="g324"><path
           id="path326"
           style="fill:#d54a41;fill-opacity:1;fill-rule:nonzero;stroke:none"
           d="m 16135.4,2206.15 c -9,-290.22 -48.9,-577.82 -226.4,-632.15 -47,-14.43 -89.9,-16.47 -127.8,-11.43 -28,-34.54 -62,-34.92 -107.8,-85.67 -69,-76.74 391.3,-23.05 445,0 53.7,22.98 76.8,475.68 134.3,590.78 47.3,94.55 -47.8,116.58 -117.3,138.47" /></g><g
         transform="scale(1.42347)"
         id="g328"><path
           id="path330"
           style="fill:#75a1de;fill-opacity:1;fill-rule:nonzero;stroke:none"
           d="m 16201.6,5450.12 h -1281.4 c -38.3,0 -73.1,22.2 -89.2,56.91 l -517.8,1114.52 c -22.9,49.25 -1.6,107.7 47.7,130.6 49.3,22.9 107.7,1.54 130.6,-47.7 l 491.4,-1057.62 h 1218.7 c 54.4,0 98.4,-44.05 98.4,-98.36 0,-54.37 -44,-98.35 -98.4,-98.35" /></g><g
         transform="scale(1.47511)"
         id="g332"><path
           id="path334"
           style="fill:#f09959;fill-opacity:1;fill-rule:nonzero;stroke:none"
           d="m 15893.3,5632.59 c -249.9,3.6 -497.8,152.54 -620.9,130.84 -123.1,-21.76 -525,-300.58 -474.3,-311.43 50.6,-10.85 369.3,154.29 380.2,156.8 10.9,2.51 79.7,-114.36 249.8,-157.34 170.3,-42.92 1.3,127.58 528.8,-31.8 343.1,-103.58 -63.6,212.93 -63.6,212.93" /></g><g
         transform="scale(1.62631)"
         id="g336"><path
           id="path338"
           style="fill:#f2e5de;fill-opacity:1;fill-rule:nonzero;stroke:none"
           d="m 16266.7,6682.65 33.3,-268.31 c 0,0 -293.2,-17.45 -439.2,-99.56 -145.9,-82.12 -361.3,-319.38 -361.3,-319.38 l 176,302.95 25.3,193.8 565.9,190.5" /></g><g
         transform="scale(1.63413)"
         id="g340"><path
           id="path342"
           style="fill:#f2e5de;fill-opacity:1;fill-rule:nonzero;stroke:none"
           d="m 16064.6,6323.8 c -216.7,40.62 -317,-153.64 -457.6,-470.71 -140.5,-317.11 -380.5,-702.21 -428.2,-751.84 -47.7,-49.69 -804.2,0 -804.2,0 0,0 -22.9,-219.02 0,-245.21 22.9,-26.13 153.7,-22.82 153.7,-22.82 0,0 52.3,-41.8 101.3,-74.84 49,-33.05 464.2,-95.16 657.1,-85.37 192.9,9.79 369.3,26.13 395.5,55.57 26.2,29.43 552.4,840.14 585.1,1131.06 32.7,290.91 -92,443.42 -202.7,464.16" /></g><g
         transform="scale(1.63996)"
         id="g344"><path
           id="path346"
           style="fill:#303c60;fill-opacity:1;fill-rule:nonzero;stroke:none"
           d="m 15370.5,7630.26 c -408.6,-19.55 -344.5,-634.16 -344.5,-634.16 0,0 106.1,-32.77 328.4,3.88 -17,65.96 -9.7,234.52 -9.7,234.52 0,0 25.8,-136.8 58.6,-219.86 47,-21.55 100.2,-2.44 190.5,19.4 46.5,-195.3 177.7,-277.81 267.4,-306.04 99.3,-31.2 204.3,-68.4 321.5,-9.77 117.3,58.63 52.8,657.96 -9.5,778.48 -93.4,180.91 -248.8,342.83 -517.5,257.33 -134.7,-42.88 -285.2,-123.78 -285.2,-123.78" /></g><g
         transform="scale(1.81801)"
         id="g348"><path
           id="path350"
           style="fill:#303c60;fill-opacity:1;fill-rule:nonzero;stroke:none"
           d="m 14506.1,6224.52 150.6,-220.08 c 0,0 -167,-417.23 318.7,-606.24 380.4,-148.07 335.6,-408.9 163.7,-671.22 -171.9,-262.32 102.8,-491.42 102.8,-491.42 0,0 41.9,290.59 411.5,345.43 503.9,74.81 646.6,751.32 270.2,1089.63 -311.4,279.92 -406.2,48.1 -617,299.31 -210.8,251.21 -608.8,81.53 -608.8,81.53 l -145.9,212.72 -45.8,-39.66" /></g><g
         transform="scale(1.81148)"
         id="g352"><path
           id="path354"
           style="fill:#303c60;fill-opacity:1;fill-rule:nonzero;stroke:none"
           d="m 16155,5007.07 c -2.2,0 -4.4,0.55 -6.4,1.66 -6.5,3.58 -8.9,11.75 -5.4,18.27 127.2,232.41 23.4,513.94 -28.7,590.21 -5.6,8.09 -10.9,16.28 -16.4,24.95 -51.3,80.04 -115.1,179.65 -455.6,240.96 -82,14.76 -148.4,63.5 -218.7,115.11 -145.2,106.6 -309.8,227.42 -667.4,62.84 -6.7,-3.12 -14.7,-0.16 -17.8,6.59 -3.1,6.75 -0.2,14.73 6.5,17.84 372,171.21 543.4,45.41 694.6,-65.59 67.7,-49.71 131.7,-96.66 207.6,-110.32 352,-63.39 419.4,-168.48 473.5,-252.92 5.4,-8.49 10.6,-16.52 15.9,-24.27 54.6,-79.9 163.3,-374.87 30.1,-618.32 -2.4,-4.47 -7,-7.01 -11.8,-7.01" /></g><g
         transform="scale(1.62987)"
         id="g356"><path
           id="path358"
           style="fill:#303c60;fill-opacity:1;fill-rule:nonzero;stroke:none"
           d="m 16090.8,6691.5 c -26.9,0 -56,2.34 -87.3,7.02 -143.8,21.55 -336.8,103.28 -351.9,562.26 -0.3,8.25 6.2,15.16 14.4,15.43 8.4,0.15 15.2,-6.2 15.5,-14.45 6.2,-189.19 43.7,-329.16 111.5,-416.03 51.5,-66.01 119.8,-103.39 214.9,-117.64 133.1,-19.93 221.4,4.64 262.2,73.04 4.3,7.08 13.5,9.39 20.5,5.17 7.1,-4.24 9.4,-13.42 5.2,-20.51 -37.5,-62.73 -106.3,-94.29 -205,-94.29" /></g><g
         transform="scale(1.1039)"
         id="g360"><path
           id="path362"
           style="fill:#2e5b9a;fill-opacity:1;fill-rule:nonzero;stroke:none"
           d="m 15502.6,2035.69 h 163 l 634.4,4849.16 h -358.7 l -438.7,-4849.16" /></g><g
         transform="scale(1.42465)"
         id="g364"><path
           id="path366"
           style="fill:#2e5b9a;fill-opacity:1;fill-rule:nonzero;stroke:none"
           d="m 16300,1577.37 h -126.3 l -491.6,3757.41 h 278 L 16300,1577.37" /></g><g
         transform="scale(1.91425)"
         id="g368"><path
           id="path370"
           style="fill:#74b570;fill-opacity:1;fill-rule:nonzero;stroke:none"
           d="m 15819,3534.39 c 162.7,-148.56 91.9,-297.08 -28.3,-573.01 -120.3,-275.88 -141.5,-1294.51 -141.5,-1294.51 l 99,14.16 c 0,0 -14.1,1046.94 120.3,1329.87 134.4,282.98 191,424.45 311.2,332.51 120.3,-92 -360.7,190.98 -360.7,190.98" /></g><g
         transform="scale(2.01223)"
         id="g372"><path
           id="path374"
           style="fill:#9cd499;fill-opacity:1;fill-rule:nonzero;stroke:none"
           d="m 14963.7,3545.28 c 18.8,83.74 130.4,174.38 279.7,251.21 -22.3,-123.5 -93.4,-325.46 -19.8,-366.91 99.4,-55.86 9.7,226.12 48,381.12 140.2,68.43 308.8,124.39 464.1,152.22 -0.2,-0.59 -0.4,-1.09 -0.6,-1.69 -87.5,-222.09 -201.9,-309.55 -154.8,-343.2 35.4,-25.34 150.9,231.19 303.3,362.68 114.4,6.12 211.2,-9.39 268.5,-54.71 88.5,-70.07 147.9,-132.24 58.9,-345.59 -50.8,-36.38 -116.7,-62.42 -193.3,-70.07 -201.8,-20.18 -296.1,-26.94 -154.7,-94.22 69.1,-32.95 185.1,1.88 279.2,23.06 -30.5,-56.21 -68,-119.82 -113.6,-192.33 -28.9,-45.92 -60.7,-85.87 -94.6,-120.36 -65,-12.48 -121.8,-12.63 -151.8,0.24 -94.2,40.41 -336.5,168.28 -397.1,114.45 -59.2,-52.72 448.7,-86.07 413.5,-220 -246.2,-141.83 -527.9,-74.35 -577.7,55.91 -66.9,174.93 -313.8,216.08 -257.2,468.19" /></g><g
         transform="scale(1.91009)"
         id="g376"><path
           id="path378"
           style="fill:#74b570;fill-opacity:1;fill-rule:nonzero;stroke:none"
           d="m 16300,2726.78 c -283.6,212.71 -574.3,14.19 -723.1,-212.66 -148.9,-226.85 -42.6,-737.29 -42.6,-737.29 0,0 56.7,0 56.7,21.25 0,21.26 -155.9,602.59 212.7,864.93 230.7,164.08 397,85.08 418.3,7.07 21.2,-77.95 -92.1,-219.78 -92.1,-219.78 l 170.1,276.48" /></g><g
         transform="scale(1.87769)"
         id="g380"><path
           id="path382"
           style="fill:#9cd499;fill-opacity:1;fill-rule:nonzero;stroke:none"
           d="m 15917.8,3218.58 c 288.4,0 382.2,-447.15 302.8,-706.77 -79.3,-259.58 -187.5,-742.78 -187.5,-742.78 l -72.1,72.11 c 0,0 274.1,677.91 209.2,980.78 -65,302.92 -223.6,353.41 -252.4,353.41 -28.9,0 0,43.25 0,43.25" /></g><g
         transform="scale(1.87028)"
         id="g384"><path
           id="path386"
           style="fill:#74b570;fill-opacity:1;fill-rule:nonzero;stroke:none"
           d="m 16223.8,2519.79 c 20.4,26.95 45.5,49.24 76.2,64.05 -4,-21.6 -9,-42.34 -15,-62.07 -36.3,-118.76 -78.6,-284.08 -113.9,-428.92 -3.2,18.55 -8.1,47.16 -15.8,91.21 -1.8,10.43 -3.2,21.76 -4.2,33.74 28.4,96.46 55.2,201.52 72.7,301.99" /></g><g
         transform="scale(2.00041)"
         id="g388"><path
           id="path390"
           style="fill:#9cd499;fill-opacity:1;fill-rule:nonzero;stroke:none"
           d="m 15242.5,2353.82 c 514.4,216.61 243.4,513.9 696.9,317.59 32,-13.85 70.9,-48.74 109.8,-96.78 -40.3,-11.45 -89.2,-19.7 -143.6,-11.55 -135.4,20.3 -88.1,-87.98 135.4,-115.08 42,-5.09 76.2,-12.14 104.6,-22.09 106.5,-204.41 154.4,-473.36 -70.8,-566.84 -44.4,-18.44 -99.2,-28.94 -160.3,-32.89 -69.5,55.24 17,374.87 -90.2,330.73 -102.8,-42.34 32.2,-273.99 13.7,-332.33 -101.5,1.85 -213.9,18.4 -321.3,45.04 -42.5,23.8 -75,55.74 -85,97.78 -33.8,142.12 189.5,230.15 196.3,351.98 6.2,112.03 -81.8,-246.45 -315.3,-299.19 -211,98.58 -310.7,232.35 -70.2,333.63" /></g><g
         transform="scale(1.86689)"
         id="g392"><path
           id="path394"
           style="fill:#9cd499;fill-opacity:1;fill-rule:nonzero;stroke:none"
           d="m 15939.8,2932.58 c 58,123.31 -94.4,152.28 -87.1,58.01 6.5,-83.56 7.2,-286.68 -78.5,-341.96 -147.8,16.02 -348.9,75.58 -500.9,166.32 -1.9,12.27 -0.1,24.91 6.4,37.82 65.3,130.59 486,239.38 355.4,282.87 -104,34.66 -286.2,-169.91 -433,-272.96 -88.2,66.9 -147.3,146.66 -147.3,235.68 0,120.52 146.5,256.9 335.8,322.14 85.2,-8.62 164.4,-55.22 288,-125.29 182.7,-103.48 140.4,63.85 -32.3,163.16 149.1,-7.71 297.8,-71.4 407.4,-223.58 0,0 -10.4,-65.02 58.4,-165.67 187.9,-274.47 -28.9,-434.74 -288,-424.29 14.7,72.31 75.6,202.53 115.7,287.75" /></g><g
         transform="scale(1.98669)"
         id="g396"><path
           id="path398"
           style="fill:#74b570;fill-opacity:1;fill-rule:nonzero;stroke:none"
           d="m 15655.1,2633.22 c 133.3,-102.99 281.4,-223.44 463.1,-305.23 181.8,-81.8 145.5,-348.37 145.5,-348.37 0,0 27.2,230.23 -124.3,309.01 -151.4,78.77 -251.4,172.65 -366.5,190.87 -115.2,18.17 -178.7,36.34 -178.7,36.34 0,0 36.3,72.68 15.1,99.96 -21.2,27.29 45.8,17.42 45.8,17.42" /></g><g
         transform="scale(1.98817)"
         id="g400"><path
           id="path402"
           style="fill:#74b570;fill-opacity:1;fill-rule:nonzero;stroke:none"
           d="m 16300,3839.91 c -487.4,-130.17 -844.6,-442.01 -911.2,-517.66 -66.6,-75.7 -66.6,-96.87 -66.6,-96.87 l 51.5,-96.88 24.2,12.07 c 0,0 -39.4,81.79 63.5,187.71 177.5,182.73 393.6,326.94 541.9,390.51 148.4,63.58 296.7,121.12 296.7,121.12" /></g><g
         transform="scale(1.87603)"
         id="g404"><path
           id="path406"
           style="fill:#75a1de;fill-opacity:1;fill-rule:nonzero;stroke:none"
           d="m 15848.6,1210.37 h 197.3 c 140.4,0 254.1,113.76 254.1,254.11 v 453.4 h -705.5 v -453.4 c 0,-140.35 113.8,-254.11 254.1,-254.11" /></g><g
         transform="scale(1.87603)"
         id="g408"><path
           id="path410"
           style="fill:#ffffff;fill-opacity:1;fill-rule:nonzero;stroke:none"
           d="m 16300,1787.12 h -705.5 v 49.68 h 705.5 v -49.68" /></g><g
         transform="scale(1.87603)"
         id="g412"><path
           id="path414"
           style="fill:#ffffff;fill-opacity:1;fill-rule:nonzero;stroke:none"
           d="m 16300,1717.03 h -705.5 v 29.21 h 705.5 v -29.21" /></g><path
         id="path416"
         style="fill:#9ec8ff;fill-opacity:1;fill-rule:nonzero;stroke:none"
         d="m 5588.8,3428.7 h 315.81 c 66.69,0 120.75,54 120.75,120.7 v 260.1 c 0,66.7 -54.06,120.7 -120.75,120.7 H 5588.8 c -66.69,0 -120.75,-54 -120.75,-120.7 v -260.1 c 0,-66.7 54.06,-120.7 120.75,-120.7" /><path
         id="path418"
         style="fill:#9ec8ff;fill-opacity:1;fill-rule:nonzero;stroke:none"
         d="m 4575.5,3428.7 h 315.81 c 66.69,0 120.75,54 120.75,120.7 v 260.1 c 0,66.7 -54.06,120.7 -120.75,120.7 H 4575.5 c -66.69,0 -120.75,-54 -120.75,-120.7 v -260.1 c 0,-66.7 54.06,-120.7 120.75,-120.7" /><path
         id="path420"
         style="fill:#9ec8ff;fill-opacity:1;fill-rule:nonzero;stroke:none"
         d="m 3562.2,3428.7 h 315.81 c 66.69,0 120.75,54 120.75,120.7 v 260.1 c 0,66.7 -54.06,120.7 -120.75,120.7 H 3562.2 c -66.69,0 -120.75,-54 -120.75,-120.7 v -260.1 c 0,-66.7 54.06,-120.7 120.75,-120.7" /><g
         transform="scale(1.98768)"
         id="g422"><path
           id="path424"
           style="fill:#9ec8ff;fill-opacity:1;fill-rule:nonzero;stroke:none"
           d="m 16300,6427.5 v 158.89 c 0,33.54 -27.2,60.74 -60.7,60.74 h -130.9 c -33.5,0 -60.7,-27.2 -60.7,-60.74 V 6427.5 c 0,-33.55 27.2,-60.75 60.7,-60.75 h 130.9 c 33.5,0 60.7,27.2 60.7,60.75" /></g><g
         transform="scale(1.98768)"
         id="g426"><path
           id="path428"
           style="fill:#9ec8ff;fill-opacity:1;fill-rule:nonzero;stroke:none"
           d="m 16300,5917.71 v 158.89 c 0,33.54 -27.2,60.74 -60.7,60.74 h -130.9 c -33.5,0 -60.7,-27.2 -60.7,-60.74 v -158.89 c 0,-33.55 27.2,-60.75 60.7,-60.75 h 130.9 c 33.5,0 60.7,27.2 60.7,60.75" /></g><g
         transform="scale(1.98768)"
         id="g430"><path
           id="path432"
           style="fill:#9ec8ff;fill-opacity:1;fill-rule:nonzero;stroke:none"
           d="m 16300,5407.92 v 158.88 c 0,33.56 -27.2,60.75 -60.7,60.75 h -130.9 c -33.5,0 -60.7,-27.19 -60.7,-60.75 v -158.88 c 0,-33.56 27.2,-60.75 60.7,-60.75 h 130.9 c 33.5,0 60.7,27.19 60.7,60.75" /></g></g></g></svg>